G04 #@! TF.GenerationSoftware,KiCad,Pcbnew,(5.0.0)*
G04 #@! TF.CreationDate,2019-03-19T21:48:40+00:00*
G04 #@! TF.ProjectId,Current_sensing_circuits,43757272656E745F73656E73696E675F,rev?*
G04 #@! TF.SameCoordinates,Original*
G04 #@! TF.FileFunction,Copper,L1,Top,Signal*
G04 #@! TF.FilePolarity,Positive*
%FSLAX46Y46*%
G04 Gerber Fmt 4.6, Leading zero omitted, Abs format (unit mm)*
G04 Created by KiCad (PCBNEW (5.0.0)) date 03/19/19 21:48:40*
%MOMM*%
%LPD*%
G01*
G04 APERTURE LIST*
G04 #@! TA.AperFunction,SMDPad,CuDef*
%ADD10R,1.000000X3.200000*%
G04 #@! TD*
G04 #@! TA.AperFunction,SMDPad,CuDef*
%ADD11R,1.143000X0.508000*%
G04 #@! TD*
G04 #@! TA.AperFunction,SMDPad,CuDef*
%ADD12R,1.000000X1.250000*%
G04 #@! TD*
G04 #@! TA.AperFunction,ComponentPad*
%ADD13C,1.700000*%
G04 #@! TD*
G04 #@! TA.AperFunction,ComponentPad*
%ADD14O,1.700000X1.700000*%
G04 #@! TD*
G04 #@! TA.AperFunction,ComponentPad*
%ADD15R,1.700000X1.700000*%
G04 #@! TD*
G04 #@! TA.AperFunction,Conductor*
%ADD16C,0.250000*%
G04 #@! TD*
G04 #@! TA.AperFunction,Conductor*
%ADD17C,1.000000*%
G04 #@! TD*
G04 APERTURE END LIST*
D10*
G04 #@! TO.P,R_shunt1,1*
G04 #@! TO.N,PWR-*
X142170000Y-88700000D03*
G04 #@! TO.P,R_shunt1,2*
G04 #@! TO.N,PWR+*
X135970000Y-88700000D03*
G04 #@! TD*
D11*
G04 #@! TO.P,U1,8*
G04 #@! TO.N,PWR-*
X142239250Y-91797500D03*
G04 #@! TO.P,U1,7*
G04 #@! TO.N,Vcc*
X142239250Y-93067500D03*
G04 #@! TO.P,U1,6*
X142239250Y-94337500D03*
G04 #@! TO.P,U1,5*
G04 #@! TO.N,ADC_OUT*
X142239250Y-95607500D03*
G04 #@! TO.P,U1,4*
G04 #@! TO.N,N/C*
X135889250Y-95607500D03*
G04 #@! TO.P,U1,3*
G04 #@! TO.N,GND*
X135889250Y-94337500D03*
G04 #@! TO.P,U1,2*
X135889250Y-93067500D03*
G04 #@! TO.P,U1,1*
G04 #@! TO.N,PWR+*
X135889250Y-91797500D03*
G04 #@! TD*
D12*
G04 #@! TO.P,C_bypass1,1*
G04 #@! TO.N,GND*
X135864250Y-97402500D03*
G04 #@! TO.P,C_bypass1,2*
G04 #@! TO.N,Vcc*
X137864250Y-97402500D03*
G04 #@! TD*
D13*
G04 #@! TO.P,J1,1*
G04 #@! TO.N,PWR+*
X137800000Y-84700000D03*
D14*
G04 #@! TO.P,J1,2*
G04 #@! TO.N,PWR-*
X140340000Y-84700000D03*
G04 #@! TD*
D13*
G04 #@! TO.P,J2,1*
G04 #@! TO.N,ADC_OUT*
X140340000Y-99940000D03*
D14*
G04 #@! TO.P,J2,2*
G04 #@! TO.N,Vcc*
X137800000Y-99940000D03*
D15*
G04 #@! TO.P,J2,3*
G04 #@! TO.N,GND*
X135260000Y-99940000D03*
G04 #@! TD*
D16*
G04 #@! TO.N,GND*
X134664250Y-96502500D02*
X135764250Y-97602500D01*
X134664250Y-94902500D02*
X134664250Y-96502500D01*
X135889250Y-94337500D02*
X135229250Y-94337500D01*
X135229250Y-94337500D02*
X134664250Y-94902500D01*
X135709250Y-93107500D02*
X135709250Y-94377500D01*
X135864250Y-99335750D02*
X135260000Y-99940000D01*
X135864250Y-97402500D02*
X135864250Y-99335750D01*
G04 #@! TO.N,Vcc*
X142059250Y-93107500D02*
X142059250Y-94377500D01*
X137864250Y-97402500D02*
X138064250Y-97402500D01*
X138064250Y-97402500D02*
X141129250Y-94337500D01*
X141129250Y-94337500D02*
X142239250Y-94337500D01*
X137864250Y-99875750D02*
X137800000Y-99940000D01*
X137864250Y-97402500D02*
X137864250Y-99875750D01*
D17*
G04 #@! TO.N,PWR+*
X135970000Y-88700000D02*
X135970000Y-91470000D01*
X135970000Y-86030000D02*
X135970000Y-88700000D01*
X137800000Y-84700000D02*
X137300000Y-84700000D01*
X137300000Y-84700000D02*
X135970000Y-86030000D01*
G04 #@! TO.N,PWR-*
X142170000Y-88700000D02*
X142170000Y-91470000D01*
X142170000Y-86170000D02*
X142170000Y-88700000D01*
X140340000Y-84700000D02*
X140700000Y-84700000D01*
X140700000Y-84700000D02*
X142170000Y-86170000D01*
D16*
G04 #@! TO.N,ADC_OUT*
X140560000Y-99940000D02*
X140340000Y-99940000D01*
X142239250Y-95607500D02*
X142239250Y-98260750D01*
X142239250Y-98260750D02*
X140560000Y-99940000D01*
G04 #@! TD*
M02*
