G04 #@! TF.GenerationSoftware,KiCad,Pcbnew,(5.0.0)*
G04 #@! TF.CreationDate,2019-03-19T21:48:40+00:00*
G04 #@! TF.ProjectId,Current_sensing_circuits,43757272656E745F73656E73696E675F,rev?*
G04 #@! TF.SameCoordinates,Original*
G04 #@! TF.FileFunction,Legend,Top*
G04 #@! TF.FilePolarity,Positive*
%FSLAX46Y46*%
G04 Gerber Fmt 4.6, Leading zero omitted, Abs format (unit mm)*
G04 Created by KiCad (PCBNEW (5.0.0)) date 03/19/19 21:48:40*
%MOMM*%
%LPD*%
G01*
G04 APERTURE LIST*
%ADD10C,0.120000*%
%ADD11C,0.150000*%
G04 APERTURE END LIST*
D10*
G04 #@! TO.C,R_shunt1*
X136470000Y-86880000D02*
X141670000Y-86880000D01*
X141670000Y-90520000D02*
X136470000Y-90520000D01*
D11*
G04 #@! TO.C,U1*
X141350250Y-91162500D02*
X141350250Y-96242500D01*
X141350250Y-96242500D02*
X136778250Y-96242500D01*
X136778250Y-96242500D02*
X136778250Y-91162500D01*
X136778250Y-91162500D02*
X141350250Y-91162500D01*
X139826250Y-91162500D02*
X139826250Y-91670500D01*
X139826250Y-91670500D02*
X138556250Y-91670500D01*
X138556250Y-91670500D02*
X138556250Y-91162500D01*
D10*
G04 #@! TO.C,C_bypass1*
X137364250Y-96552500D02*
X136364250Y-96552500D01*
X136364250Y-98252500D02*
X137364250Y-98252500D01*
G04 #@! TO.C,J1*
X139070000Y-86030000D02*
X139070000Y-83370000D01*
X139070000Y-86030000D02*
X141670000Y-86030000D01*
X141670000Y-86030000D02*
X141670000Y-83370000D01*
X139070000Y-83370000D02*
X141670000Y-83370000D01*
X136470000Y-83370000D02*
X137800000Y-83370000D01*
X136470000Y-84700000D02*
X136470000Y-83370000D01*
G04 #@! TO.C,J2*
X139070000Y-98610000D02*
X139070000Y-101270000D01*
X139070000Y-98610000D02*
X133930000Y-98610000D01*
X133930000Y-98610000D02*
X133930000Y-101270000D01*
X139070000Y-101270000D02*
X133930000Y-101270000D01*
X141670000Y-101270000D02*
X140340000Y-101270000D01*
X141670000Y-99940000D02*
X141670000Y-101270000D01*
G04 #@! TO.C,U1*
D11*
X139508666Y-95646666D02*
X138808666Y-95646666D01*
X139508666Y-95313333D02*
X138808666Y-95313333D01*
X139508666Y-94913333D01*
X138808666Y-94913333D01*
X139308666Y-94613333D02*
X139308666Y-94280000D01*
X139508666Y-94680000D02*
X138808666Y-94446666D01*
X139508666Y-94213333D01*
X138875333Y-94013333D02*
X138842000Y-93980000D01*
X138808666Y-93913333D01*
X138808666Y-93746666D01*
X138842000Y-93680000D01*
X138875333Y-93646666D01*
X138942000Y-93613333D01*
X139008666Y-93613333D01*
X139108666Y-93646666D01*
X139508666Y-94046666D01*
X139508666Y-93613333D01*
X139108666Y-93213333D02*
X139075333Y-93280000D01*
X139042000Y-93313333D01*
X138975333Y-93346666D01*
X138942000Y-93346666D01*
X138875333Y-93313333D01*
X138842000Y-93280000D01*
X138808666Y-93213333D01*
X138808666Y-93080000D01*
X138842000Y-93013333D01*
X138875333Y-92980000D01*
X138942000Y-92946666D01*
X138975333Y-92946666D01*
X139042000Y-92980000D01*
X139075333Y-93013333D01*
X139108666Y-93080000D01*
X139108666Y-93213333D01*
X139142000Y-93280000D01*
X139175333Y-93313333D01*
X139242000Y-93346666D01*
X139375333Y-93346666D01*
X139442000Y-93313333D01*
X139475333Y-93280000D01*
X139508666Y-93213333D01*
X139508666Y-93080000D01*
X139475333Y-93013333D01*
X139442000Y-92980000D01*
X139375333Y-92946666D01*
X139242000Y-92946666D01*
X139175333Y-92980000D01*
X139142000Y-93013333D01*
X139108666Y-93080000D01*
X138808666Y-92713333D02*
X138808666Y-92280000D01*
X139075333Y-92513333D01*
X139075333Y-92413333D01*
X139108666Y-92346666D01*
X139142000Y-92313333D01*
X139208666Y-92280000D01*
X139375333Y-92280000D01*
X139442000Y-92313333D01*
X139475333Y-92346666D01*
X139508666Y-92413333D01*
X139508666Y-92613333D01*
X139475333Y-92680000D01*
X139442000Y-92713333D01*
G04 #@! TO.C,C_bypass1*
X139114250Y-97019166D02*
X139180916Y-97019166D01*
X139247583Y-97052500D01*
X139280916Y-97085833D01*
X139314250Y-97152500D01*
X139347583Y-97285833D01*
X139347583Y-97452500D01*
X139314250Y-97585833D01*
X139280916Y-97652500D01*
X139247583Y-97685833D01*
X139180916Y-97719166D01*
X139114250Y-97719166D01*
X139047583Y-97685833D01*
X139014250Y-97652500D01*
X138980916Y-97585833D01*
X138947583Y-97452500D01*
X138947583Y-97285833D01*
X138980916Y-97152500D01*
X139014250Y-97085833D01*
X139047583Y-97052500D01*
X139114250Y-97019166D01*
X139647583Y-97652500D02*
X139680916Y-97685833D01*
X139647583Y-97719166D01*
X139614250Y-97685833D01*
X139647583Y-97652500D01*
X139647583Y-97719166D01*
X140347583Y-97719166D02*
X139947583Y-97719166D01*
X140147583Y-97719166D02*
X140147583Y-97019166D01*
X140080916Y-97119166D01*
X140014250Y-97185833D01*
X139947583Y-97219166D01*
X140947583Y-97252500D02*
X140947583Y-97719166D01*
X140647583Y-97252500D02*
X140647583Y-97619166D01*
X140680916Y-97685833D01*
X140747583Y-97719166D01*
X140847583Y-97719166D01*
X140914250Y-97685833D01*
X140947583Y-97652500D01*
G04 #@! TD*
M02*
