G04 #@! TF.GenerationSoftware,KiCad,Pcbnew,(5.0.0)*
G04 #@! TF.CreationDate,2019-01-14T07:55:56+00:00*
G04 #@! TF.ProjectId,AS5600_I2C_v1,4153353630305F4932435F76312E6B69,rev?*
G04 #@! TF.SameCoordinates,Original*
G04 #@! TF.FileFunction,Soldermask,Top*
G04 #@! TF.FilePolarity,Negative*
%FSLAX46Y46*%
G04 Gerber Fmt 4.6, Leading zero omitted, Abs format (unit mm)*
G04 Created by KiCad (PCBNEW (5.0.0)) date 01/14/19 07:55:56*
%MOMM*%
%LPD*%
G01*
G04 APERTURE LIST*
%ADD10C,0.100000*%
%ADD11C,1.375000*%
%ADD12R,1.000000X1.950000*%
%ADD13C,3.300000*%
%ADD14O,1.900000X1.900000*%
%ADD15C,1.750000*%
%ADD16R,1.900000X1.900000*%
%ADD17C,1.900000*%
G04 APERTURE END LIST*
D10*
G04 #@! TO.C,C1*
G36*
X166914943Y-79601655D02*
X166948312Y-79606605D01*
X166981035Y-79614802D01*
X167012797Y-79626166D01*
X167043293Y-79640590D01*
X167072227Y-79657932D01*
X167099323Y-79678028D01*
X167124318Y-79700682D01*
X167146972Y-79725677D01*
X167167068Y-79752773D01*
X167184410Y-79781707D01*
X167198834Y-79812203D01*
X167210198Y-79843965D01*
X167218395Y-79876688D01*
X167223345Y-79910057D01*
X167225000Y-79943750D01*
X167225000Y-81056250D01*
X167223345Y-81089943D01*
X167218395Y-81123312D01*
X167210198Y-81156035D01*
X167198834Y-81187797D01*
X167184410Y-81218293D01*
X167167068Y-81247227D01*
X167146972Y-81274323D01*
X167124318Y-81299318D01*
X167099323Y-81321972D01*
X167072227Y-81342068D01*
X167043293Y-81359410D01*
X167012797Y-81373834D01*
X166981035Y-81385198D01*
X166948312Y-81393395D01*
X166914943Y-81398345D01*
X166881250Y-81400000D01*
X166193750Y-81400000D01*
X166160057Y-81398345D01*
X166126688Y-81393395D01*
X166093965Y-81385198D01*
X166062203Y-81373834D01*
X166031707Y-81359410D01*
X166002773Y-81342068D01*
X165975677Y-81321972D01*
X165950682Y-81299318D01*
X165928028Y-81274323D01*
X165907932Y-81247227D01*
X165890590Y-81218293D01*
X165876166Y-81187797D01*
X165864802Y-81156035D01*
X165856605Y-81123312D01*
X165851655Y-81089943D01*
X165850000Y-81056250D01*
X165850000Y-79943750D01*
X165851655Y-79910057D01*
X165856605Y-79876688D01*
X165864802Y-79843965D01*
X165876166Y-79812203D01*
X165890590Y-79781707D01*
X165907932Y-79752773D01*
X165928028Y-79725677D01*
X165950682Y-79700682D01*
X165975677Y-79678028D01*
X166002773Y-79657932D01*
X166031707Y-79640590D01*
X166062203Y-79626166D01*
X166093965Y-79614802D01*
X166126688Y-79606605D01*
X166160057Y-79601655D01*
X166193750Y-79600000D01*
X166881250Y-79600000D01*
X166914943Y-79601655D01*
X166914943Y-79601655D01*
G37*
D11*
X166537500Y-80500000D03*
D10*
G36*
X165039943Y-79601655D02*
X165073312Y-79606605D01*
X165106035Y-79614802D01*
X165137797Y-79626166D01*
X165168293Y-79640590D01*
X165197227Y-79657932D01*
X165224323Y-79678028D01*
X165249318Y-79700682D01*
X165271972Y-79725677D01*
X165292068Y-79752773D01*
X165309410Y-79781707D01*
X165323834Y-79812203D01*
X165335198Y-79843965D01*
X165343395Y-79876688D01*
X165348345Y-79910057D01*
X165350000Y-79943750D01*
X165350000Y-81056250D01*
X165348345Y-81089943D01*
X165343395Y-81123312D01*
X165335198Y-81156035D01*
X165323834Y-81187797D01*
X165309410Y-81218293D01*
X165292068Y-81247227D01*
X165271972Y-81274323D01*
X165249318Y-81299318D01*
X165224323Y-81321972D01*
X165197227Y-81342068D01*
X165168293Y-81359410D01*
X165137797Y-81373834D01*
X165106035Y-81385198D01*
X165073312Y-81393395D01*
X165039943Y-81398345D01*
X165006250Y-81400000D01*
X164318750Y-81400000D01*
X164285057Y-81398345D01*
X164251688Y-81393395D01*
X164218965Y-81385198D01*
X164187203Y-81373834D01*
X164156707Y-81359410D01*
X164127773Y-81342068D01*
X164100677Y-81321972D01*
X164075682Y-81299318D01*
X164053028Y-81274323D01*
X164032932Y-81247227D01*
X164015590Y-81218293D01*
X164001166Y-81187797D01*
X163989802Y-81156035D01*
X163981605Y-81123312D01*
X163976655Y-81089943D01*
X163975000Y-81056250D01*
X163975000Y-79943750D01*
X163976655Y-79910057D01*
X163981605Y-79876688D01*
X163989802Y-79843965D01*
X164001166Y-79812203D01*
X164015590Y-79781707D01*
X164032932Y-79752773D01*
X164053028Y-79725677D01*
X164075682Y-79700682D01*
X164100677Y-79678028D01*
X164127773Y-79657932D01*
X164156707Y-79640590D01*
X164187203Y-79626166D01*
X164218965Y-79614802D01*
X164251688Y-79606605D01*
X164285057Y-79601655D01*
X164318750Y-79600000D01*
X165006250Y-79600000D01*
X165039943Y-79601655D01*
X165039943Y-79601655D01*
G37*
D11*
X164662500Y-80500000D03*
G04 #@! TD*
D10*
G04 #@! TO.C,C2*
G36*
X169077443Y-79601655D02*
X169110812Y-79606605D01*
X169143535Y-79614802D01*
X169175297Y-79626166D01*
X169205793Y-79640590D01*
X169234727Y-79657932D01*
X169261823Y-79678028D01*
X169286818Y-79700682D01*
X169309472Y-79725677D01*
X169329568Y-79752773D01*
X169346910Y-79781707D01*
X169361334Y-79812203D01*
X169372698Y-79843965D01*
X169380895Y-79876688D01*
X169385845Y-79910057D01*
X169387500Y-79943750D01*
X169387500Y-81056250D01*
X169385845Y-81089943D01*
X169380895Y-81123312D01*
X169372698Y-81156035D01*
X169361334Y-81187797D01*
X169346910Y-81218293D01*
X169329568Y-81247227D01*
X169309472Y-81274323D01*
X169286818Y-81299318D01*
X169261823Y-81321972D01*
X169234727Y-81342068D01*
X169205793Y-81359410D01*
X169175297Y-81373834D01*
X169143535Y-81385198D01*
X169110812Y-81393395D01*
X169077443Y-81398345D01*
X169043750Y-81400000D01*
X168356250Y-81400000D01*
X168322557Y-81398345D01*
X168289188Y-81393395D01*
X168256465Y-81385198D01*
X168224703Y-81373834D01*
X168194207Y-81359410D01*
X168165273Y-81342068D01*
X168138177Y-81321972D01*
X168113182Y-81299318D01*
X168090528Y-81274323D01*
X168070432Y-81247227D01*
X168053090Y-81218293D01*
X168038666Y-81187797D01*
X168027302Y-81156035D01*
X168019105Y-81123312D01*
X168014155Y-81089943D01*
X168012500Y-81056250D01*
X168012500Y-79943750D01*
X168014155Y-79910057D01*
X168019105Y-79876688D01*
X168027302Y-79843965D01*
X168038666Y-79812203D01*
X168053090Y-79781707D01*
X168070432Y-79752773D01*
X168090528Y-79725677D01*
X168113182Y-79700682D01*
X168138177Y-79678028D01*
X168165273Y-79657932D01*
X168194207Y-79640590D01*
X168224703Y-79626166D01*
X168256465Y-79614802D01*
X168289188Y-79606605D01*
X168322557Y-79601655D01*
X168356250Y-79600000D01*
X169043750Y-79600000D01*
X169077443Y-79601655D01*
X169077443Y-79601655D01*
G37*
D11*
X168700000Y-80500000D03*
D10*
G36*
X170952443Y-79601655D02*
X170985812Y-79606605D01*
X171018535Y-79614802D01*
X171050297Y-79626166D01*
X171080793Y-79640590D01*
X171109727Y-79657932D01*
X171136823Y-79678028D01*
X171161818Y-79700682D01*
X171184472Y-79725677D01*
X171204568Y-79752773D01*
X171221910Y-79781707D01*
X171236334Y-79812203D01*
X171247698Y-79843965D01*
X171255895Y-79876688D01*
X171260845Y-79910057D01*
X171262500Y-79943750D01*
X171262500Y-81056250D01*
X171260845Y-81089943D01*
X171255895Y-81123312D01*
X171247698Y-81156035D01*
X171236334Y-81187797D01*
X171221910Y-81218293D01*
X171204568Y-81247227D01*
X171184472Y-81274323D01*
X171161818Y-81299318D01*
X171136823Y-81321972D01*
X171109727Y-81342068D01*
X171080793Y-81359410D01*
X171050297Y-81373834D01*
X171018535Y-81385198D01*
X170985812Y-81393395D01*
X170952443Y-81398345D01*
X170918750Y-81400000D01*
X170231250Y-81400000D01*
X170197557Y-81398345D01*
X170164188Y-81393395D01*
X170131465Y-81385198D01*
X170099703Y-81373834D01*
X170069207Y-81359410D01*
X170040273Y-81342068D01*
X170013177Y-81321972D01*
X169988182Y-81299318D01*
X169965528Y-81274323D01*
X169945432Y-81247227D01*
X169928090Y-81218293D01*
X169913666Y-81187797D01*
X169902302Y-81156035D01*
X169894105Y-81123312D01*
X169889155Y-81089943D01*
X169887500Y-81056250D01*
X169887500Y-79943750D01*
X169889155Y-79910057D01*
X169894105Y-79876688D01*
X169902302Y-79843965D01*
X169913666Y-79812203D01*
X169928090Y-79781707D01*
X169945432Y-79752773D01*
X169965528Y-79725677D01*
X169988182Y-79700682D01*
X170013177Y-79678028D01*
X170040273Y-79657932D01*
X170069207Y-79640590D01*
X170099703Y-79626166D01*
X170131465Y-79614802D01*
X170164188Y-79606605D01*
X170197557Y-79601655D01*
X170231250Y-79600000D01*
X170918750Y-79600000D01*
X170952443Y-79601655D01*
X170952443Y-79601655D01*
G37*
D11*
X170575000Y-80500000D03*
G04 #@! TD*
D12*
G04 #@! TO.C,U1*
X166575000Y-72922000D03*
X167845000Y-72922000D03*
X169115000Y-72922000D03*
X170385000Y-72922000D03*
X170385000Y-78322000D03*
X169115000Y-78322000D03*
X167845000Y-78322000D03*
X166575000Y-78322000D03*
G04 #@! TD*
D13*
G04 #@! TO.C,2.5mm *
X177730000Y-70330000D03*
G04 #@! TD*
G04 #@! TO.C,2.5mm *
X159230000Y-70330000D03*
G04 #@! TD*
G04 #@! TO.C,2.5mm *
X159230000Y-80915000D03*
G04 #@! TD*
G04 #@! TO.C,2.5mm *
X177730000Y-80915000D03*
G04 #@! TD*
D14*
G04 #@! TO.C,J1*
X172980000Y-84622000D03*
D15*
X169980000Y-84622000D03*
D16*
X166980000Y-84622000D03*
D17*
X163980000Y-84622000D03*
G04 #@! TD*
M02*
