G04 #@! TF.GenerationSoftware,KiCad,Pcbnew,(5.0.0)*
G04 #@! TF.CreationDate,2019-01-14T07:55:56+00:00*
G04 #@! TF.ProjectId,AS5600_I2C_v1,4153353630305F4932435F76312E6B69,rev?*
G04 #@! TF.SameCoordinates,Original*
G04 #@! TF.FileFunction,Copper,L1,Top,Signal*
G04 #@! TF.FilePolarity,Positive*
%FSLAX46Y46*%
G04 Gerber Fmt 4.6, Leading zero omitted, Abs format (unit mm)*
G04 Created by KiCad (PCBNEW (5.0.0)) date 01/14/19 07:55:56*
%MOMM*%
%LPD*%
G01*
G04 APERTURE LIST*
G04 #@! TA.AperFunction,Conductor*
%ADD10C,0.100000*%
G04 #@! TD*
G04 #@! TA.AperFunction,SMDPad,CuDef*
%ADD11C,0.975000*%
G04 #@! TD*
G04 #@! TA.AperFunction,SMDPad,CuDef*
%ADD12R,0.600000X1.550000*%
G04 #@! TD*
G04 #@! TA.AperFunction,WasherPad*
%ADD13C,2.900000*%
G04 #@! TD*
G04 #@! TA.AperFunction,ComponentPad*
%ADD14O,1.500000X1.500000*%
G04 #@! TD*
G04 #@! TA.AperFunction,ComponentPad*
%ADD15C,1.350000*%
G04 #@! TD*
G04 #@! TA.AperFunction,ComponentPad*
%ADD16R,1.500000X1.500000*%
G04 #@! TD*
G04 #@! TA.AperFunction,ComponentPad*
%ADD17C,1.500000*%
G04 #@! TD*
G04 #@! TA.AperFunction,Conductor*
%ADD18C,0.400000*%
G04 #@! TD*
G04 #@! TA.AperFunction,Conductor*
%ADD19C,0.254000*%
G04 #@! TD*
G04 APERTURE END LIST*
D10*
G04 #@! TO.N,+5V*
G04 #@! TO.C,C1*
G36*
X166805142Y-79801174D02*
X166828803Y-79804684D01*
X166852007Y-79810496D01*
X166874529Y-79818554D01*
X166896153Y-79828782D01*
X166916670Y-79841079D01*
X166935883Y-79855329D01*
X166953607Y-79871393D01*
X166969671Y-79889117D01*
X166983921Y-79908330D01*
X166996218Y-79928847D01*
X167006446Y-79950471D01*
X167014504Y-79972993D01*
X167020316Y-79996197D01*
X167023826Y-80019858D01*
X167025000Y-80043750D01*
X167025000Y-80956250D01*
X167023826Y-80980142D01*
X167020316Y-81003803D01*
X167014504Y-81027007D01*
X167006446Y-81049529D01*
X166996218Y-81071153D01*
X166983921Y-81091670D01*
X166969671Y-81110883D01*
X166953607Y-81128607D01*
X166935883Y-81144671D01*
X166916670Y-81158921D01*
X166896153Y-81171218D01*
X166874529Y-81181446D01*
X166852007Y-81189504D01*
X166828803Y-81195316D01*
X166805142Y-81198826D01*
X166781250Y-81200000D01*
X166293750Y-81200000D01*
X166269858Y-81198826D01*
X166246197Y-81195316D01*
X166222993Y-81189504D01*
X166200471Y-81181446D01*
X166178847Y-81171218D01*
X166158330Y-81158921D01*
X166139117Y-81144671D01*
X166121393Y-81128607D01*
X166105329Y-81110883D01*
X166091079Y-81091670D01*
X166078782Y-81071153D01*
X166068554Y-81049529D01*
X166060496Y-81027007D01*
X166054684Y-81003803D01*
X166051174Y-80980142D01*
X166050000Y-80956250D01*
X166050000Y-80043750D01*
X166051174Y-80019858D01*
X166054684Y-79996197D01*
X166060496Y-79972993D01*
X166068554Y-79950471D01*
X166078782Y-79928847D01*
X166091079Y-79908330D01*
X166105329Y-79889117D01*
X166121393Y-79871393D01*
X166139117Y-79855329D01*
X166158330Y-79841079D01*
X166178847Y-79828782D01*
X166200471Y-79818554D01*
X166222993Y-79810496D01*
X166246197Y-79804684D01*
X166269858Y-79801174D01*
X166293750Y-79800000D01*
X166781250Y-79800000D01*
X166805142Y-79801174D01*
X166805142Y-79801174D01*
G37*
D11*
G04 #@! TD*
G04 #@! TO.P,C1,1*
G04 #@! TO.N,+5V*
X166537500Y-80500000D03*
D10*
G04 #@! TO.N,GND*
G04 #@! TO.C,C1*
G36*
X164930142Y-79801174D02*
X164953803Y-79804684D01*
X164977007Y-79810496D01*
X164999529Y-79818554D01*
X165021153Y-79828782D01*
X165041670Y-79841079D01*
X165060883Y-79855329D01*
X165078607Y-79871393D01*
X165094671Y-79889117D01*
X165108921Y-79908330D01*
X165121218Y-79928847D01*
X165131446Y-79950471D01*
X165139504Y-79972993D01*
X165145316Y-79996197D01*
X165148826Y-80019858D01*
X165150000Y-80043750D01*
X165150000Y-80956250D01*
X165148826Y-80980142D01*
X165145316Y-81003803D01*
X165139504Y-81027007D01*
X165131446Y-81049529D01*
X165121218Y-81071153D01*
X165108921Y-81091670D01*
X165094671Y-81110883D01*
X165078607Y-81128607D01*
X165060883Y-81144671D01*
X165041670Y-81158921D01*
X165021153Y-81171218D01*
X164999529Y-81181446D01*
X164977007Y-81189504D01*
X164953803Y-81195316D01*
X164930142Y-81198826D01*
X164906250Y-81200000D01*
X164418750Y-81200000D01*
X164394858Y-81198826D01*
X164371197Y-81195316D01*
X164347993Y-81189504D01*
X164325471Y-81181446D01*
X164303847Y-81171218D01*
X164283330Y-81158921D01*
X164264117Y-81144671D01*
X164246393Y-81128607D01*
X164230329Y-81110883D01*
X164216079Y-81091670D01*
X164203782Y-81071153D01*
X164193554Y-81049529D01*
X164185496Y-81027007D01*
X164179684Y-81003803D01*
X164176174Y-80980142D01*
X164175000Y-80956250D01*
X164175000Y-80043750D01*
X164176174Y-80019858D01*
X164179684Y-79996197D01*
X164185496Y-79972993D01*
X164193554Y-79950471D01*
X164203782Y-79928847D01*
X164216079Y-79908330D01*
X164230329Y-79889117D01*
X164246393Y-79871393D01*
X164264117Y-79855329D01*
X164283330Y-79841079D01*
X164303847Y-79828782D01*
X164325471Y-79818554D01*
X164347993Y-79810496D01*
X164371197Y-79804684D01*
X164394858Y-79801174D01*
X164418750Y-79800000D01*
X164906250Y-79800000D01*
X164930142Y-79801174D01*
X164930142Y-79801174D01*
G37*
D11*
G04 #@! TD*
G04 #@! TO.P,C1,2*
G04 #@! TO.N,GND*
X164662500Y-80500000D03*
D10*
G04 #@! TO.N,Net-(C2-Pad1)*
G04 #@! TO.C,C2*
G36*
X168967642Y-79801174D02*
X168991303Y-79804684D01*
X169014507Y-79810496D01*
X169037029Y-79818554D01*
X169058653Y-79828782D01*
X169079170Y-79841079D01*
X169098383Y-79855329D01*
X169116107Y-79871393D01*
X169132171Y-79889117D01*
X169146421Y-79908330D01*
X169158718Y-79928847D01*
X169168946Y-79950471D01*
X169177004Y-79972993D01*
X169182816Y-79996197D01*
X169186326Y-80019858D01*
X169187500Y-80043750D01*
X169187500Y-80956250D01*
X169186326Y-80980142D01*
X169182816Y-81003803D01*
X169177004Y-81027007D01*
X169168946Y-81049529D01*
X169158718Y-81071153D01*
X169146421Y-81091670D01*
X169132171Y-81110883D01*
X169116107Y-81128607D01*
X169098383Y-81144671D01*
X169079170Y-81158921D01*
X169058653Y-81171218D01*
X169037029Y-81181446D01*
X169014507Y-81189504D01*
X168991303Y-81195316D01*
X168967642Y-81198826D01*
X168943750Y-81200000D01*
X168456250Y-81200000D01*
X168432358Y-81198826D01*
X168408697Y-81195316D01*
X168385493Y-81189504D01*
X168362971Y-81181446D01*
X168341347Y-81171218D01*
X168320830Y-81158921D01*
X168301617Y-81144671D01*
X168283893Y-81128607D01*
X168267829Y-81110883D01*
X168253579Y-81091670D01*
X168241282Y-81071153D01*
X168231054Y-81049529D01*
X168222996Y-81027007D01*
X168217184Y-81003803D01*
X168213674Y-80980142D01*
X168212500Y-80956250D01*
X168212500Y-80043750D01*
X168213674Y-80019858D01*
X168217184Y-79996197D01*
X168222996Y-79972993D01*
X168231054Y-79950471D01*
X168241282Y-79928847D01*
X168253579Y-79908330D01*
X168267829Y-79889117D01*
X168283893Y-79871393D01*
X168301617Y-79855329D01*
X168320830Y-79841079D01*
X168341347Y-79828782D01*
X168362971Y-79818554D01*
X168385493Y-79810496D01*
X168408697Y-79804684D01*
X168432358Y-79801174D01*
X168456250Y-79800000D01*
X168943750Y-79800000D01*
X168967642Y-79801174D01*
X168967642Y-79801174D01*
G37*
D11*
G04 #@! TD*
G04 #@! TO.P,C2,1*
G04 #@! TO.N,Net-(C2-Pad1)*
X168700000Y-80500000D03*
D10*
G04 #@! TO.N,GND*
G04 #@! TO.C,C2*
G36*
X170842642Y-79801174D02*
X170866303Y-79804684D01*
X170889507Y-79810496D01*
X170912029Y-79818554D01*
X170933653Y-79828782D01*
X170954170Y-79841079D01*
X170973383Y-79855329D01*
X170991107Y-79871393D01*
X171007171Y-79889117D01*
X171021421Y-79908330D01*
X171033718Y-79928847D01*
X171043946Y-79950471D01*
X171052004Y-79972993D01*
X171057816Y-79996197D01*
X171061326Y-80019858D01*
X171062500Y-80043750D01*
X171062500Y-80956250D01*
X171061326Y-80980142D01*
X171057816Y-81003803D01*
X171052004Y-81027007D01*
X171043946Y-81049529D01*
X171033718Y-81071153D01*
X171021421Y-81091670D01*
X171007171Y-81110883D01*
X170991107Y-81128607D01*
X170973383Y-81144671D01*
X170954170Y-81158921D01*
X170933653Y-81171218D01*
X170912029Y-81181446D01*
X170889507Y-81189504D01*
X170866303Y-81195316D01*
X170842642Y-81198826D01*
X170818750Y-81200000D01*
X170331250Y-81200000D01*
X170307358Y-81198826D01*
X170283697Y-81195316D01*
X170260493Y-81189504D01*
X170237971Y-81181446D01*
X170216347Y-81171218D01*
X170195830Y-81158921D01*
X170176617Y-81144671D01*
X170158893Y-81128607D01*
X170142829Y-81110883D01*
X170128579Y-81091670D01*
X170116282Y-81071153D01*
X170106054Y-81049529D01*
X170097996Y-81027007D01*
X170092184Y-81003803D01*
X170088674Y-80980142D01*
X170087500Y-80956250D01*
X170087500Y-80043750D01*
X170088674Y-80019858D01*
X170092184Y-79996197D01*
X170097996Y-79972993D01*
X170106054Y-79950471D01*
X170116282Y-79928847D01*
X170128579Y-79908330D01*
X170142829Y-79889117D01*
X170158893Y-79871393D01*
X170176617Y-79855329D01*
X170195830Y-79841079D01*
X170216347Y-79828782D01*
X170237971Y-79818554D01*
X170260493Y-79810496D01*
X170283697Y-79804684D01*
X170307358Y-79801174D01*
X170331250Y-79800000D01*
X170818750Y-79800000D01*
X170842642Y-79801174D01*
X170842642Y-79801174D01*
G37*
D11*
G04 #@! TD*
G04 #@! TO.P,C2,2*
G04 #@! TO.N,GND*
X170575000Y-80500000D03*
D12*
G04 #@! TO.P,U1,8*
G04 #@! TO.N,GND*
X166575000Y-72922000D03*
G04 #@! TO.P,U1,7*
G04 #@! TO.N,SCL*
X167845000Y-72922000D03*
G04 #@! TO.P,U1,6*
G04 #@! TO.N,SDA*
X169115000Y-72922000D03*
G04 #@! TO.P,U1,5*
G04 #@! TO.N,Net-(U1-Pad5)*
X170385000Y-72922000D03*
G04 #@! TO.P,U1,4*
G04 #@! TO.N,GND*
X170385000Y-78322000D03*
G04 #@! TO.P,U1,3*
G04 #@! TO.N,Net-(U1-Pad3)*
X169115000Y-78322000D03*
G04 #@! TO.P,U1,2*
G04 #@! TO.N,Net-(C2-Pad1)*
X167845000Y-78322000D03*
G04 #@! TO.P,U1,1*
G04 #@! TO.N,+5V*
X166575000Y-78322000D03*
G04 #@! TD*
D13*
G04 #@! TO.P,2.5mm ,*
G04 #@! TO.N,*
X177730000Y-70330000D03*
G04 #@! TD*
G04 #@! TO.P,2.5mm ,*
G04 #@! TO.N,*
X159230000Y-70330000D03*
G04 #@! TD*
G04 #@! TO.P,2.5mm ,*
G04 #@! TO.N,*
X159230000Y-80915000D03*
G04 #@! TD*
G04 #@! TO.P,2.5mm ,*
G04 #@! TO.N,*
X177730000Y-80915000D03*
G04 #@! TD*
D14*
G04 #@! TO.P,J1,4*
G04 #@! TO.N,SDA*
X172980000Y-84622000D03*
D15*
G04 #@! TO.P,J1,3*
G04 #@! TO.N,+5V*
X169980000Y-84622000D03*
D16*
G04 #@! TO.P,J1,2*
G04 #@! TO.N,GND*
X166980000Y-84622000D03*
D17*
G04 #@! TO.P,J1,1*
G04 #@! TO.N,SCL*
X163980000Y-84622000D03*
G04 #@! TD*
D18*
G04 #@! TO.N,+5V*
X169980000Y-83942500D02*
X169980000Y-84622000D01*
X166575000Y-80462500D02*
X166537500Y-80500000D01*
X166537500Y-80500000D02*
X166600000Y-80500000D01*
X166575000Y-78322000D02*
X166575000Y-80462500D01*
X166537500Y-80500000D02*
X169980000Y-83942500D01*
G04 #@! TO.N,Net-(C2-Pad1)*
X168700000Y-80500000D02*
X167845000Y-79645000D01*
X167845000Y-79645000D02*
X167845000Y-78322000D01*
G04 #@! TO.N,SDA*
X169115000Y-71747000D02*
X169115000Y-72922000D01*
X173028000Y-84622000D02*
X174800000Y-82850000D01*
X172980000Y-84622000D02*
X173028000Y-84622000D01*
X174800000Y-82850000D02*
X174800000Y-74050000D01*
X174800000Y-74050000D02*
X171900000Y-71150000D01*
X171900000Y-71150000D02*
X169712000Y-71150000D01*
X169712000Y-71150000D02*
X169115000Y-71747000D01*
G04 #@! TO.N,SCL*
X167845000Y-71747000D02*
X167845000Y-72922000D01*
X167198000Y-71100000D02*
X167845000Y-71747000D01*
X165350000Y-71100000D02*
X167198000Y-71100000D01*
X162250000Y-74200000D02*
X165350000Y-71100000D01*
X163980000Y-84622000D02*
X162250000Y-82892000D01*
X162250000Y-82892000D02*
X162250000Y-74200000D01*
G04 #@! TD*
D19*
G04 #@! TO.N,GND*
G36*
X175645000Y-69915268D02*
X175645000Y-70744732D01*
X175962422Y-71511058D01*
X176548942Y-72097578D01*
X177315268Y-72415000D01*
X178144732Y-72415000D01*
X178795001Y-72145650D01*
X178795000Y-79099349D01*
X178144732Y-78830000D01*
X177315268Y-78830000D01*
X176548942Y-79147422D01*
X175962422Y-79733942D01*
X175645000Y-80500268D01*
X175645000Y-81329732D01*
X175962422Y-82096058D01*
X176548942Y-82682578D01*
X177315268Y-83000000D01*
X178144732Y-83000000D01*
X178795000Y-82730651D01*
X178795000Y-85912534D01*
X178758624Y-86095410D01*
X178693250Y-86193249D01*
X178595409Y-86258624D01*
X178412534Y-86295000D01*
X158547466Y-86295000D01*
X158364590Y-86258624D01*
X158266751Y-86193250D01*
X158201376Y-86095409D01*
X158165000Y-85912534D01*
X158165000Y-82730651D01*
X158815268Y-83000000D01*
X159644732Y-83000000D01*
X160411058Y-82682578D01*
X160997578Y-82096058D01*
X161315000Y-81329732D01*
X161315000Y-80500268D01*
X160997578Y-79733942D01*
X160411058Y-79147422D01*
X159644732Y-78830000D01*
X158815268Y-78830000D01*
X158165000Y-79099349D01*
X158165000Y-74200000D01*
X161398643Y-74200000D01*
X161415001Y-74282238D01*
X161415000Y-82809767D01*
X161398643Y-82892000D01*
X161415000Y-82974233D01*
X161415000Y-82974236D01*
X161463448Y-83217800D01*
X161647999Y-83494001D01*
X161717720Y-83540587D01*
X162595000Y-84417868D01*
X162595000Y-84897494D01*
X162805853Y-85406540D01*
X163195460Y-85796147D01*
X163704506Y-86007000D01*
X164255494Y-86007000D01*
X164764540Y-85796147D01*
X165154147Y-85406540D01*
X165365000Y-84897494D01*
X165365000Y-84346506D01*
X165154147Y-83837460D01*
X164764540Y-83447853D01*
X164255494Y-83237000D01*
X163775868Y-83237000D01*
X163085000Y-82546133D01*
X163085000Y-80043750D01*
X165402560Y-80043750D01*
X165402560Y-80956250D01*
X165470398Y-81297294D01*
X165663584Y-81586416D01*
X165952706Y-81779602D01*
X166293750Y-81847440D01*
X166704073Y-81847440D01*
X168830522Y-83973890D01*
X168670000Y-84361425D01*
X168670000Y-84882575D01*
X168869436Y-85364055D01*
X169237945Y-85732564D01*
X169719425Y-85932000D01*
X170240575Y-85932000D01*
X170722055Y-85732564D01*
X171090564Y-85364055D01*
X171290000Y-84882575D01*
X171290000Y-84361425D01*
X171090564Y-83879945D01*
X170722055Y-83511436D01*
X170686330Y-83496638D01*
X170582001Y-83340499D01*
X170512283Y-83293915D01*
X169045557Y-81827189D01*
X169284794Y-81779602D01*
X169573916Y-81586416D01*
X169767102Y-81297294D01*
X169834940Y-80956250D01*
X169834940Y-80043750D01*
X169767102Y-79702706D01*
X169731410Y-79649289D01*
X169872809Y-79554809D01*
X170013157Y-79344765D01*
X170062440Y-79097000D01*
X170062440Y-77547000D01*
X170013157Y-77299235D01*
X169872809Y-77089191D01*
X169662765Y-76948843D01*
X169415000Y-76899560D01*
X168815000Y-76899560D01*
X168567235Y-76948843D01*
X168480000Y-77007132D01*
X168392765Y-76948843D01*
X168145000Y-76899560D01*
X167545000Y-76899560D01*
X167297235Y-76948843D01*
X167210000Y-77007132D01*
X167122765Y-76948843D01*
X166875000Y-76899560D01*
X166275000Y-76899560D01*
X166027235Y-76948843D01*
X165817191Y-77089191D01*
X165676843Y-77299235D01*
X165627560Y-77547000D01*
X165627560Y-79097000D01*
X165676843Y-79344765D01*
X165704541Y-79386217D01*
X165663584Y-79413584D01*
X165470398Y-79702706D01*
X165402560Y-80043750D01*
X163085000Y-80043750D01*
X163085000Y-74545867D01*
X165695868Y-71935000D01*
X166852133Y-71935000D01*
X166925196Y-72008063D01*
X166897560Y-72147000D01*
X166897560Y-73697000D01*
X166946843Y-73944765D01*
X167087191Y-74154809D01*
X167297235Y-74295157D01*
X167545000Y-74344440D01*
X168145000Y-74344440D01*
X168392765Y-74295157D01*
X168480000Y-74236868D01*
X168567235Y-74295157D01*
X168815000Y-74344440D01*
X169415000Y-74344440D01*
X169662765Y-74295157D01*
X169750000Y-74236868D01*
X169837235Y-74295157D01*
X170085000Y-74344440D01*
X170685000Y-74344440D01*
X170932765Y-74295157D01*
X171142809Y-74154809D01*
X171283157Y-73944765D01*
X171332440Y-73697000D01*
X171332440Y-72147000D01*
X171300217Y-71985000D01*
X171554133Y-71985000D01*
X173965001Y-74395870D01*
X173965000Y-82504131D01*
X173212932Y-83256200D01*
X173116407Y-83237000D01*
X172843593Y-83237000D01*
X172439600Y-83317359D01*
X171981471Y-83623471D01*
X171675359Y-84081600D01*
X171567867Y-84622000D01*
X171675359Y-85162400D01*
X171981471Y-85620529D01*
X172439600Y-85926641D01*
X172843593Y-86007000D01*
X173116407Y-86007000D01*
X173520400Y-85926641D01*
X173978529Y-85620529D01*
X174284641Y-85162400D01*
X174392133Y-84622000D01*
X174361727Y-84469140D01*
X175332286Y-83498583D01*
X175402001Y-83452001D01*
X175558489Y-83217801D01*
X175586552Y-83175801D01*
X175621521Y-83000000D01*
X175635000Y-82932237D01*
X175635000Y-82932234D01*
X175651357Y-82850001D01*
X175635000Y-82767768D01*
X175635000Y-74132232D01*
X175651357Y-74049999D01*
X175635000Y-73967766D01*
X175635000Y-73967763D01*
X175586552Y-73724199D01*
X175402001Y-73447999D01*
X175332285Y-73401417D01*
X172548587Y-70617720D01*
X172502001Y-70547999D01*
X172225801Y-70363448D01*
X171982237Y-70315000D01*
X171982233Y-70315000D01*
X171900000Y-70298643D01*
X171817767Y-70315000D01*
X169794231Y-70315000D01*
X169711999Y-70298643D01*
X169629767Y-70315000D01*
X169629763Y-70315000D01*
X169386199Y-70363448D01*
X169254546Y-70451416D01*
X169184828Y-70498000D01*
X169109999Y-70547999D01*
X169063416Y-70617715D01*
X168582719Y-71098413D01*
X168512999Y-71144999D01*
X168480000Y-71194386D01*
X168447001Y-71144999D01*
X168377283Y-71098415D01*
X167846587Y-70567720D01*
X167800001Y-70497999D01*
X167523801Y-70313448D01*
X167280237Y-70265000D01*
X167280233Y-70265000D01*
X167198000Y-70248643D01*
X167115767Y-70265000D01*
X165432232Y-70265000D01*
X165349999Y-70248643D01*
X165267766Y-70265000D01*
X165267763Y-70265000D01*
X165024199Y-70313448D01*
X164747999Y-70497999D01*
X164701415Y-70567717D01*
X161717718Y-73551415D01*
X161648000Y-73597999D01*
X161601416Y-73667717D01*
X161463448Y-73874200D01*
X161398643Y-74200000D01*
X158165000Y-74200000D01*
X158165000Y-72145651D01*
X158815268Y-72415000D01*
X159644732Y-72415000D01*
X160411058Y-72097578D01*
X160997578Y-71511058D01*
X161315000Y-70744732D01*
X161315000Y-69915268D01*
X161045651Y-69265000D01*
X175914349Y-69265000D01*
X175645000Y-69915268D01*
X175645000Y-69915268D01*
G37*
X175645000Y-69915268D02*
X175645000Y-70744732D01*
X175962422Y-71511058D01*
X176548942Y-72097578D01*
X177315268Y-72415000D01*
X178144732Y-72415000D01*
X178795001Y-72145650D01*
X178795000Y-79099349D01*
X178144732Y-78830000D01*
X177315268Y-78830000D01*
X176548942Y-79147422D01*
X175962422Y-79733942D01*
X175645000Y-80500268D01*
X175645000Y-81329732D01*
X175962422Y-82096058D01*
X176548942Y-82682578D01*
X177315268Y-83000000D01*
X178144732Y-83000000D01*
X178795000Y-82730651D01*
X178795000Y-85912534D01*
X178758624Y-86095410D01*
X178693250Y-86193249D01*
X178595409Y-86258624D01*
X178412534Y-86295000D01*
X158547466Y-86295000D01*
X158364590Y-86258624D01*
X158266751Y-86193250D01*
X158201376Y-86095409D01*
X158165000Y-85912534D01*
X158165000Y-82730651D01*
X158815268Y-83000000D01*
X159644732Y-83000000D01*
X160411058Y-82682578D01*
X160997578Y-82096058D01*
X161315000Y-81329732D01*
X161315000Y-80500268D01*
X160997578Y-79733942D01*
X160411058Y-79147422D01*
X159644732Y-78830000D01*
X158815268Y-78830000D01*
X158165000Y-79099349D01*
X158165000Y-74200000D01*
X161398643Y-74200000D01*
X161415001Y-74282238D01*
X161415000Y-82809767D01*
X161398643Y-82892000D01*
X161415000Y-82974233D01*
X161415000Y-82974236D01*
X161463448Y-83217800D01*
X161647999Y-83494001D01*
X161717720Y-83540587D01*
X162595000Y-84417868D01*
X162595000Y-84897494D01*
X162805853Y-85406540D01*
X163195460Y-85796147D01*
X163704506Y-86007000D01*
X164255494Y-86007000D01*
X164764540Y-85796147D01*
X165154147Y-85406540D01*
X165365000Y-84897494D01*
X165365000Y-84346506D01*
X165154147Y-83837460D01*
X164764540Y-83447853D01*
X164255494Y-83237000D01*
X163775868Y-83237000D01*
X163085000Y-82546133D01*
X163085000Y-80043750D01*
X165402560Y-80043750D01*
X165402560Y-80956250D01*
X165470398Y-81297294D01*
X165663584Y-81586416D01*
X165952706Y-81779602D01*
X166293750Y-81847440D01*
X166704073Y-81847440D01*
X168830522Y-83973890D01*
X168670000Y-84361425D01*
X168670000Y-84882575D01*
X168869436Y-85364055D01*
X169237945Y-85732564D01*
X169719425Y-85932000D01*
X170240575Y-85932000D01*
X170722055Y-85732564D01*
X171090564Y-85364055D01*
X171290000Y-84882575D01*
X171290000Y-84361425D01*
X171090564Y-83879945D01*
X170722055Y-83511436D01*
X170686330Y-83496638D01*
X170582001Y-83340499D01*
X170512283Y-83293915D01*
X169045557Y-81827189D01*
X169284794Y-81779602D01*
X169573916Y-81586416D01*
X169767102Y-81297294D01*
X169834940Y-80956250D01*
X169834940Y-80043750D01*
X169767102Y-79702706D01*
X169731410Y-79649289D01*
X169872809Y-79554809D01*
X170013157Y-79344765D01*
X170062440Y-79097000D01*
X170062440Y-77547000D01*
X170013157Y-77299235D01*
X169872809Y-77089191D01*
X169662765Y-76948843D01*
X169415000Y-76899560D01*
X168815000Y-76899560D01*
X168567235Y-76948843D01*
X168480000Y-77007132D01*
X168392765Y-76948843D01*
X168145000Y-76899560D01*
X167545000Y-76899560D01*
X167297235Y-76948843D01*
X167210000Y-77007132D01*
X167122765Y-76948843D01*
X166875000Y-76899560D01*
X166275000Y-76899560D01*
X166027235Y-76948843D01*
X165817191Y-77089191D01*
X165676843Y-77299235D01*
X165627560Y-77547000D01*
X165627560Y-79097000D01*
X165676843Y-79344765D01*
X165704541Y-79386217D01*
X165663584Y-79413584D01*
X165470398Y-79702706D01*
X165402560Y-80043750D01*
X163085000Y-80043750D01*
X163085000Y-74545867D01*
X165695868Y-71935000D01*
X166852133Y-71935000D01*
X166925196Y-72008063D01*
X166897560Y-72147000D01*
X166897560Y-73697000D01*
X166946843Y-73944765D01*
X167087191Y-74154809D01*
X167297235Y-74295157D01*
X167545000Y-74344440D01*
X168145000Y-74344440D01*
X168392765Y-74295157D01*
X168480000Y-74236868D01*
X168567235Y-74295157D01*
X168815000Y-74344440D01*
X169415000Y-74344440D01*
X169662765Y-74295157D01*
X169750000Y-74236868D01*
X169837235Y-74295157D01*
X170085000Y-74344440D01*
X170685000Y-74344440D01*
X170932765Y-74295157D01*
X171142809Y-74154809D01*
X171283157Y-73944765D01*
X171332440Y-73697000D01*
X171332440Y-72147000D01*
X171300217Y-71985000D01*
X171554133Y-71985000D01*
X173965001Y-74395870D01*
X173965000Y-82504131D01*
X173212932Y-83256200D01*
X173116407Y-83237000D01*
X172843593Y-83237000D01*
X172439600Y-83317359D01*
X171981471Y-83623471D01*
X171675359Y-84081600D01*
X171567867Y-84622000D01*
X171675359Y-85162400D01*
X171981471Y-85620529D01*
X172439600Y-85926641D01*
X172843593Y-86007000D01*
X173116407Y-86007000D01*
X173520400Y-85926641D01*
X173978529Y-85620529D01*
X174284641Y-85162400D01*
X174392133Y-84622000D01*
X174361727Y-84469140D01*
X175332286Y-83498583D01*
X175402001Y-83452001D01*
X175558489Y-83217801D01*
X175586552Y-83175801D01*
X175621521Y-83000000D01*
X175635000Y-82932237D01*
X175635000Y-82932234D01*
X175651357Y-82850001D01*
X175635000Y-82767768D01*
X175635000Y-74132232D01*
X175651357Y-74049999D01*
X175635000Y-73967766D01*
X175635000Y-73967763D01*
X175586552Y-73724199D01*
X175402001Y-73447999D01*
X175332285Y-73401417D01*
X172548587Y-70617720D01*
X172502001Y-70547999D01*
X172225801Y-70363448D01*
X171982237Y-70315000D01*
X171982233Y-70315000D01*
X171900000Y-70298643D01*
X171817767Y-70315000D01*
X169794231Y-70315000D01*
X169711999Y-70298643D01*
X169629767Y-70315000D01*
X169629763Y-70315000D01*
X169386199Y-70363448D01*
X169254546Y-70451416D01*
X169184828Y-70498000D01*
X169109999Y-70547999D01*
X169063416Y-70617715D01*
X168582719Y-71098413D01*
X168512999Y-71144999D01*
X168480000Y-71194386D01*
X168447001Y-71144999D01*
X168377283Y-71098415D01*
X167846587Y-70567720D01*
X167800001Y-70497999D01*
X167523801Y-70313448D01*
X167280237Y-70265000D01*
X167280233Y-70265000D01*
X167198000Y-70248643D01*
X167115767Y-70265000D01*
X165432232Y-70265000D01*
X165349999Y-70248643D01*
X165267766Y-70265000D01*
X165267763Y-70265000D01*
X165024199Y-70313448D01*
X164747999Y-70497999D01*
X164701415Y-70567717D01*
X161717718Y-73551415D01*
X161648000Y-73597999D01*
X161601416Y-73667717D01*
X161463448Y-73874200D01*
X161398643Y-74200000D01*
X158165000Y-74200000D01*
X158165000Y-72145651D01*
X158815268Y-72415000D01*
X159644732Y-72415000D01*
X160411058Y-72097578D01*
X160997578Y-71511058D01*
X161315000Y-70744732D01*
X161315000Y-69915268D01*
X161045651Y-69265000D01*
X175914349Y-69265000D01*
X175645000Y-69915268D01*
G04 #@! TD*
M02*
