G04 #@! TF.GenerationSoftware,KiCad,Pcbnew,(5.0.0)*
G04 #@! TF.CreationDate,2019-01-14T07:55:56+00:00*
G04 #@! TF.ProjectId,AS5600_I2C_v1,4153353630305F4932435F76312E6B69,rev?*
G04 #@! TF.SameCoordinates,Original*
G04 #@! TF.FileFunction,Legend,Top*
G04 #@! TF.FilePolarity,Positive*
%FSLAX46Y46*%
G04 Gerber Fmt 4.6, Leading zero omitted, Abs format (unit mm)*
G04 Created by KiCad (PCBNEW (5.0.0)) date 01/14/19 07:55:56*
%MOMM*%
%LPD*%
G01*
G04 APERTURE LIST*
%ADD10C,0.120000*%
%ADD11C,0.150000*%
%ADD12C,0.080000*%
%ADD13C,0.100000*%
G04 APERTURE END LIST*
D10*
G04 #@! TO.C,C1*
X165858578Y-81210000D02*
X165341422Y-81210000D01*
X165858578Y-79790000D02*
X165341422Y-79790000D01*
G04 #@! TO.C,C2*
X169378922Y-79790000D02*
X169896078Y-79790000D01*
X169378922Y-81210000D02*
X169896078Y-81210000D01*
D11*
G04 #@! TO.C,U1*
X165955000Y-77697000D02*
X165955000Y-79097000D01*
X171055000Y-77697000D02*
X171055000Y-73547000D01*
X165905000Y-77697000D02*
X165905000Y-73547000D01*
X171055000Y-77697000D02*
X170910000Y-77697000D01*
X171055000Y-73547000D02*
X170910000Y-73547000D01*
X165905000Y-73547000D02*
X166050000Y-73547000D01*
X165905000Y-77697000D02*
X165955000Y-77697000D01*
G04 #@! TO.C,C1*
D12*
X163726190Y-79276190D02*
X163440476Y-79276190D01*
X163583333Y-79276190D02*
X163583333Y-78776190D01*
X163535714Y-78847619D01*
X163488095Y-78895238D01*
X163440476Y-78919047D01*
X164035714Y-78776190D02*
X164083333Y-78776190D01*
X164130952Y-78800000D01*
X164154761Y-78823809D01*
X164178571Y-78871428D01*
X164202380Y-78966666D01*
X164202380Y-79085714D01*
X164178571Y-79180952D01*
X164154761Y-79228571D01*
X164130952Y-79252380D01*
X164083333Y-79276190D01*
X164035714Y-79276190D01*
X163988095Y-79252380D01*
X163964285Y-79228571D01*
X163940476Y-79180952D01*
X163916666Y-79085714D01*
X163916666Y-78966666D01*
X163940476Y-78871428D01*
X163964285Y-78823809D01*
X163988095Y-78800000D01*
X164035714Y-78776190D01*
X164511904Y-78776190D02*
X164559523Y-78776190D01*
X164607142Y-78800000D01*
X164630952Y-78823809D01*
X164654761Y-78871428D01*
X164678571Y-78966666D01*
X164678571Y-79085714D01*
X164654761Y-79180952D01*
X164630952Y-79228571D01*
X164607142Y-79252380D01*
X164559523Y-79276190D01*
X164511904Y-79276190D01*
X164464285Y-79252380D01*
X164440476Y-79228571D01*
X164416666Y-79180952D01*
X164392857Y-79085714D01*
X164392857Y-78966666D01*
X164416666Y-78871428D01*
X164440476Y-78823809D01*
X164464285Y-78800000D01*
X164511904Y-78776190D01*
X164892857Y-78942857D02*
X164892857Y-79276190D01*
X164892857Y-78990476D02*
X164916666Y-78966666D01*
X164964285Y-78942857D01*
X165035714Y-78942857D01*
X165083333Y-78966666D01*
X165107142Y-79014285D01*
X165107142Y-79276190D01*
X165511904Y-79014285D02*
X165345238Y-79014285D01*
X165345238Y-79276190D02*
X165345238Y-78776190D01*
X165583333Y-78776190D01*
G04 #@! TO.C,C2*
X171902380Y-80676190D02*
X171616666Y-80676190D01*
X171759523Y-80676190D02*
X171759523Y-80176190D01*
X171711904Y-80247619D01*
X171664285Y-80295238D01*
X171616666Y-80319047D01*
X172330952Y-80342857D02*
X172330952Y-80676190D01*
X172116666Y-80342857D02*
X172116666Y-80604761D01*
X172140476Y-80652380D01*
X172188095Y-80676190D01*
X172259523Y-80676190D01*
X172307142Y-80652380D01*
X172330952Y-80628571D01*
X172735714Y-80414285D02*
X172569047Y-80414285D01*
X172569047Y-80676190D02*
X172569047Y-80176190D01*
X172807142Y-80176190D01*
G04 #@! TO.C,U1*
D13*
X162557142Y-69966666D02*
X162938095Y-69966666D01*
X162480952Y-70252380D02*
X162747619Y-69252380D01*
X163014285Y-70252380D01*
X163242857Y-70204761D02*
X163357142Y-70252380D01*
X163547619Y-70252380D01*
X163623809Y-70204761D01*
X163661904Y-70157142D01*
X163700000Y-70061904D01*
X163700000Y-69966666D01*
X163661904Y-69871428D01*
X163623809Y-69823809D01*
X163547619Y-69776190D01*
X163395238Y-69728571D01*
X163319047Y-69680952D01*
X163280952Y-69633333D01*
X163242857Y-69538095D01*
X163242857Y-69442857D01*
X163280952Y-69347619D01*
X163319047Y-69300000D01*
X163395238Y-69252380D01*
X163585714Y-69252380D01*
X163700000Y-69300000D01*
X164423809Y-69252380D02*
X164042857Y-69252380D01*
X164004761Y-69728571D01*
X164042857Y-69680952D01*
X164119047Y-69633333D01*
X164309523Y-69633333D01*
X164385714Y-69680952D01*
X164423809Y-69728571D01*
X164461904Y-69823809D01*
X164461904Y-70061904D01*
X164423809Y-70157142D01*
X164385714Y-70204761D01*
X164309523Y-70252380D01*
X164119047Y-70252380D01*
X164042857Y-70204761D01*
X164004761Y-70157142D01*
X165147619Y-69252380D02*
X164995238Y-69252380D01*
X164919047Y-69300000D01*
X164880952Y-69347619D01*
X164804761Y-69490476D01*
X164766666Y-69680952D01*
X164766666Y-70061904D01*
X164804761Y-70157142D01*
X164842857Y-70204761D01*
X164919047Y-70252380D01*
X165071428Y-70252380D01*
X165147619Y-70204761D01*
X165185714Y-70157142D01*
X165223809Y-70061904D01*
X165223809Y-69823809D01*
X165185714Y-69728571D01*
X165147619Y-69680952D01*
X165071428Y-69633333D01*
X164919047Y-69633333D01*
X164842857Y-69680952D01*
X164804761Y-69728571D01*
X164766666Y-69823809D01*
X165719047Y-69252380D02*
X165795238Y-69252380D01*
X165871428Y-69300000D01*
X165909523Y-69347619D01*
X165947619Y-69442857D01*
X165985714Y-69633333D01*
X165985714Y-69871428D01*
X165947619Y-70061904D01*
X165909523Y-70157142D01*
X165871428Y-70204761D01*
X165795238Y-70252380D01*
X165719047Y-70252380D01*
X165642857Y-70204761D01*
X165604761Y-70157142D01*
X165566666Y-70061904D01*
X165528571Y-69871428D01*
X165528571Y-69633333D01*
X165566666Y-69442857D01*
X165604761Y-69347619D01*
X165642857Y-69300000D01*
X165719047Y-69252380D01*
X166480952Y-69252380D02*
X166557142Y-69252380D01*
X166633333Y-69300000D01*
X166671428Y-69347619D01*
X166709523Y-69442857D01*
X166747619Y-69633333D01*
X166747619Y-69871428D01*
X166709523Y-70061904D01*
X166671428Y-70157142D01*
X166633333Y-70204761D01*
X166557142Y-70252380D01*
X166480952Y-70252380D01*
X166404761Y-70204761D01*
X166366666Y-70157142D01*
X166328571Y-70061904D01*
X166290476Y-69871428D01*
X166290476Y-69633333D01*
X166328571Y-69442857D01*
X166366666Y-69347619D01*
X166404761Y-69300000D01*
X166480952Y-69252380D01*
X166900000Y-70347619D02*
X167509523Y-70347619D01*
X167661904Y-69966666D02*
X168042857Y-69966666D01*
X167585714Y-70252380D02*
X167852380Y-69252380D01*
X168119047Y-70252380D01*
X168347619Y-70204761D02*
X168461904Y-70252380D01*
X168652380Y-70252380D01*
X168728571Y-70204761D01*
X168766666Y-70157142D01*
X168804761Y-70061904D01*
X168804761Y-69966666D01*
X168766666Y-69871428D01*
X168728571Y-69823809D01*
X168652380Y-69776190D01*
X168500000Y-69728571D01*
X168423809Y-69680952D01*
X168385714Y-69633333D01*
X168347619Y-69538095D01*
X168347619Y-69442857D01*
X168385714Y-69347619D01*
X168423809Y-69300000D01*
X168500000Y-69252380D01*
X168690476Y-69252380D01*
X168804761Y-69300000D01*
X169300000Y-69252380D02*
X169452380Y-69252380D01*
X169528571Y-69300000D01*
X169604761Y-69395238D01*
X169642857Y-69585714D01*
X169642857Y-69919047D01*
X169604761Y-70109523D01*
X169528571Y-70204761D01*
X169452380Y-70252380D01*
X169300000Y-70252380D01*
X169223809Y-70204761D01*
X169147619Y-70109523D01*
X169109523Y-69919047D01*
X169109523Y-69585714D01*
X169147619Y-69395238D01*
X169223809Y-69300000D01*
X169300000Y-69252380D01*
X169985714Y-70252380D02*
X169985714Y-69252380D01*
X170252380Y-69966666D01*
X170519047Y-69252380D01*
X170519047Y-70252380D01*
X170709523Y-70347619D02*
X171319047Y-70347619D01*
X171433333Y-69585714D02*
X171623809Y-70252380D01*
X171814285Y-69585714D01*
X172119047Y-69728571D02*
X172385714Y-69728571D01*
X172500000Y-70252380D02*
X172119047Y-70252380D01*
X172119047Y-69252380D01*
X172500000Y-69252380D01*
X172728571Y-69585714D02*
X173033333Y-69585714D01*
X172842857Y-69252380D02*
X172842857Y-70109523D01*
X172880952Y-70204761D01*
X172957142Y-70252380D01*
X173033333Y-70252380D01*
X173300000Y-70252380D02*
X173300000Y-69252380D01*
X173642857Y-70252380D02*
X173642857Y-69728571D01*
X173604761Y-69633333D01*
X173528571Y-69585714D01*
X173414285Y-69585714D01*
X173338095Y-69633333D01*
X173300000Y-69680952D01*
X173985714Y-69347619D02*
X174023809Y-69300000D01*
X174100000Y-69252380D01*
X174290476Y-69252380D01*
X174366666Y-69300000D01*
X174404761Y-69347619D01*
X174442857Y-69442857D01*
X174442857Y-69538095D01*
X174404761Y-69680952D01*
X173947619Y-70252380D01*
X174442857Y-70252380D01*
G04 #@! TO.C,J1*
D12*
X163362857Y-86344380D02*
X163434285Y-86368190D01*
X163553333Y-86368190D01*
X163600952Y-86344380D01*
X163624761Y-86320571D01*
X163648571Y-86272952D01*
X163648571Y-86225333D01*
X163624761Y-86177714D01*
X163600952Y-86153904D01*
X163553333Y-86130095D01*
X163458095Y-86106285D01*
X163410476Y-86082476D01*
X163386666Y-86058666D01*
X163362857Y-86011047D01*
X163362857Y-85963428D01*
X163386666Y-85915809D01*
X163410476Y-85892000D01*
X163458095Y-85868190D01*
X163577142Y-85868190D01*
X163648571Y-85892000D01*
X164148571Y-86320571D02*
X164124761Y-86344380D01*
X164053333Y-86368190D01*
X164005714Y-86368190D01*
X163934285Y-86344380D01*
X163886666Y-86296761D01*
X163862857Y-86249142D01*
X163839047Y-86153904D01*
X163839047Y-86082476D01*
X163862857Y-85987238D01*
X163886666Y-85939619D01*
X163934285Y-85892000D01*
X164005714Y-85868190D01*
X164053333Y-85868190D01*
X164124761Y-85892000D01*
X164148571Y-85915809D01*
X164600952Y-86368190D02*
X164362857Y-86368190D01*
X164362857Y-85868190D01*
X166553333Y-85892000D02*
X166505714Y-85868190D01*
X166434285Y-85868190D01*
X166362857Y-85892000D01*
X166315238Y-85939619D01*
X166291428Y-85987238D01*
X166267619Y-86082476D01*
X166267619Y-86153904D01*
X166291428Y-86249142D01*
X166315238Y-86296761D01*
X166362857Y-86344380D01*
X166434285Y-86368190D01*
X166481904Y-86368190D01*
X166553333Y-86344380D01*
X166577142Y-86320571D01*
X166577142Y-86153904D01*
X166481904Y-86153904D01*
X166791428Y-86368190D02*
X166791428Y-85868190D01*
X167077142Y-86368190D01*
X167077142Y-85868190D01*
X167315238Y-86368190D02*
X167315238Y-85868190D01*
X167434285Y-85868190D01*
X167505714Y-85892000D01*
X167553333Y-85939619D01*
X167577142Y-85987238D01*
X167600952Y-86082476D01*
X167600952Y-86153904D01*
X167577142Y-86249142D01*
X167553333Y-86296761D01*
X167505714Y-86344380D01*
X167434285Y-86368190D01*
X167315238Y-86368190D01*
X169339047Y-86177714D02*
X169720000Y-86177714D01*
X169529523Y-86368190D02*
X169529523Y-85987238D01*
X170196190Y-85868190D02*
X169958095Y-85868190D01*
X169934285Y-86106285D01*
X169958095Y-86082476D01*
X170005714Y-86058666D01*
X170124761Y-86058666D01*
X170172380Y-86082476D01*
X170196190Y-86106285D01*
X170220000Y-86153904D01*
X170220000Y-86272952D01*
X170196190Y-86320571D01*
X170172380Y-86344380D01*
X170124761Y-86368190D01*
X170005714Y-86368190D01*
X169958095Y-86344380D01*
X169934285Y-86320571D01*
X170362857Y-85868190D02*
X170529523Y-86368190D01*
X170696190Y-85868190D01*
X172362857Y-86344380D02*
X172434285Y-86368190D01*
X172553333Y-86368190D01*
X172600952Y-86344380D01*
X172624761Y-86320571D01*
X172648571Y-86272952D01*
X172648571Y-86225333D01*
X172624761Y-86177714D01*
X172600952Y-86153904D01*
X172553333Y-86130095D01*
X172458095Y-86106285D01*
X172410476Y-86082476D01*
X172386666Y-86058666D01*
X172362857Y-86011047D01*
X172362857Y-85963428D01*
X172386666Y-85915809D01*
X172410476Y-85892000D01*
X172458095Y-85868190D01*
X172577142Y-85868190D01*
X172648571Y-85892000D01*
X172862857Y-86368190D02*
X172862857Y-85868190D01*
X172981904Y-85868190D01*
X173053333Y-85892000D01*
X173100952Y-85939619D01*
X173124761Y-85987238D01*
X173148571Y-86082476D01*
X173148571Y-86153904D01*
X173124761Y-86249142D01*
X173100952Y-86296761D01*
X173053333Y-86344380D01*
X172981904Y-86368190D01*
X172862857Y-86368190D01*
X173339047Y-86225333D02*
X173577142Y-86225333D01*
X173291428Y-86368190D02*
X173458095Y-85868190D01*
X173624761Y-86368190D01*
G04 #@! TD*
M02*
