G04 #@! TF.GenerationSoftware,KiCad,Pcbnew,(5.0.0)*
G04 #@! TF.CreationDate,2019-03-01T09:09:24+00:00*
G04 #@! TF.ProjectId,AS5600_I2C_v1,4153353630305F4932435F76312E6B69,rev?*
G04 #@! TF.SameCoordinates,Original*
G04 #@! TF.FileFunction,Legend,Top*
G04 #@! TF.FilePolarity,Positive*
%FSLAX46Y46*%
G04 Gerber Fmt 4.6, Leading zero omitted, Abs format (unit mm)*
G04 Created by KiCad (PCBNEW (5.0.0)) date 03/01/19 09:09:24*
%MOMM*%
%LPD*%
G01*
G04 APERTURE LIST*
%ADD10C,0.125000*%
%ADD11C,0.010000*%
%ADD12C,0.120000*%
%ADD13C,0.150000*%
%ADD14C,0.080000*%
%ADD15C,0.100000*%
G04 APERTURE END LIST*
D10*
X150250000Y-68619047D02*
X150273809Y-68571428D01*
X150273809Y-68500000D01*
X150250000Y-68428571D01*
X150202380Y-68380952D01*
X150154761Y-68357142D01*
X150059523Y-68333333D01*
X149988095Y-68333333D01*
X149892857Y-68357142D01*
X149845238Y-68380952D01*
X149797619Y-68428571D01*
X149773809Y-68500000D01*
X149773809Y-68547619D01*
X149797619Y-68619047D01*
X149821428Y-68642857D01*
X149988095Y-68642857D01*
X149988095Y-68547619D01*
X149773809Y-68857142D02*
X150273809Y-68857142D01*
X149773809Y-69142857D01*
X150273809Y-69142857D01*
X149773809Y-69380952D02*
X150273809Y-69380952D01*
X150273809Y-69500000D01*
X150250000Y-69571428D01*
X150202380Y-69619047D01*
X150154761Y-69642857D01*
X150059523Y-69666666D01*
X149988095Y-69666666D01*
X149892857Y-69642857D01*
X149845238Y-69619047D01*
X149797619Y-69571428D01*
X149773809Y-69500000D01*
X149773809Y-69380952D01*
X149964285Y-66357142D02*
X149964285Y-66738095D01*
X149773809Y-66547619D02*
X150154761Y-66547619D01*
X150273809Y-67214285D02*
X150273809Y-66976190D01*
X150035714Y-66952380D01*
X150059523Y-66976190D01*
X150083333Y-67023809D01*
X150083333Y-67142857D01*
X150059523Y-67190476D01*
X150035714Y-67214285D01*
X149988095Y-67238095D01*
X149869047Y-67238095D01*
X149821428Y-67214285D01*
X149797619Y-67190476D01*
X149773809Y-67142857D01*
X149773809Y-67023809D01*
X149797619Y-66976190D01*
X149821428Y-66952380D01*
X150273809Y-67380952D02*
X149773809Y-67547619D01*
X150273809Y-67714285D01*
X149797619Y-64404761D02*
X149773809Y-64476190D01*
X149773809Y-64595238D01*
X149797619Y-64642857D01*
X149821428Y-64666666D01*
X149869047Y-64690476D01*
X149916666Y-64690476D01*
X149964285Y-64666666D01*
X149988095Y-64642857D01*
X150011904Y-64595238D01*
X150035714Y-64500000D01*
X150059523Y-64452380D01*
X150083333Y-64428571D01*
X150130952Y-64404761D01*
X150178571Y-64404761D01*
X150226190Y-64428571D01*
X150250000Y-64452380D01*
X150273809Y-64500000D01*
X150273809Y-64619047D01*
X150250000Y-64690476D01*
X149821428Y-65190476D02*
X149797619Y-65166666D01*
X149773809Y-65095238D01*
X149773809Y-65047619D01*
X149797619Y-64976190D01*
X149845238Y-64928571D01*
X149892857Y-64904761D01*
X149988095Y-64880952D01*
X150059523Y-64880952D01*
X150154761Y-64904761D01*
X150202380Y-64928571D01*
X150250000Y-64976190D01*
X150273809Y-65047619D01*
X150273809Y-65095238D01*
X150250000Y-65166666D01*
X150226190Y-65190476D01*
X149773809Y-65642857D02*
X149773809Y-65404761D01*
X150273809Y-65404761D01*
X149797619Y-62392857D02*
X149773809Y-62464285D01*
X149773809Y-62583333D01*
X149797619Y-62630952D01*
X149821428Y-62654761D01*
X149869047Y-62678571D01*
X149916666Y-62678571D01*
X149964285Y-62654761D01*
X149988095Y-62630952D01*
X150011904Y-62583333D01*
X150035714Y-62488095D01*
X150059523Y-62440476D01*
X150083333Y-62416666D01*
X150130952Y-62392857D01*
X150178571Y-62392857D01*
X150226190Y-62416666D01*
X150250000Y-62440476D01*
X150273809Y-62488095D01*
X150273809Y-62607142D01*
X150250000Y-62678571D01*
X149773809Y-62892857D02*
X150273809Y-62892857D01*
X150273809Y-63011904D01*
X150250000Y-63083333D01*
X150202380Y-63130952D01*
X150154761Y-63154761D01*
X150059523Y-63178571D01*
X149988095Y-63178571D01*
X149892857Y-63154761D01*
X149845238Y-63130952D01*
X149797619Y-63083333D01*
X149773809Y-63011904D01*
X149773809Y-62892857D01*
X149916666Y-63369047D02*
X149916666Y-63607142D01*
X149773809Y-63321428D02*
X150273809Y-63488095D01*
X149773809Y-63654761D01*
D11*
G04 #@! TO.C,REF\002A\002A*
G36*
X170126964Y-63040018D02*
X170183812Y-63341570D01*
X170603338Y-63514512D01*
X170854984Y-63343395D01*
X170925458Y-63295750D01*
X170989163Y-63253210D01*
X171043126Y-63217715D01*
X171084373Y-63191210D01*
X171109934Y-63175636D01*
X171116895Y-63172278D01*
X171129435Y-63180914D01*
X171156231Y-63204792D01*
X171194280Y-63240859D01*
X171240579Y-63286067D01*
X171292123Y-63337364D01*
X171345909Y-63391701D01*
X171398935Y-63446028D01*
X171448195Y-63497295D01*
X171490687Y-63542451D01*
X171523407Y-63578446D01*
X171543351Y-63602230D01*
X171548119Y-63610190D01*
X171541257Y-63624865D01*
X171522020Y-63657014D01*
X171492430Y-63703492D01*
X171454510Y-63761156D01*
X171410282Y-63826860D01*
X171384654Y-63864336D01*
X171337941Y-63932768D01*
X171296432Y-63994520D01*
X171262140Y-64046519D01*
X171237080Y-64085692D01*
X171223264Y-64108965D01*
X171221188Y-64113855D01*
X171225895Y-64127755D01*
X171238723Y-64160150D01*
X171257738Y-64206485D01*
X171281003Y-64262206D01*
X171306584Y-64322758D01*
X171332545Y-64383586D01*
X171356950Y-64440136D01*
X171377863Y-64487852D01*
X171393349Y-64522181D01*
X171401472Y-64538568D01*
X171401952Y-64539212D01*
X171414707Y-64542341D01*
X171448677Y-64549321D01*
X171500340Y-64559467D01*
X171566176Y-64572092D01*
X171642664Y-64586509D01*
X171687290Y-64594823D01*
X171769021Y-64610384D01*
X171842843Y-64625192D01*
X171905021Y-64638436D01*
X171951822Y-64649305D01*
X171979509Y-64656989D01*
X171985074Y-64659427D01*
X171990526Y-64675930D01*
X171994924Y-64713200D01*
X171998272Y-64766880D01*
X172000574Y-64832612D01*
X172001832Y-64906037D01*
X172002048Y-64982796D01*
X172001227Y-65058532D01*
X171999371Y-65128886D01*
X171996482Y-65189500D01*
X171992565Y-65236016D01*
X171987622Y-65264075D01*
X171984657Y-65269916D01*
X171966934Y-65276917D01*
X171929381Y-65286927D01*
X171876964Y-65298769D01*
X171814652Y-65311267D01*
X171792900Y-65315310D01*
X171688024Y-65334520D01*
X171605180Y-65349991D01*
X171541630Y-65362337D01*
X171494637Y-65372173D01*
X171461463Y-65380114D01*
X171439371Y-65386776D01*
X171425624Y-65392773D01*
X171417484Y-65398719D01*
X171416345Y-65399894D01*
X171404977Y-65418826D01*
X171387635Y-65455669D01*
X171366050Y-65505913D01*
X171341954Y-65565046D01*
X171317079Y-65628556D01*
X171293157Y-65691932D01*
X171271919Y-65750662D01*
X171255097Y-65800235D01*
X171244422Y-65836139D01*
X171241627Y-65853862D01*
X171241860Y-65854483D01*
X171251331Y-65868970D01*
X171272818Y-65900844D01*
X171304063Y-65946789D01*
X171342807Y-66003485D01*
X171386793Y-66067617D01*
X171399319Y-66085842D01*
X171443984Y-66151914D01*
X171483288Y-66212200D01*
X171515088Y-66263235D01*
X171537245Y-66301560D01*
X171547617Y-66323711D01*
X171548119Y-66326432D01*
X171539405Y-66340736D01*
X171515325Y-66369072D01*
X171478976Y-66408396D01*
X171433453Y-66455661D01*
X171381852Y-66507823D01*
X171327267Y-66561835D01*
X171272794Y-66614653D01*
X171221529Y-66663231D01*
X171176567Y-66704523D01*
X171141004Y-66735485D01*
X171117935Y-66753070D01*
X171111554Y-66755941D01*
X171096699Y-66749178D01*
X171066286Y-66730939D01*
X171025268Y-66704297D01*
X170993709Y-66682852D01*
X170936525Y-66643503D01*
X170868806Y-66597171D01*
X170800880Y-66550913D01*
X170764361Y-66526155D01*
X170640752Y-66442547D01*
X170536991Y-66498650D01*
X170489720Y-66523228D01*
X170449523Y-66542331D01*
X170422326Y-66553227D01*
X170415402Y-66554743D01*
X170407077Y-66543549D01*
X170390654Y-66511917D01*
X170367357Y-66462765D01*
X170338414Y-66399010D01*
X170305050Y-66323571D01*
X170268491Y-66239364D01*
X170229964Y-66149308D01*
X170190694Y-66056321D01*
X170151908Y-65963320D01*
X170114830Y-65873223D01*
X170080689Y-65788948D01*
X170050708Y-65713413D01*
X170026116Y-65649534D01*
X170008136Y-65600231D01*
X169997997Y-65568421D01*
X169996366Y-65557496D01*
X170009291Y-65543561D01*
X170037589Y-65520940D01*
X170075346Y-65494333D01*
X170078515Y-65492228D01*
X170176100Y-65414114D01*
X170254786Y-65322982D01*
X170313891Y-65221745D01*
X170352732Y-65113318D01*
X170370628Y-65000614D01*
X170366897Y-64886548D01*
X170340857Y-64774034D01*
X170291825Y-64665985D01*
X170277400Y-64642345D01*
X170202369Y-64546887D01*
X170113730Y-64470232D01*
X170014549Y-64412780D01*
X169907895Y-64374929D01*
X169796836Y-64357078D01*
X169684439Y-64359625D01*
X169573773Y-64382970D01*
X169467906Y-64427510D01*
X169369905Y-64493645D01*
X169339590Y-64520487D01*
X169262438Y-64604512D01*
X169206218Y-64692966D01*
X169167653Y-64792115D01*
X169146174Y-64890303D01*
X169140872Y-65000697D01*
X169158552Y-65111640D01*
X169197419Y-65219381D01*
X169255677Y-65320169D01*
X169331531Y-65410256D01*
X169423183Y-65485892D01*
X169435228Y-65493864D01*
X169473389Y-65519974D01*
X169502399Y-65542595D01*
X169516268Y-65557039D01*
X169516469Y-65557496D01*
X169513492Y-65573121D01*
X169501689Y-65608582D01*
X169482286Y-65660962D01*
X169456512Y-65727345D01*
X169425591Y-65804814D01*
X169390751Y-65890450D01*
X169353217Y-65981337D01*
X169314217Y-66074559D01*
X169274977Y-66167197D01*
X169236724Y-66256335D01*
X169200683Y-66339055D01*
X169168083Y-66412441D01*
X169140148Y-66473575D01*
X169118105Y-66519541D01*
X169103182Y-66547421D01*
X169097172Y-66554743D01*
X169078809Y-66549041D01*
X169044448Y-66533749D01*
X169000016Y-66511599D01*
X168975583Y-66498650D01*
X168871822Y-66442547D01*
X168748213Y-66526155D01*
X168685114Y-66568987D01*
X168616030Y-66616122D01*
X168551293Y-66660503D01*
X168518866Y-66682852D01*
X168473259Y-66713477D01*
X168434640Y-66737747D01*
X168408048Y-66752587D01*
X168399410Y-66755724D01*
X168386839Y-66747261D01*
X168359016Y-66723636D01*
X168318639Y-66687302D01*
X168268405Y-66640711D01*
X168211012Y-66586317D01*
X168174714Y-66551392D01*
X168111210Y-66488996D01*
X168056327Y-66433188D01*
X168012286Y-66386354D01*
X167981305Y-66350882D01*
X167965602Y-66329161D01*
X167964095Y-66324752D01*
X167971086Y-66307985D01*
X167990406Y-66274082D01*
X168019909Y-66226476D01*
X168057455Y-66168599D01*
X168100900Y-66103884D01*
X168113255Y-66085842D01*
X168158273Y-66020267D01*
X168198660Y-65961228D01*
X168232160Y-65912042D01*
X168256514Y-65876028D01*
X168269464Y-65856502D01*
X168270715Y-65854483D01*
X168268844Y-65838922D01*
X168258913Y-65804709D01*
X168242653Y-65756355D01*
X168221795Y-65698371D01*
X168198073Y-65635270D01*
X168173216Y-65571563D01*
X168148958Y-65511761D01*
X168127029Y-65460376D01*
X168109162Y-65421919D01*
X168097087Y-65400902D01*
X168096229Y-65399894D01*
X168088846Y-65393888D01*
X168076375Y-65387948D01*
X168056080Y-65381460D01*
X168025222Y-65373809D01*
X167981066Y-65364380D01*
X167920874Y-65352559D01*
X167841907Y-65337729D01*
X167741430Y-65319277D01*
X167719675Y-65315310D01*
X167655198Y-65302853D01*
X167598989Y-65290666D01*
X167556013Y-65279926D01*
X167531240Y-65271809D01*
X167527918Y-65269916D01*
X167522444Y-65253138D01*
X167517994Y-65215645D01*
X167514572Y-65161794D01*
X167512181Y-65095944D01*
X167510823Y-65022453D01*
X167510501Y-64945680D01*
X167511219Y-64869983D01*
X167512979Y-64799720D01*
X167515784Y-64739250D01*
X167519638Y-64692930D01*
X167524543Y-64665119D01*
X167527500Y-64659427D01*
X167543963Y-64653686D01*
X167581449Y-64644345D01*
X167636225Y-64632215D01*
X167704555Y-64618107D01*
X167782706Y-64602830D01*
X167825284Y-64594823D01*
X167906071Y-64579721D01*
X167978113Y-64566040D01*
X168037889Y-64554467D01*
X168081879Y-64545687D01*
X168106561Y-64540387D01*
X168110623Y-64539212D01*
X168117489Y-64525965D01*
X168132002Y-64494057D01*
X168152229Y-64448047D01*
X168176234Y-64392492D01*
X168202082Y-64331953D01*
X168227840Y-64270986D01*
X168251573Y-64214151D01*
X168271346Y-64166006D01*
X168285224Y-64131110D01*
X168291274Y-64114021D01*
X168291386Y-64113274D01*
X168284528Y-64099793D01*
X168265302Y-64068770D01*
X168235728Y-64023289D01*
X168197827Y-63966432D01*
X168153620Y-63901283D01*
X168127921Y-63863862D01*
X168081093Y-63795247D01*
X168039501Y-63732952D01*
X168005175Y-63680129D01*
X167980143Y-63639927D01*
X167966435Y-63615500D01*
X167964456Y-63610024D01*
X167972966Y-63597278D01*
X167996493Y-63570063D01*
X168032032Y-63531428D01*
X168076577Y-63484423D01*
X168127123Y-63432095D01*
X168180664Y-63377495D01*
X168234195Y-63323670D01*
X168284711Y-63273670D01*
X168329206Y-63230543D01*
X168364675Y-63197339D01*
X168388113Y-63177106D01*
X168395954Y-63172278D01*
X168408720Y-63179067D01*
X168439256Y-63198142D01*
X168484590Y-63227561D01*
X168541756Y-63265381D01*
X168607784Y-63309661D01*
X168657590Y-63343395D01*
X168909236Y-63514512D01*
X169118999Y-63428041D01*
X169328763Y-63341570D01*
X169385611Y-63040018D01*
X169442460Y-62738466D01*
X170070115Y-62738466D01*
X170126964Y-63040018D01*
X170126964Y-63040018D01*
G37*
X170126964Y-63040018D02*
X170183812Y-63341570D01*
X170603338Y-63514512D01*
X170854984Y-63343395D01*
X170925458Y-63295750D01*
X170989163Y-63253210D01*
X171043126Y-63217715D01*
X171084373Y-63191210D01*
X171109934Y-63175636D01*
X171116895Y-63172278D01*
X171129435Y-63180914D01*
X171156231Y-63204792D01*
X171194280Y-63240859D01*
X171240579Y-63286067D01*
X171292123Y-63337364D01*
X171345909Y-63391701D01*
X171398935Y-63446028D01*
X171448195Y-63497295D01*
X171490687Y-63542451D01*
X171523407Y-63578446D01*
X171543351Y-63602230D01*
X171548119Y-63610190D01*
X171541257Y-63624865D01*
X171522020Y-63657014D01*
X171492430Y-63703492D01*
X171454510Y-63761156D01*
X171410282Y-63826860D01*
X171384654Y-63864336D01*
X171337941Y-63932768D01*
X171296432Y-63994520D01*
X171262140Y-64046519D01*
X171237080Y-64085692D01*
X171223264Y-64108965D01*
X171221188Y-64113855D01*
X171225895Y-64127755D01*
X171238723Y-64160150D01*
X171257738Y-64206485D01*
X171281003Y-64262206D01*
X171306584Y-64322758D01*
X171332545Y-64383586D01*
X171356950Y-64440136D01*
X171377863Y-64487852D01*
X171393349Y-64522181D01*
X171401472Y-64538568D01*
X171401952Y-64539212D01*
X171414707Y-64542341D01*
X171448677Y-64549321D01*
X171500340Y-64559467D01*
X171566176Y-64572092D01*
X171642664Y-64586509D01*
X171687290Y-64594823D01*
X171769021Y-64610384D01*
X171842843Y-64625192D01*
X171905021Y-64638436D01*
X171951822Y-64649305D01*
X171979509Y-64656989D01*
X171985074Y-64659427D01*
X171990526Y-64675930D01*
X171994924Y-64713200D01*
X171998272Y-64766880D01*
X172000574Y-64832612D01*
X172001832Y-64906037D01*
X172002048Y-64982796D01*
X172001227Y-65058532D01*
X171999371Y-65128886D01*
X171996482Y-65189500D01*
X171992565Y-65236016D01*
X171987622Y-65264075D01*
X171984657Y-65269916D01*
X171966934Y-65276917D01*
X171929381Y-65286927D01*
X171876964Y-65298769D01*
X171814652Y-65311267D01*
X171792900Y-65315310D01*
X171688024Y-65334520D01*
X171605180Y-65349991D01*
X171541630Y-65362337D01*
X171494637Y-65372173D01*
X171461463Y-65380114D01*
X171439371Y-65386776D01*
X171425624Y-65392773D01*
X171417484Y-65398719D01*
X171416345Y-65399894D01*
X171404977Y-65418826D01*
X171387635Y-65455669D01*
X171366050Y-65505913D01*
X171341954Y-65565046D01*
X171317079Y-65628556D01*
X171293157Y-65691932D01*
X171271919Y-65750662D01*
X171255097Y-65800235D01*
X171244422Y-65836139D01*
X171241627Y-65853862D01*
X171241860Y-65854483D01*
X171251331Y-65868970D01*
X171272818Y-65900844D01*
X171304063Y-65946789D01*
X171342807Y-66003485D01*
X171386793Y-66067617D01*
X171399319Y-66085842D01*
X171443984Y-66151914D01*
X171483288Y-66212200D01*
X171515088Y-66263235D01*
X171537245Y-66301560D01*
X171547617Y-66323711D01*
X171548119Y-66326432D01*
X171539405Y-66340736D01*
X171515325Y-66369072D01*
X171478976Y-66408396D01*
X171433453Y-66455661D01*
X171381852Y-66507823D01*
X171327267Y-66561835D01*
X171272794Y-66614653D01*
X171221529Y-66663231D01*
X171176567Y-66704523D01*
X171141004Y-66735485D01*
X171117935Y-66753070D01*
X171111554Y-66755941D01*
X171096699Y-66749178D01*
X171066286Y-66730939D01*
X171025268Y-66704297D01*
X170993709Y-66682852D01*
X170936525Y-66643503D01*
X170868806Y-66597171D01*
X170800880Y-66550913D01*
X170764361Y-66526155D01*
X170640752Y-66442547D01*
X170536991Y-66498650D01*
X170489720Y-66523228D01*
X170449523Y-66542331D01*
X170422326Y-66553227D01*
X170415402Y-66554743D01*
X170407077Y-66543549D01*
X170390654Y-66511917D01*
X170367357Y-66462765D01*
X170338414Y-66399010D01*
X170305050Y-66323571D01*
X170268491Y-66239364D01*
X170229964Y-66149308D01*
X170190694Y-66056321D01*
X170151908Y-65963320D01*
X170114830Y-65873223D01*
X170080689Y-65788948D01*
X170050708Y-65713413D01*
X170026116Y-65649534D01*
X170008136Y-65600231D01*
X169997997Y-65568421D01*
X169996366Y-65557496D01*
X170009291Y-65543561D01*
X170037589Y-65520940D01*
X170075346Y-65494333D01*
X170078515Y-65492228D01*
X170176100Y-65414114D01*
X170254786Y-65322982D01*
X170313891Y-65221745D01*
X170352732Y-65113318D01*
X170370628Y-65000614D01*
X170366897Y-64886548D01*
X170340857Y-64774034D01*
X170291825Y-64665985D01*
X170277400Y-64642345D01*
X170202369Y-64546887D01*
X170113730Y-64470232D01*
X170014549Y-64412780D01*
X169907895Y-64374929D01*
X169796836Y-64357078D01*
X169684439Y-64359625D01*
X169573773Y-64382970D01*
X169467906Y-64427510D01*
X169369905Y-64493645D01*
X169339590Y-64520487D01*
X169262438Y-64604512D01*
X169206218Y-64692966D01*
X169167653Y-64792115D01*
X169146174Y-64890303D01*
X169140872Y-65000697D01*
X169158552Y-65111640D01*
X169197419Y-65219381D01*
X169255677Y-65320169D01*
X169331531Y-65410256D01*
X169423183Y-65485892D01*
X169435228Y-65493864D01*
X169473389Y-65519974D01*
X169502399Y-65542595D01*
X169516268Y-65557039D01*
X169516469Y-65557496D01*
X169513492Y-65573121D01*
X169501689Y-65608582D01*
X169482286Y-65660962D01*
X169456512Y-65727345D01*
X169425591Y-65804814D01*
X169390751Y-65890450D01*
X169353217Y-65981337D01*
X169314217Y-66074559D01*
X169274977Y-66167197D01*
X169236724Y-66256335D01*
X169200683Y-66339055D01*
X169168083Y-66412441D01*
X169140148Y-66473575D01*
X169118105Y-66519541D01*
X169103182Y-66547421D01*
X169097172Y-66554743D01*
X169078809Y-66549041D01*
X169044448Y-66533749D01*
X169000016Y-66511599D01*
X168975583Y-66498650D01*
X168871822Y-66442547D01*
X168748213Y-66526155D01*
X168685114Y-66568987D01*
X168616030Y-66616122D01*
X168551293Y-66660503D01*
X168518866Y-66682852D01*
X168473259Y-66713477D01*
X168434640Y-66737747D01*
X168408048Y-66752587D01*
X168399410Y-66755724D01*
X168386839Y-66747261D01*
X168359016Y-66723636D01*
X168318639Y-66687302D01*
X168268405Y-66640711D01*
X168211012Y-66586317D01*
X168174714Y-66551392D01*
X168111210Y-66488996D01*
X168056327Y-66433188D01*
X168012286Y-66386354D01*
X167981305Y-66350882D01*
X167965602Y-66329161D01*
X167964095Y-66324752D01*
X167971086Y-66307985D01*
X167990406Y-66274082D01*
X168019909Y-66226476D01*
X168057455Y-66168599D01*
X168100900Y-66103884D01*
X168113255Y-66085842D01*
X168158273Y-66020267D01*
X168198660Y-65961228D01*
X168232160Y-65912042D01*
X168256514Y-65876028D01*
X168269464Y-65856502D01*
X168270715Y-65854483D01*
X168268844Y-65838922D01*
X168258913Y-65804709D01*
X168242653Y-65756355D01*
X168221795Y-65698371D01*
X168198073Y-65635270D01*
X168173216Y-65571563D01*
X168148958Y-65511761D01*
X168127029Y-65460376D01*
X168109162Y-65421919D01*
X168097087Y-65400902D01*
X168096229Y-65399894D01*
X168088846Y-65393888D01*
X168076375Y-65387948D01*
X168056080Y-65381460D01*
X168025222Y-65373809D01*
X167981066Y-65364380D01*
X167920874Y-65352559D01*
X167841907Y-65337729D01*
X167741430Y-65319277D01*
X167719675Y-65315310D01*
X167655198Y-65302853D01*
X167598989Y-65290666D01*
X167556013Y-65279926D01*
X167531240Y-65271809D01*
X167527918Y-65269916D01*
X167522444Y-65253138D01*
X167517994Y-65215645D01*
X167514572Y-65161794D01*
X167512181Y-65095944D01*
X167510823Y-65022453D01*
X167510501Y-64945680D01*
X167511219Y-64869983D01*
X167512979Y-64799720D01*
X167515784Y-64739250D01*
X167519638Y-64692930D01*
X167524543Y-64665119D01*
X167527500Y-64659427D01*
X167543963Y-64653686D01*
X167581449Y-64644345D01*
X167636225Y-64632215D01*
X167704555Y-64618107D01*
X167782706Y-64602830D01*
X167825284Y-64594823D01*
X167906071Y-64579721D01*
X167978113Y-64566040D01*
X168037889Y-64554467D01*
X168081879Y-64545687D01*
X168106561Y-64540387D01*
X168110623Y-64539212D01*
X168117489Y-64525965D01*
X168132002Y-64494057D01*
X168152229Y-64448047D01*
X168176234Y-64392492D01*
X168202082Y-64331953D01*
X168227840Y-64270986D01*
X168251573Y-64214151D01*
X168271346Y-64166006D01*
X168285224Y-64131110D01*
X168291274Y-64114021D01*
X168291386Y-64113274D01*
X168284528Y-64099793D01*
X168265302Y-64068770D01*
X168235728Y-64023289D01*
X168197827Y-63966432D01*
X168153620Y-63901283D01*
X168127921Y-63863862D01*
X168081093Y-63795247D01*
X168039501Y-63732952D01*
X168005175Y-63680129D01*
X167980143Y-63639927D01*
X167966435Y-63615500D01*
X167964456Y-63610024D01*
X167972966Y-63597278D01*
X167996493Y-63570063D01*
X168032032Y-63531428D01*
X168076577Y-63484423D01*
X168127123Y-63432095D01*
X168180664Y-63377495D01*
X168234195Y-63323670D01*
X168284711Y-63273670D01*
X168329206Y-63230543D01*
X168364675Y-63197339D01*
X168388113Y-63177106D01*
X168395954Y-63172278D01*
X168408720Y-63179067D01*
X168439256Y-63198142D01*
X168484590Y-63227561D01*
X168541756Y-63265381D01*
X168607784Y-63309661D01*
X168657590Y-63343395D01*
X168909236Y-63514512D01*
X169118999Y-63428041D01*
X169328763Y-63341570D01*
X169385611Y-63040018D01*
X169442460Y-62738466D01*
X170070115Y-62738466D01*
X170126964Y-63040018D01*
G36*
X171549460Y-67208030D02*
X171592711Y-67221245D01*
X171620558Y-67237941D01*
X171629629Y-67251145D01*
X171627132Y-67266797D01*
X171610931Y-67291385D01*
X171597232Y-67308800D01*
X171568992Y-67340283D01*
X171547775Y-67353529D01*
X171529688Y-67352664D01*
X171476035Y-67339010D01*
X171436630Y-67339630D01*
X171404632Y-67355104D01*
X171393890Y-67364161D01*
X171359505Y-67396027D01*
X171359505Y-67812179D01*
X171221188Y-67812179D01*
X171221188Y-67208614D01*
X171290347Y-67208614D01*
X171331869Y-67210256D01*
X171353291Y-67216087D01*
X171359502Y-67227461D01*
X171359505Y-67227798D01*
X171362439Y-67239713D01*
X171375704Y-67238159D01*
X171394084Y-67229563D01*
X171432046Y-67213568D01*
X171462872Y-67203945D01*
X171502536Y-67201478D01*
X171549460Y-67208030D01*
X171549460Y-67208030D01*
G37*
X171549460Y-67208030D02*
X171592711Y-67221245D01*
X171620558Y-67237941D01*
X171629629Y-67251145D01*
X171627132Y-67266797D01*
X171610931Y-67291385D01*
X171597232Y-67308800D01*
X171568992Y-67340283D01*
X171547775Y-67353529D01*
X171529688Y-67352664D01*
X171476035Y-67339010D01*
X171436630Y-67339630D01*
X171404632Y-67355104D01*
X171393890Y-67364161D01*
X171359505Y-67396027D01*
X171359505Y-67812179D01*
X171221188Y-67812179D01*
X171221188Y-67208614D01*
X171290347Y-67208614D01*
X171331869Y-67210256D01*
X171353291Y-67216087D01*
X171359502Y-67227461D01*
X171359505Y-67227798D01*
X171362439Y-67239713D01*
X171375704Y-67238159D01*
X171394084Y-67229563D01*
X171432046Y-67213568D01*
X171462872Y-67203945D01*
X171502536Y-67201478D01*
X171549460Y-67208030D01*
G36*
X168995988Y-67219002D02*
X169027283Y-67233950D01*
X169057591Y-67255541D01*
X169080682Y-67280391D01*
X169097500Y-67312087D01*
X169108994Y-67354214D01*
X169116109Y-67410358D01*
X169119793Y-67484106D01*
X169120992Y-67579044D01*
X169121011Y-67588985D01*
X169121287Y-67812179D01*
X168982970Y-67812179D01*
X168982970Y-67606418D01*
X168982872Y-67530189D01*
X168982191Y-67474939D01*
X168980349Y-67436501D01*
X168976767Y-67410706D01*
X168970868Y-67393384D01*
X168962073Y-67380368D01*
X168949820Y-67367507D01*
X168906953Y-67339873D01*
X168860157Y-67334745D01*
X168815576Y-67352217D01*
X168800072Y-67365221D01*
X168788690Y-67377447D01*
X168780519Y-67390540D01*
X168775026Y-67408615D01*
X168771680Y-67435787D01*
X168769949Y-67476170D01*
X168769303Y-67533879D01*
X168769208Y-67604132D01*
X168769208Y-67812179D01*
X168630891Y-67812179D01*
X168630891Y-67208614D01*
X168700050Y-67208614D01*
X168741572Y-67210256D01*
X168762994Y-67216087D01*
X168769205Y-67227461D01*
X168769208Y-67227798D01*
X168772090Y-67238938D01*
X168784801Y-67237674D01*
X168810074Y-67225434D01*
X168867395Y-67207424D01*
X168932963Y-67205421D01*
X168995988Y-67219002D01*
X168995988Y-67219002D01*
G37*
X168995988Y-67219002D02*
X169027283Y-67233950D01*
X169057591Y-67255541D01*
X169080682Y-67280391D01*
X169097500Y-67312087D01*
X169108994Y-67354214D01*
X169116109Y-67410358D01*
X169119793Y-67484106D01*
X169120992Y-67579044D01*
X169121011Y-67588985D01*
X169121287Y-67812179D01*
X168982970Y-67812179D01*
X168982970Y-67606418D01*
X168982872Y-67530189D01*
X168982191Y-67474939D01*
X168980349Y-67436501D01*
X168976767Y-67410706D01*
X168970868Y-67393384D01*
X168962073Y-67380368D01*
X168949820Y-67367507D01*
X168906953Y-67339873D01*
X168860157Y-67334745D01*
X168815576Y-67352217D01*
X168800072Y-67365221D01*
X168788690Y-67377447D01*
X168780519Y-67390540D01*
X168775026Y-67408615D01*
X168771680Y-67435787D01*
X168769949Y-67476170D01*
X168769303Y-67533879D01*
X168769208Y-67604132D01*
X168769208Y-67812179D01*
X168630891Y-67812179D01*
X168630891Y-67208614D01*
X168700050Y-67208614D01*
X168741572Y-67210256D01*
X168762994Y-67216087D01*
X168769205Y-67227461D01*
X168769208Y-67227798D01*
X168772090Y-67238938D01*
X168784801Y-67237674D01*
X168810074Y-67225434D01*
X168867395Y-67207424D01*
X168932963Y-67205421D01*
X168995988Y-67219002D01*
G36*
X172427898Y-67206457D02*
X172460096Y-67214279D01*
X172521825Y-67242921D01*
X172574610Y-67286667D01*
X172611141Y-67339117D01*
X172616160Y-67350893D01*
X172623045Y-67381740D01*
X172627864Y-67427371D01*
X172629505Y-67473492D01*
X172629505Y-67560693D01*
X172447178Y-67560693D01*
X172371979Y-67560978D01*
X172319003Y-67562704D01*
X172285325Y-67567181D01*
X172268020Y-67575720D01*
X172264163Y-67589630D01*
X172270829Y-67610222D01*
X172282770Y-67634315D01*
X172316080Y-67674525D01*
X172362368Y-67694558D01*
X172418944Y-67693905D01*
X172483031Y-67672101D01*
X172538417Y-67645193D01*
X172584375Y-67681532D01*
X172630333Y-67717872D01*
X172587096Y-67757819D01*
X172529374Y-67795563D01*
X172458386Y-67818320D01*
X172382029Y-67824688D01*
X172308199Y-67813268D01*
X172296287Y-67809393D01*
X172231399Y-67775506D01*
X172183130Y-67724986D01*
X172150465Y-67656325D01*
X172132385Y-67568014D01*
X172132175Y-67566121D01*
X172130556Y-67469878D01*
X172137100Y-67435542D01*
X172264852Y-67435542D01*
X172276584Y-67440822D01*
X172308438Y-67444867D01*
X172355397Y-67447176D01*
X172385154Y-67447525D01*
X172440648Y-67447306D01*
X172475346Y-67445916D01*
X172493601Y-67442251D01*
X172499766Y-67435210D01*
X172498195Y-67423690D01*
X172496878Y-67419233D01*
X172474382Y-67377355D01*
X172439003Y-67343604D01*
X172407780Y-67328773D01*
X172366301Y-67329668D01*
X172324269Y-67348164D01*
X172289012Y-67378786D01*
X172267854Y-67416062D01*
X172264852Y-67435542D01*
X172137100Y-67435542D01*
X172146690Y-67385229D01*
X172178698Y-67314191D01*
X172224701Y-67258779D01*
X172282821Y-67221009D01*
X172351180Y-67202896D01*
X172427898Y-67206457D01*
X172427898Y-67206457D01*
G37*
X172427898Y-67206457D02*
X172460096Y-67214279D01*
X172521825Y-67242921D01*
X172574610Y-67286667D01*
X172611141Y-67339117D01*
X172616160Y-67350893D01*
X172623045Y-67381740D01*
X172627864Y-67427371D01*
X172629505Y-67473492D01*
X172629505Y-67560693D01*
X172447178Y-67560693D01*
X172371979Y-67560978D01*
X172319003Y-67562704D01*
X172285325Y-67567181D01*
X172268020Y-67575720D01*
X172264163Y-67589630D01*
X172270829Y-67610222D01*
X172282770Y-67634315D01*
X172316080Y-67674525D01*
X172362368Y-67694558D01*
X172418944Y-67693905D01*
X172483031Y-67672101D01*
X172538417Y-67645193D01*
X172584375Y-67681532D01*
X172630333Y-67717872D01*
X172587096Y-67757819D01*
X172529374Y-67795563D01*
X172458386Y-67818320D01*
X172382029Y-67824688D01*
X172308199Y-67813268D01*
X172296287Y-67809393D01*
X172231399Y-67775506D01*
X172183130Y-67724986D01*
X172150465Y-67656325D01*
X172132385Y-67568014D01*
X172132175Y-67566121D01*
X172130556Y-67469878D01*
X172137100Y-67435542D01*
X172264852Y-67435542D01*
X172276584Y-67440822D01*
X172308438Y-67444867D01*
X172355397Y-67447176D01*
X172385154Y-67447525D01*
X172440648Y-67447306D01*
X172475346Y-67445916D01*
X172493601Y-67442251D01*
X172499766Y-67435210D01*
X172498195Y-67423690D01*
X172496878Y-67419233D01*
X172474382Y-67377355D01*
X172439003Y-67343604D01*
X172407780Y-67328773D01*
X172366301Y-67329668D01*
X172324269Y-67348164D01*
X172289012Y-67378786D01*
X172267854Y-67416062D01*
X172264852Y-67435542D01*
X172137100Y-67435542D01*
X172146690Y-67385229D01*
X172178698Y-67314191D01*
X172224701Y-67258779D01*
X172282821Y-67221009D01*
X172351180Y-67202896D01*
X172427898Y-67206457D01*
G36*
X171967226Y-67213880D02*
X172040080Y-67244830D01*
X172063027Y-67259895D01*
X172092354Y-67283048D01*
X172110764Y-67301253D01*
X172113961Y-67307183D01*
X172104935Y-67320340D01*
X172081837Y-67342667D01*
X172063344Y-67358250D01*
X172012728Y-67398926D01*
X171972760Y-67365295D01*
X171941874Y-67343584D01*
X171911759Y-67336090D01*
X171877292Y-67337920D01*
X171822561Y-67351528D01*
X171784886Y-67379772D01*
X171761991Y-67425433D01*
X171751597Y-67491289D01*
X171751595Y-67491331D01*
X171752494Y-67564939D01*
X171766463Y-67618946D01*
X171794328Y-67655716D01*
X171813325Y-67668168D01*
X171863776Y-67683673D01*
X171917663Y-67683683D01*
X171964546Y-67668638D01*
X171975644Y-67661287D01*
X172003476Y-67642511D01*
X172025236Y-67639434D01*
X172048704Y-67653409D01*
X172074649Y-67678510D01*
X172115716Y-67720880D01*
X172070121Y-67758464D01*
X171999674Y-67800882D01*
X171920233Y-67821785D01*
X171837215Y-67820272D01*
X171782694Y-67806411D01*
X171718970Y-67772135D01*
X171668005Y-67718212D01*
X171644851Y-67680149D01*
X171626099Y-67625536D01*
X171616715Y-67556369D01*
X171616643Y-67481407D01*
X171625824Y-67409409D01*
X171644199Y-67349137D01*
X171647093Y-67342958D01*
X171689952Y-67282351D01*
X171747979Y-67238224D01*
X171816591Y-67211493D01*
X171891201Y-67203073D01*
X171967226Y-67213880D01*
X171967226Y-67213880D01*
G37*
X171967226Y-67213880D02*
X172040080Y-67244830D01*
X172063027Y-67259895D01*
X172092354Y-67283048D01*
X172110764Y-67301253D01*
X172113961Y-67307183D01*
X172104935Y-67320340D01*
X172081837Y-67342667D01*
X172063344Y-67358250D01*
X172012728Y-67398926D01*
X171972760Y-67365295D01*
X171941874Y-67343584D01*
X171911759Y-67336090D01*
X171877292Y-67337920D01*
X171822561Y-67351528D01*
X171784886Y-67379772D01*
X171761991Y-67425433D01*
X171751597Y-67491289D01*
X171751595Y-67491331D01*
X171752494Y-67564939D01*
X171766463Y-67618946D01*
X171794328Y-67655716D01*
X171813325Y-67668168D01*
X171863776Y-67683673D01*
X171917663Y-67683683D01*
X171964546Y-67668638D01*
X171975644Y-67661287D01*
X172003476Y-67642511D01*
X172025236Y-67639434D01*
X172048704Y-67653409D01*
X172074649Y-67678510D01*
X172115716Y-67720880D01*
X172070121Y-67758464D01*
X171999674Y-67800882D01*
X171920233Y-67821785D01*
X171837215Y-67820272D01*
X171782694Y-67806411D01*
X171718970Y-67772135D01*
X171668005Y-67718212D01*
X171644851Y-67680149D01*
X171626099Y-67625536D01*
X171616715Y-67556369D01*
X171616643Y-67481407D01*
X171625824Y-67409409D01*
X171644199Y-67349137D01*
X171647093Y-67342958D01*
X171689952Y-67282351D01*
X171747979Y-67238224D01*
X171816591Y-67211493D01*
X171891201Y-67203073D01*
X171967226Y-67213880D01*
G36*
X170743367Y-67404342D02*
X170744555Y-67496563D01*
X170748897Y-67566610D01*
X170757558Y-67617381D01*
X170771704Y-67651772D01*
X170792500Y-67672679D01*
X170821110Y-67683000D01*
X170856535Y-67685636D01*
X170893636Y-67682682D01*
X170921818Y-67671889D01*
X170942243Y-67650360D01*
X170956079Y-67615199D01*
X170964491Y-67563510D01*
X170968643Y-67492394D01*
X170969703Y-67404342D01*
X170969703Y-67208614D01*
X171108020Y-67208614D01*
X171108020Y-67812179D01*
X171038862Y-67812179D01*
X170997170Y-67810489D01*
X170975701Y-67804556D01*
X170969703Y-67793293D01*
X170966091Y-67783261D01*
X170951714Y-67785383D01*
X170922736Y-67799580D01*
X170856319Y-67821480D01*
X170785875Y-67819928D01*
X170718377Y-67796147D01*
X170686233Y-67777362D01*
X170661715Y-67757022D01*
X170643804Y-67731573D01*
X170631479Y-67697458D01*
X170623723Y-67651121D01*
X170619516Y-67589007D01*
X170617840Y-67507561D01*
X170617624Y-67444578D01*
X170617624Y-67208614D01*
X170743367Y-67208614D01*
X170743367Y-67404342D01*
X170743367Y-67404342D01*
G37*
X170743367Y-67404342D02*
X170744555Y-67496563D01*
X170748897Y-67566610D01*
X170757558Y-67617381D01*
X170771704Y-67651772D01*
X170792500Y-67672679D01*
X170821110Y-67683000D01*
X170856535Y-67685636D01*
X170893636Y-67682682D01*
X170921818Y-67671889D01*
X170942243Y-67650360D01*
X170956079Y-67615199D01*
X170964491Y-67563510D01*
X170968643Y-67492394D01*
X170969703Y-67404342D01*
X170969703Y-67208614D01*
X171108020Y-67208614D01*
X171108020Y-67812179D01*
X171038862Y-67812179D01*
X170997170Y-67810489D01*
X170975701Y-67804556D01*
X170969703Y-67793293D01*
X170966091Y-67783261D01*
X170951714Y-67785383D01*
X170922736Y-67799580D01*
X170856319Y-67821480D01*
X170785875Y-67819928D01*
X170718377Y-67796147D01*
X170686233Y-67777362D01*
X170661715Y-67757022D01*
X170643804Y-67731573D01*
X170631479Y-67697458D01*
X170623723Y-67651121D01*
X170619516Y-67589007D01*
X170617840Y-67507561D01*
X170617624Y-67444578D01*
X170617624Y-67208614D01*
X170743367Y-67208614D01*
X170743367Y-67404342D01*
G36*
X170360762Y-67216055D02*
X170424363Y-67250692D01*
X170474123Y-67305372D01*
X170497568Y-67349842D01*
X170507634Y-67389121D01*
X170514156Y-67445116D01*
X170516951Y-67509621D01*
X170515836Y-67574429D01*
X170510626Y-67631334D01*
X170504541Y-67661727D01*
X170484014Y-67703306D01*
X170448463Y-67747468D01*
X170405619Y-67786087D01*
X170363211Y-67811034D01*
X170362177Y-67811430D01*
X170309553Y-67822331D01*
X170247188Y-67822601D01*
X170187924Y-67812676D01*
X170165040Y-67804722D01*
X170106102Y-67771300D01*
X170063890Y-67727511D01*
X170036156Y-67669538D01*
X170020651Y-67593565D01*
X170017143Y-67553771D01*
X170017590Y-67503766D01*
X170152376Y-67503766D01*
X170156917Y-67576732D01*
X170169986Y-67632334D01*
X170190756Y-67667861D01*
X170205552Y-67678020D01*
X170243464Y-67685104D01*
X170288527Y-67683007D01*
X170327487Y-67672812D01*
X170337704Y-67667204D01*
X170364659Y-67634538D01*
X170382451Y-67584545D01*
X170390024Y-67523705D01*
X170386325Y-67458497D01*
X170378057Y-67419253D01*
X170354320Y-67373805D01*
X170316849Y-67345396D01*
X170271720Y-67335573D01*
X170225011Y-67345887D01*
X170189132Y-67371112D01*
X170170277Y-67391925D01*
X170159272Y-67412439D01*
X170154026Y-67440203D01*
X170152449Y-67482762D01*
X170152376Y-67503766D01*
X170017590Y-67503766D01*
X170018094Y-67447580D01*
X170035388Y-67360501D01*
X170069029Y-67292530D01*
X170119018Y-67243664D01*
X170185356Y-67213899D01*
X170199601Y-67210448D01*
X170285210Y-67202345D01*
X170360762Y-67216055D01*
X170360762Y-67216055D01*
G37*
X170360762Y-67216055D02*
X170424363Y-67250692D01*
X170474123Y-67305372D01*
X170497568Y-67349842D01*
X170507634Y-67389121D01*
X170514156Y-67445116D01*
X170516951Y-67509621D01*
X170515836Y-67574429D01*
X170510626Y-67631334D01*
X170504541Y-67661727D01*
X170484014Y-67703306D01*
X170448463Y-67747468D01*
X170405619Y-67786087D01*
X170363211Y-67811034D01*
X170362177Y-67811430D01*
X170309553Y-67822331D01*
X170247188Y-67822601D01*
X170187924Y-67812676D01*
X170165040Y-67804722D01*
X170106102Y-67771300D01*
X170063890Y-67727511D01*
X170036156Y-67669538D01*
X170020651Y-67593565D01*
X170017143Y-67553771D01*
X170017590Y-67503766D01*
X170152376Y-67503766D01*
X170156917Y-67576732D01*
X170169986Y-67632334D01*
X170190756Y-67667861D01*
X170205552Y-67678020D01*
X170243464Y-67685104D01*
X170288527Y-67683007D01*
X170327487Y-67672812D01*
X170337704Y-67667204D01*
X170364659Y-67634538D01*
X170382451Y-67584545D01*
X170390024Y-67523705D01*
X170386325Y-67458497D01*
X170378057Y-67419253D01*
X170354320Y-67373805D01*
X170316849Y-67345396D01*
X170271720Y-67335573D01*
X170225011Y-67345887D01*
X170189132Y-67371112D01*
X170170277Y-67391925D01*
X170159272Y-67412439D01*
X170154026Y-67440203D01*
X170152449Y-67482762D01*
X170152376Y-67503766D01*
X170017590Y-67503766D01*
X170018094Y-67447580D01*
X170035388Y-67360501D01*
X170069029Y-67292530D01*
X170119018Y-67243664D01*
X170185356Y-67213899D01*
X170199601Y-67210448D01*
X170285210Y-67202345D01*
X170360762Y-67216055D01*
G36*
X169764017Y-67206452D02*
X169811634Y-67215482D01*
X169861034Y-67234370D01*
X169866312Y-67236777D01*
X169903774Y-67256476D01*
X169929717Y-67274781D01*
X169938103Y-67286508D01*
X169930117Y-67305632D01*
X169910720Y-67333850D01*
X169902110Y-67344384D01*
X169866628Y-67385847D01*
X169820885Y-67358858D01*
X169777350Y-67340878D01*
X169727050Y-67331267D01*
X169678812Y-67330660D01*
X169641467Y-67339691D01*
X169632505Y-67345327D01*
X169615437Y-67371171D01*
X169613363Y-67400941D01*
X169626134Y-67424197D01*
X169633688Y-67428708D01*
X169656325Y-67434309D01*
X169696115Y-67440892D01*
X169745166Y-67447183D01*
X169754215Y-67448170D01*
X169832996Y-67461798D01*
X169890136Y-67484946D01*
X169928030Y-67519752D01*
X169949079Y-67568354D01*
X169955635Y-67627718D01*
X169946577Y-67695198D01*
X169917164Y-67748188D01*
X169867278Y-67786783D01*
X169796800Y-67811081D01*
X169718565Y-67820667D01*
X169654766Y-67820552D01*
X169603016Y-67811845D01*
X169567673Y-67799825D01*
X169523017Y-67778880D01*
X169481747Y-67754574D01*
X169467079Y-67743876D01*
X169429357Y-67713084D01*
X169474852Y-67667049D01*
X169520347Y-67621013D01*
X169572072Y-67655243D01*
X169623952Y-67680952D01*
X169679351Y-67694399D01*
X169732605Y-67695818D01*
X169778049Y-67685443D01*
X169810016Y-67663507D01*
X169820338Y-67644998D01*
X169818789Y-67615314D01*
X169793140Y-67592615D01*
X169743460Y-67576940D01*
X169689031Y-67569695D01*
X169605264Y-67555873D01*
X169543033Y-67529796D01*
X169501507Y-67490699D01*
X169479853Y-67437820D01*
X169476853Y-67375126D01*
X169491671Y-67309642D01*
X169525454Y-67260144D01*
X169578505Y-67226408D01*
X169651126Y-67208207D01*
X169704928Y-67204639D01*
X169764017Y-67206452D01*
X169764017Y-67206452D01*
G37*
X169764017Y-67206452D02*
X169811634Y-67215482D01*
X169861034Y-67234370D01*
X169866312Y-67236777D01*
X169903774Y-67256476D01*
X169929717Y-67274781D01*
X169938103Y-67286508D01*
X169930117Y-67305632D01*
X169910720Y-67333850D01*
X169902110Y-67344384D01*
X169866628Y-67385847D01*
X169820885Y-67358858D01*
X169777350Y-67340878D01*
X169727050Y-67331267D01*
X169678812Y-67330660D01*
X169641467Y-67339691D01*
X169632505Y-67345327D01*
X169615437Y-67371171D01*
X169613363Y-67400941D01*
X169626134Y-67424197D01*
X169633688Y-67428708D01*
X169656325Y-67434309D01*
X169696115Y-67440892D01*
X169745166Y-67447183D01*
X169754215Y-67448170D01*
X169832996Y-67461798D01*
X169890136Y-67484946D01*
X169928030Y-67519752D01*
X169949079Y-67568354D01*
X169955635Y-67627718D01*
X169946577Y-67695198D01*
X169917164Y-67748188D01*
X169867278Y-67786783D01*
X169796800Y-67811081D01*
X169718565Y-67820667D01*
X169654766Y-67820552D01*
X169603016Y-67811845D01*
X169567673Y-67799825D01*
X169523017Y-67778880D01*
X169481747Y-67754574D01*
X169467079Y-67743876D01*
X169429357Y-67713084D01*
X169474852Y-67667049D01*
X169520347Y-67621013D01*
X169572072Y-67655243D01*
X169623952Y-67680952D01*
X169679351Y-67694399D01*
X169732605Y-67695818D01*
X169778049Y-67685443D01*
X169810016Y-67663507D01*
X169820338Y-67644998D01*
X169818789Y-67615314D01*
X169793140Y-67592615D01*
X169743460Y-67576940D01*
X169689031Y-67569695D01*
X169605264Y-67555873D01*
X169543033Y-67529796D01*
X169501507Y-67490699D01*
X169479853Y-67437820D01*
X169476853Y-67375126D01*
X169491671Y-67309642D01*
X169525454Y-67260144D01*
X169578505Y-67226408D01*
X169651126Y-67208207D01*
X169704928Y-67204639D01*
X169764017Y-67206452D01*
G36*
X168393301Y-67222614D02*
X168405832Y-67228514D01*
X168449201Y-67260283D01*
X168490210Y-67306646D01*
X168520832Y-67357696D01*
X168529541Y-67381166D01*
X168537488Y-67423091D01*
X168542226Y-67473757D01*
X168542801Y-67494679D01*
X168542871Y-67560693D01*
X168162917Y-67560693D01*
X168171017Y-67595273D01*
X168190896Y-67636170D01*
X168225653Y-67671514D01*
X168267002Y-67694282D01*
X168293351Y-67699010D01*
X168329084Y-67693273D01*
X168371718Y-67678882D01*
X168386201Y-67672262D01*
X168439760Y-67645513D01*
X168485467Y-67680376D01*
X168511842Y-67703955D01*
X168525876Y-67723417D01*
X168526586Y-67729129D01*
X168514049Y-67742973D01*
X168486572Y-67764012D01*
X168461634Y-67780425D01*
X168394336Y-67809930D01*
X168318890Y-67823284D01*
X168244112Y-67819812D01*
X168184505Y-67801663D01*
X168123059Y-67762784D01*
X168079392Y-67711595D01*
X168052074Y-67645367D01*
X168039678Y-67561371D01*
X168038579Y-67522936D01*
X168042978Y-67434861D01*
X168043518Y-67432299D01*
X168169418Y-67432299D01*
X168172885Y-67440558D01*
X168187137Y-67445113D01*
X168216530Y-67447065D01*
X168265425Y-67447517D01*
X168284252Y-67447525D01*
X168341533Y-67446843D01*
X168377859Y-67444364D01*
X168397396Y-67439443D01*
X168404310Y-67431434D01*
X168404555Y-67428862D01*
X168396664Y-67408423D01*
X168376915Y-67379789D01*
X168368425Y-67369763D01*
X168336906Y-67341408D01*
X168304051Y-67330259D01*
X168286349Y-67329327D01*
X168238461Y-67340981D01*
X168198301Y-67372285D01*
X168172827Y-67417752D01*
X168172375Y-67419233D01*
X168169418Y-67432299D01*
X168043518Y-67432299D01*
X168057608Y-67365510D01*
X168083962Y-67310025D01*
X168116193Y-67270639D01*
X168175783Y-67227931D01*
X168245832Y-67205109D01*
X168320339Y-67203046D01*
X168393301Y-67222614D01*
X168393301Y-67222614D01*
G37*
X168393301Y-67222614D02*
X168405832Y-67228514D01*
X168449201Y-67260283D01*
X168490210Y-67306646D01*
X168520832Y-67357696D01*
X168529541Y-67381166D01*
X168537488Y-67423091D01*
X168542226Y-67473757D01*
X168542801Y-67494679D01*
X168542871Y-67560693D01*
X168162917Y-67560693D01*
X168171017Y-67595273D01*
X168190896Y-67636170D01*
X168225653Y-67671514D01*
X168267002Y-67694282D01*
X168293351Y-67699010D01*
X168329084Y-67693273D01*
X168371718Y-67678882D01*
X168386201Y-67672262D01*
X168439760Y-67645513D01*
X168485467Y-67680376D01*
X168511842Y-67703955D01*
X168525876Y-67723417D01*
X168526586Y-67729129D01*
X168514049Y-67742973D01*
X168486572Y-67764012D01*
X168461634Y-67780425D01*
X168394336Y-67809930D01*
X168318890Y-67823284D01*
X168244112Y-67819812D01*
X168184505Y-67801663D01*
X168123059Y-67762784D01*
X168079392Y-67711595D01*
X168052074Y-67645367D01*
X168039678Y-67561371D01*
X168038579Y-67522936D01*
X168042978Y-67434861D01*
X168043518Y-67432299D01*
X168169418Y-67432299D01*
X168172885Y-67440558D01*
X168187137Y-67445113D01*
X168216530Y-67447065D01*
X168265425Y-67447517D01*
X168284252Y-67447525D01*
X168341533Y-67446843D01*
X168377859Y-67444364D01*
X168397396Y-67439443D01*
X168404310Y-67431434D01*
X168404555Y-67428862D01*
X168396664Y-67408423D01*
X168376915Y-67379789D01*
X168368425Y-67369763D01*
X168336906Y-67341408D01*
X168304051Y-67330259D01*
X168286349Y-67329327D01*
X168238461Y-67340981D01*
X168198301Y-67372285D01*
X168172827Y-67417752D01*
X168172375Y-67419233D01*
X168169418Y-67432299D01*
X168043518Y-67432299D01*
X168057608Y-67365510D01*
X168083962Y-67310025D01*
X168116193Y-67270639D01*
X168175783Y-67227931D01*
X168245832Y-67205109D01*
X168320339Y-67203046D01*
X168393301Y-67222614D01*
G36*
X167211739Y-67215148D02*
X167277521Y-67244231D01*
X167327460Y-67292793D01*
X167361626Y-67360908D01*
X167380093Y-67448651D01*
X167381417Y-67462351D01*
X167382454Y-67558939D01*
X167369007Y-67643602D01*
X167341892Y-67712221D01*
X167327373Y-67734294D01*
X167276799Y-67781011D01*
X167212391Y-67811268D01*
X167140334Y-67823824D01*
X167066815Y-67817439D01*
X167010928Y-67797772D01*
X166962868Y-67764629D01*
X166923588Y-67721175D01*
X166922908Y-67720158D01*
X166906956Y-67693338D01*
X166896590Y-67666368D01*
X166890312Y-67632332D01*
X166886627Y-67584310D01*
X166885003Y-67544931D01*
X166884328Y-67509219D01*
X167010045Y-67509219D01*
X167011274Y-67544770D01*
X167015734Y-67592094D01*
X167023603Y-67622465D01*
X167037793Y-67644072D01*
X167051083Y-67656694D01*
X167098198Y-67683122D01*
X167147495Y-67686653D01*
X167193407Y-67667639D01*
X167216362Y-67646331D01*
X167232904Y-67624859D01*
X167242579Y-67604313D01*
X167246826Y-67577574D01*
X167247080Y-67537523D01*
X167245772Y-67500638D01*
X167242957Y-67447947D01*
X167238495Y-67413772D01*
X167230452Y-67391480D01*
X167216897Y-67374442D01*
X167206155Y-67364703D01*
X167161223Y-67339123D01*
X167112751Y-67337847D01*
X167072106Y-67352999D01*
X167037433Y-67384642D01*
X167016776Y-67436620D01*
X167010045Y-67509219D01*
X166884328Y-67509219D01*
X166883521Y-67466621D01*
X166886052Y-67408056D01*
X166893638Y-67364007D01*
X166907319Y-67329248D01*
X166928135Y-67298551D01*
X166935853Y-67289436D01*
X166984111Y-67244021D01*
X167035872Y-67217493D01*
X167099172Y-67206379D01*
X167130039Y-67205471D01*
X167211739Y-67215148D01*
X167211739Y-67215148D01*
G37*
X167211739Y-67215148D02*
X167277521Y-67244231D01*
X167327460Y-67292793D01*
X167361626Y-67360908D01*
X167380093Y-67448651D01*
X167381417Y-67462351D01*
X167382454Y-67558939D01*
X167369007Y-67643602D01*
X167341892Y-67712221D01*
X167327373Y-67734294D01*
X167276799Y-67781011D01*
X167212391Y-67811268D01*
X167140334Y-67823824D01*
X167066815Y-67817439D01*
X167010928Y-67797772D01*
X166962868Y-67764629D01*
X166923588Y-67721175D01*
X166922908Y-67720158D01*
X166906956Y-67693338D01*
X166896590Y-67666368D01*
X166890312Y-67632332D01*
X166886627Y-67584310D01*
X166885003Y-67544931D01*
X166884328Y-67509219D01*
X167010045Y-67509219D01*
X167011274Y-67544770D01*
X167015734Y-67592094D01*
X167023603Y-67622465D01*
X167037793Y-67644072D01*
X167051083Y-67656694D01*
X167098198Y-67683122D01*
X167147495Y-67686653D01*
X167193407Y-67667639D01*
X167216362Y-67646331D01*
X167232904Y-67624859D01*
X167242579Y-67604313D01*
X167246826Y-67577574D01*
X167247080Y-67537523D01*
X167245772Y-67500638D01*
X167242957Y-67447947D01*
X167238495Y-67413772D01*
X167230452Y-67391480D01*
X167216897Y-67374442D01*
X167206155Y-67364703D01*
X167161223Y-67339123D01*
X167112751Y-67337847D01*
X167072106Y-67352999D01*
X167037433Y-67384642D01*
X167016776Y-67436620D01*
X167010045Y-67509219D01*
X166884328Y-67509219D01*
X166883521Y-67466621D01*
X166886052Y-67408056D01*
X166893638Y-67364007D01*
X166907319Y-67329248D01*
X166928135Y-67298551D01*
X166935853Y-67289436D01*
X166984111Y-67244021D01*
X167035872Y-67217493D01*
X167099172Y-67206379D01*
X167130039Y-67205471D01*
X167211739Y-67215148D01*
G36*
X171782581Y-68154970D02*
X171842685Y-68170597D01*
X171893021Y-68202848D01*
X171917393Y-68226940D01*
X171957345Y-68283895D01*
X171980242Y-68349965D01*
X171988108Y-68431182D01*
X171988148Y-68437748D01*
X171988218Y-68503763D01*
X171608264Y-68503763D01*
X171616363Y-68538342D01*
X171630987Y-68569659D01*
X171656581Y-68602291D01*
X171661935Y-68607500D01*
X171707943Y-68635694D01*
X171760410Y-68640475D01*
X171820803Y-68621926D01*
X171831040Y-68616931D01*
X171862439Y-68601745D01*
X171883470Y-68593094D01*
X171887139Y-68592293D01*
X171899948Y-68600063D01*
X171924378Y-68619072D01*
X171936779Y-68629460D01*
X171962476Y-68653321D01*
X171970915Y-68669077D01*
X171965058Y-68683571D01*
X171961928Y-68687534D01*
X171940725Y-68704879D01*
X171905738Y-68725959D01*
X171881337Y-68738265D01*
X171812072Y-68759946D01*
X171735388Y-68766971D01*
X171662765Y-68758647D01*
X171642426Y-68752686D01*
X171579476Y-68718952D01*
X171532815Y-68667045D01*
X171502173Y-68596459D01*
X171487282Y-68506692D01*
X171485647Y-68459753D01*
X171490421Y-68391413D01*
X171610990Y-68391413D01*
X171622652Y-68396465D01*
X171653998Y-68400429D01*
X171699571Y-68402768D01*
X171730446Y-68403169D01*
X171785981Y-68402783D01*
X171821033Y-68400975D01*
X171840262Y-68396773D01*
X171848330Y-68389203D01*
X171849901Y-68378218D01*
X171839121Y-68344381D01*
X171811980Y-68310940D01*
X171776277Y-68285272D01*
X171740560Y-68274772D01*
X171692048Y-68284086D01*
X171650053Y-68311013D01*
X171620936Y-68349827D01*
X171610990Y-68391413D01*
X171490421Y-68391413D01*
X171492599Y-68360236D01*
X171514055Y-68280949D01*
X171550470Y-68221263D01*
X171602297Y-68180549D01*
X171669990Y-68158179D01*
X171706662Y-68153871D01*
X171782581Y-68154970D01*
X171782581Y-68154970D01*
G37*
X171782581Y-68154970D02*
X171842685Y-68170597D01*
X171893021Y-68202848D01*
X171917393Y-68226940D01*
X171957345Y-68283895D01*
X171980242Y-68349965D01*
X171988108Y-68431182D01*
X171988148Y-68437748D01*
X171988218Y-68503763D01*
X171608264Y-68503763D01*
X171616363Y-68538342D01*
X171630987Y-68569659D01*
X171656581Y-68602291D01*
X171661935Y-68607500D01*
X171707943Y-68635694D01*
X171760410Y-68640475D01*
X171820803Y-68621926D01*
X171831040Y-68616931D01*
X171862439Y-68601745D01*
X171883470Y-68593094D01*
X171887139Y-68592293D01*
X171899948Y-68600063D01*
X171924378Y-68619072D01*
X171936779Y-68629460D01*
X171962476Y-68653321D01*
X171970915Y-68669077D01*
X171965058Y-68683571D01*
X171961928Y-68687534D01*
X171940725Y-68704879D01*
X171905738Y-68725959D01*
X171881337Y-68738265D01*
X171812072Y-68759946D01*
X171735388Y-68766971D01*
X171662765Y-68758647D01*
X171642426Y-68752686D01*
X171579476Y-68718952D01*
X171532815Y-68667045D01*
X171502173Y-68596459D01*
X171487282Y-68506692D01*
X171485647Y-68459753D01*
X171490421Y-68391413D01*
X171610990Y-68391413D01*
X171622652Y-68396465D01*
X171653998Y-68400429D01*
X171699571Y-68402768D01*
X171730446Y-68403169D01*
X171785981Y-68402783D01*
X171821033Y-68400975D01*
X171840262Y-68396773D01*
X171848330Y-68389203D01*
X171849901Y-68378218D01*
X171839121Y-68344381D01*
X171811980Y-68310940D01*
X171776277Y-68285272D01*
X171740560Y-68274772D01*
X171692048Y-68284086D01*
X171650053Y-68311013D01*
X171620936Y-68349827D01*
X171610990Y-68391413D01*
X171490421Y-68391413D01*
X171492599Y-68360236D01*
X171514055Y-68280949D01*
X171550470Y-68221263D01*
X171602297Y-68180549D01*
X171669990Y-68158179D01*
X171706662Y-68153871D01*
X171782581Y-68154970D01*
G36*
X171385255Y-68151486D02*
X171433595Y-68161015D01*
X171461114Y-68175125D01*
X171490064Y-68198568D01*
X171448876Y-68250571D01*
X171423482Y-68282064D01*
X171406238Y-68297428D01*
X171389102Y-68299776D01*
X171364027Y-68292217D01*
X171352257Y-68287941D01*
X171304270Y-68281631D01*
X171260324Y-68295156D01*
X171228060Y-68325710D01*
X171222819Y-68335452D01*
X171217112Y-68361258D01*
X171212706Y-68408817D01*
X171209811Y-68474758D01*
X171208631Y-68555710D01*
X171208614Y-68567226D01*
X171208614Y-68767822D01*
X171070297Y-68767822D01*
X171070297Y-68151683D01*
X171139456Y-68151683D01*
X171179333Y-68152725D01*
X171200107Y-68157358D01*
X171207789Y-68167849D01*
X171208614Y-68177745D01*
X171208614Y-68203806D01*
X171241745Y-68177745D01*
X171279735Y-68159965D01*
X171330770Y-68151174D01*
X171385255Y-68151486D01*
X171385255Y-68151486D01*
G37*
X171385255Y-68151486D02*
X171433595Y-68161015D01*
X171461114Y-68175125D01*
X171490064Y-68198568D01*
X171448876Y-68250571D01*
X171423482Y-68282064D01*
X171406238Y-68297428D01*
X171389102Y-68299776D01*
X171364027Y-68292217D01*
X171352257Y-68287941D01*
X171304270Y-68281631D01*
X171260324Y-68295156D01*
X171228060Y-68325710D01*
X171222819Y-68335452D01*
X171217112Y-68361258D01*
X171212706Y-68408817D01*
X171209811Y-68474758D01*
X171208631Y-68555710D01*
X171208614Y-68567226D01*
X171208614Y-68767822D01*
X171070297Y-68767822D01*
X171070297Y-68151683D01*
X171139456Y-68151683D01*
X171179333Y-68152725D01*
X171200107Y-68157358D01*
X171207789Y-68167849D01*
X171208614Y-68177745D01*
X171208614Y-68203806D01*
X171241745Y-68177745D01*
X171279735Y-68159965D01*
X171330770Y-68151174D01*
X171385255Y-68151486D01*
G36*
X170788411Y-68155417D02*
X170841411Y-68168290D01*
X170856731Y-68175110D01*
X170886428Y-68192974D01*
X170909220Y-68213093D01*
X170926083Y-68238962D01*
X170937998Y-68274073D01*
X170945942Y-68321920D01*
X170950894Y-68385996D01*
X170953831Y-68469794D01*
X170954947Y-68525768D01*
X170959052Y-68767822D01*
X170888932Y-68767822D01*
X170846393Y-68766038D01*
X170824476Y-68759942D01*
X170818812Y-68749706D01*
X170815821Y-68738637D01*
X170802451Y-68740754D01*
X170784233Y-68749629D01*
X170738624Y-68763233D01*
X170680007Y-68766899D01*
X170618354Y-68760903D01*
X170563638Y-68745521D01*
X170558730Y-68743386D01*
X170508723Y-68708255D01*
X170475756Y-68659419D01*
X170460587Y-68602333D01*
X170461746Y-68581824D01*
X170585508Y-68581824D01*
X170596413Y-68609425D01*
X170628745Y-68629204D01*
X170680910Y-68639819D01*
X170708787Y-68641228D01*
X170755247Y-68637620D01*
X170786129Y-68623597D01*
X170793664Y-68616931D01*
X170814076Y-68580666D01*
X170818812Y-68547773D01*
X170818812Y-68503763D01*
X170757513Y-68503763D01*
X170686256Y-68507395D01*
X170636276Y-68518818D01*
X170604696Y-68538824D01*
X170597626Y-68547743D01*
X170585508Y-68581824D01*
X170461746Y-68581824D01*
X170463971Y-68542456D01*
X170486663Y-68485244D01*
X170517624Y-68446580D01*
X170536376Y-68429864D01*
X170554733Y-68418878D01*
X170578619Y-68412180D01*
X170613957Y-68408326D01*
X170666669Y-68405873D01*
X170687577Y-68405168D01*
X170818812Y-68400879D01*
X170818620Y-68361158D01*
X170813537Y-68319405D01*
X170795162Y-68294158D01*
X170758039Y-68278030D01*
X170757043Y-68277742D01*
X170704410Y-68271400D01*
X170652906Y-68279684D01*
X170614630Y-68299827D01*
X170599272Y-68309773D01*
X170582730Y-68308397D01*
X170557275Y-68293987D01*
X170542328Y-68283817D01*
X170513091Y-68262088D01*
X170494980Y-68245800D01*
X170492074Y-68241137D01*
X170504040Y-68217005D01*
X170539396Y-68188185D01*
X170554753Y-68178461D01*
X170598901Y-68161714D01*
X170658398Y-68152227D01*
X170724487Y-68150095D01*
X170788411Y-68155417D01*
X170788411Y-68155417D01*
G37*
X170788411Y-68155417D02*
X170841411Y-68168290D01*
X170856731Y-68175110D01*
X170886428Y-68192974D01*
X170909220Y-68213093D01*
X170926083Y-68238962D01*
X170937998Y-68274073D01*
X170945942Y-68321920D01*
X170950894Y-68385996D01*
X170953831Y-68469794D01*
X170954947Y-68525768D01*
X170959052Y-68767822D01*
X170888932Y-68767822D01*
X170846393Y-68766038D01*
X170824476Y-68759942D01*
X170818812Y-68749706D01*
X170815821Y-68738637D01*
X170802451Y-68740754D01*
X170784233Y-68749629D01*
X170738624Y-68763233D01*
X170680007Y-68766899D01*
X170618354Y-68760903D01*
X170563638Y-68745521D01*
X170558730Y-68743386D01*
X170508723Y-68708255D01*
X170475756Y-68659419D01*
X170460587Y-68602333D01*
X170461746Y-68581824D01*
X170585508Y-68581824D01*
X170596413Y-68609425D01*
X170628745Y-68629204D01*
X170680910Y-68639819D01*
X170708787Y-68641228D01*
X170755247Y-68637620D01*
X170786129Y-68623597D01*
X170793664Y-68616931D01*
X170814076Y-68580666D01*
X170818812Y-68547773D01*
X170818812Y-68503763D01*
X170757513Y-68503763D01*
X170686256Y-68507395D01*
X170636276Y-68518818D01*
X170604696Y-68538824D01*
X170597626Y-68547743D01*
X170585508Y-68581824D01*
X170461746Y-68581824D01*
X170463971Y-68542456D01*
X170486663Y-68485244D01*
X170517624Y-68446580D01*
X170536376Y-68429864D01*
X170554733Y-68418878D01*
X170578619Y-68412180D01*
X170613957Y-68408326D01*
X170666669Y-68405873D01*
X170687577Y-68405168D01*
X170818812Y-68400879D01*
X170818620Y-68361158D01*
X170813537Y-68319405D01*
X170795162Y-68294158D01*
X170758039Y-68278030D01*
X170757043Y-68277742D01*
X170704410Y-68271400D01*
X170652906Y-68279684D01*
X170614630Y-68299827D01*
X170599272Y-68309773D01*
X170582730Y-68308397D01*
X170557275Y-68293987D01*
X170542328Y-68283817D01*
X170513091Y-68262088D01*
X170494980Y-68245800D01*
X170492074Y-68241137D01*
X170504040Y-68217005D01*
X170539396Y-68188185D01*
X170554753Y-68178461D01*
X170598901Y-68161714D01*
X170658398Y-68152227D01*
X170724487Y-68150095D01*
X170788411Y-68155417D01*
G36*
X170031524Y-68154237D02*
X170081255Y-68157971D01*
X170211291Y-68547773D01*
X170231678Y-68478614D01*
X170243946Y-68435874D01*
X170260085Y-68378115D01*
X170277512Y-68314625D01*
X170286726Y-68280570D01*
X170321388Y-68151683D01*
X170464391Y-68151683D01*
X170421646Y-68286857D01*
X170400596Y-68353342D01*
X170375167Y-68433539D01*
X170348610Y-68517193D01*
X170324902Y-68591782D01*
X170270902Y-68761535D01*
X170212598Y-68765328D01*
X170154295Y-68769122D01*
X170122679Y-68664734D01*
X170103182Y-68599889D01*
X170081904Y-68528400D01*
X170063308Y-68465263D01*
X170062574Y-68462750D01*
X170048684Y-68419969D01*
X170036429Y-68390779D01*
X170027846Y-68379741D01*
X170026082Y-68381018D01*
X170019891Y-68398130D01*
X170008128Y-68434787D01*
X169992225Y-68486378D01*
X169973614Y-68548294D01*
X169963543Y-68582352D01*
X169909007Y-68767822D01*
X169793264Y-68767822D01*
X169700737Y-68475471D01*
X169674744Y-68393462D01*
X169651066Y-68318987D01*
X169630820Y-68255544D01*
X169615126Y-68206632D01*
X169605102Y-68175749D01*
X169602055Y-68166726D01*
X169604467Y-68157487D01*
X169623408Y-68153441D01*
X169662823Y-68153846D01*
X169668993Y-68154152D01*
X169742086Y-68157971D01*
X169789957Y-68334010D01*
X169807553Y-68398211D01*
X169823277Y-68454649D01*
X169835746Y-68498422D01*
X169843574Y-68524630D01*
X169845020Y-68528903D01*
X169851014Y-68523990D01*
X169863101Y-68498532D01*
X169879893Y-68455997D01*
X169900003Y-68399850D01*
X169917003Y-68349130D01*
X169981794Y-68150504D01*
X170031524Y-68154237D01*
X170031524Y-68154237D01*
G37*
X170031524Y-68154237D02*
X170081255Y-68157971D01*
X170211291Y-68547773D01*
X170231678Y-68478614D01*
X170243946Y-68435874D01*
X170260085Y-68378115D01*
X170277512Y-68314625D01*
X170286726Y-68280570D01*
X170321388Y-68151683D01*
X170464391Y-68151683D01*
X170421646Y-68286857D01*
X170400596Y-68353342D01*
X170375167Y-68433539D01*
X170348610Y-68517193D01*
X170324902Y-68591782D01*
X170270902Y-68761535D01*
X170212598Y-68765328D01*
X170154295Y-68769122D01*
X170122679Y-68664734D01*
X170103182Y-68599889D01*
X170081904Y-68528400D01*
X170063308Y-68465263D01*
X170062574Y-68462750D01*
X170048684Y-68419969D01*
X170036429Y-68390779D01*
X170027846Y-68379741D01*
X170026082Y-68381018D01*
X170019891Y-68398130D01*
X170008128Y-68434787D01*
X169992225Y-68486378D01*
X169973614Y-68548294D01*
X169963543Y-68582352D01*
X169909007Y-68767822D01*
X169793264Y-68767822D01*
X169700737Y-68475471D01*
X169674744Y-68393462D01*
X169651066Y-68318987D01*
X169630820Y-68255544D01*
X169615126Y-68206632D01*
X169605102Y-68175749D01*
X169602055Y-68166726D01*
X169604467Y-68157487D01*
X169623408Y-68153441D01*
X169662823Y-68153846D01*
X169668993Y-68154152D01*
X169742086Y-68157971D01*
X169789957Y-68334010D01*
X169807553Y-68398211D01*
X169823277Y-68454649D01*
X169835746Y-68498422D01*
X169843574Y-68524630D01*
X169845020Y-68528903D01*
X169851014Y-68523990D01*
X169863101Y-68498532D01*
X169879893Y-68455997D01*
X169900003Y-68399850D01*
X169917003Y-68349130D01*
X169981794Y-68150504D01*
X170031524Y-68154237D01*
G36*
X169548812Y-68767822D02*
X169479654Y-68767822D01*
X169439512Y-68766645D01*
X169418606Y-68761772D01*
X169411078Y-68751186D01*
X169410495Y-68744029D01*
X169409226Y-68729676D01*
X169401221Y-68726923D01*
X169380185Y-68735771D01*
X169363827Y-68744029D01*
X169301023Y-68763597D01*
X169232752Y-68764729D01*
X169177248Y-68750135D01*
X169125562Y-68714877D01*
X169086162Y-68662835D01*
X169064587Y-68601450D01*
X169064038Y-68598018D01*
X169060833Y-68560571D01*
X169059239Y-68506813D01*
X169059367Y-68466155D01*
X169196721Y-68466155D01*
X169199903Y-68520194D01*
X169207141Y-68564735D01*
X169216940Y-68589888D01*
X169254011Y-68624260D01*
X169298026Y-68636582D01*
X169343416Y-68626618D01*
X169382203Y-68596895D01*
X169396892Y-68576905D01*
X169405481Y-68553050D01*
X169409504Y-68518230D01*
X169410495Y-68465930D01*
X169408722Y-68414139D01*
X169404037Y-68368634D01*
X169397397Y-68338181D01*
X169396290Y-68335452D01*
X169369509Y-68303000D01*
X169330421Y-68285183D01*
X169286685Y-68282306D01*
X169245962Y-68294674D01*
X169215913Y-68322593D01*
X169212796Y-68328148D01*
X169203039Y-68362022D01*
X169197723Y-68410728D01*
X169196721Y-68466155D01*
X169059367Y-68466155D01*
X169059432Y-68445540D01*
X169060336Y-68412563D01*
X169066486Y-68330981D01*
X169079267Y-68269730D01*
X169100529Y-68224449D01*
X169132122Y-68190779D01*
X169162793Y-68171014D01*
X169205646Y-68157120D01*
X169258944Y-68152354D01*
X169313520Y-68156236D01*
X169360208Y-68168282D01*
X169384876Y-68182693D01*
X169410495Y-68205878D01*
X169410495Y-67912773D01*
X169548812Y-67912773D01*
X169548812Y-68767822D01*
X169548812Y-68767822D01*
G37*
X169548812Y-68767822D02*
X169479654Y-68767822D01*
X169439512Y-68766645D01*
X169418606Y-68761772D01*
X169411078Y-68751186D01*
X169410495Y-68744029D01*
X169409226Y-68729676D01*
X169401221Y-68726923D01*
X169380185Y-68735771D01*
X169363827Y-68744029D01*
X169301023Y-68763597D01*
X169232752Y-68764729D01*
X169177248Y-68750135D01*
X169125562Y-68714877D01*
X169086162Y-68662835D01*
X169064587Y-68601450D01*
X169064038Y-68598018D01*
X169060833Y-68560571D01*
X169059239Y-68506813D01*
X169059367Y-68466155D01*
X169196721Y-68466155D01*
X169199903Y-68520194D01*
X169207141Y-68564735D01*
X169216940Y-68589888D01*
X169254011Y-68624260D01*
X169298026Y-68636582D01*
X169343416Y-68626618D01*
X169382203Y-68596895D01*
X169396892Y-68576905D01*
X169405481Y-68553050D01*
X169409504Y-68518230D01*
X169410495Y-68465930D01*
X169408722Y-68414139D01*
X169404037Y-68368634D01*
X169397397Y-68338181D01*
X169396290Y-68335452D01*
X169369509Y-68303000D01*
X169330421Y-68285183D01*
X169286685Y-68282306D01*
X169245962Y-68294674D01*
X169215913Y-68322593D01*
X169212796Y-68328148D01*
X169203039Y-68362022D01*
X169197723Y-68410728D01*
X169196721Y-68466155D01*
X169059367Y-68466155D01*
X169059432Y-68445540D01*
X169060336Y-68412563D01*
X169066486Y-68330981D01*
X169079267Y-68269730D01*
X169100529Y-68224449D01*
X169132122Y-68190779D01*
X169162793Y-68171014D01*
X169205646Y-68157120D01*
X169258944Y-68152354D01*
X169313520Y-68156236D01*
X169360208Y-68168282D01*
X169384876Y-68182693D01*
X169410495Y-68205878D01*
X169410495Y-67912773D01*
X169548812Y-67912773D01*
X169548812Y-68767822D01*
G36*
X168756644Y-68153020D02*
X168775461Y-68158660D01*
X168781527Y-68171053D01*
X168781782Y-68176647D01*
X168782871Y-68192230D01*
X168790368Y-68194676D01*
X168810619Y-68183993D01*
X168822649Y-68176694D01*
X168860600Y-68161063D01*
X168905928Y-68153334D01*
X168953456Y-68152740D01*
X168998005Y-68158513D01*
X169034398Y-68169884D01*
X169057457Y-68186088D01*
X169062004Y-68206355D01*
X169059709Y-68211843D01*
X169042980Y-68234626D01*
X169017037Y-68262647D01*
X169012345Y-68267177D01*
X168987617Y-68288005D01*
X168966282Y-68294735D01*
X168936445Y-68290038D01*
X168924492Y-68286917D01*
X168887295Y-68279421D01*
X168861141Y-68282792D01*
X168839054Y-68294681D01*
X168818822Y-68310635D01*
X168803921Y-68330700D01*
X168793566Y-68358702D01*
X168786971Y-68398467D01*
X168783351Y-68453823D01*
X168781922Y-68528594D01*
X168781782Y-68573740D01*
X168781782Y-68767822D01*
X168656040Y-68767822D01*
X168656040Y-68151683D01*
X168718911Y-68151683D01*
X168756644Y-68153020D01*
X168756644Y-68153020D01*
G37*
X168756644Y-68153020D02*
X168775461Y-68158660D01*
X168781527Y-68171053D01*
X168781782Y-68176647D01*
X168782871Y-68192230D01*
X168790368Y-68194676D01*
X168810619Y-68183993D01*
X168822649Y-68176694D01*
X168860600Y-68161063D01*
X168905928Y-68153334D01*
X168953456Y-68152740D01*
X168998005Y-68158513D01*
X169034398Y-68169884D01*
X169057457Y-68186088D01*
X169062004Y-68206355D01*
X169059709Y-68211843D01*
X169042980Y-68234626D01*
X169017037Y-68262647D01*
X169012345Y-68267177D01*
X168987617Y-68288005D01*
X168966282Y-68294735D01*
X168936445Y-68290038D01*
X168924492Y-68286917D01*
X168887295Y-68279421D01*
X168861141Y-68282792D01*
X168839054Y-68294681D01*
X168818822Y-68310635D01*
X168803921Y-68330700D01*
X168793566Y-68358702D01*
X168786971Y-68398467D01*
X168783351Y-68453823D01*
X168781922Y-68528594D01*
X168781782Y-68573740D01*
X168781782Y-68767822D01*
X168656040Y-68767822D01*
X168656040Y-68151683D01*
X168718911Y-68151683D01*
X168756644Y-68153020D01*
G36*
X168365790Y-68156555D02*
X168424945Y-68172339D01*
X168469977Y-68200948D01*
X168501754Y-68238419D01*
X168511634Y-68254411D01*
X168518927Y-68271163D01*
X168524026Y-68292592D01*
X168527321Y-68322616D01*
X168529203Y-68365154D01*
X168530063Y-68424122D01*
X168530293Y-68503440D01*
X168530297Y-68524484D01*
X168530297Y-68767822D01*
X168469941Y-68767822D01*
X168431443Y-68765126D01*
X168402977Y-68758295D01*
X168395845Y-68754083D01*
X168376348Y-68746813D01*
X168356434Y-68754083D01*
X168323647Y-68763160D01*
X168276022Y-68766813D01*
X168223236Y-68765228D01*
X168174964Y-68758589D01*
X168146782Y-68750072D01*
X168092247Y-68715063D01*
X168058165Y-68666479D01*
X168042843Y-68601882D01*
X168042701Y-68600223D01*
X168044045Y-68571566D01*
X168165644Y-68571566D01*
X168176274Y-68604161D01*
X168193590Y-68622505D01*
X168228348Y-68636379D01*
X168274227Y-68641917D01*
X168321012Y-68639191D01*
X168358486Y-68628274D01*
X168368985Y-68621269D01*
X168387332Y-68588904D01*
X168391980Y-68552111D01*
X168391980Y-68503763D01*
X168322418Y-68503763D01*
X168256333Y-68508850D01*
X168206236Y-68523263D01*
X168175071Y-68545729D01*
X168165644Y-68571566D01*
X168044045Y-68571566D01*
X168046013Y-68529647D01*
X168069290Y-68473845D01*
X168113052Y-68431647D01*
X168119101Y-68427808D01*
X168145093Y-68415309D01*
X168177265Y-68407740D01*
X168222240Y-68404061D01*
X168275669Y-68403216D01*
X168391980Y-68403169D01*
X168391980Y-68354411D01*
X168387047Y-68316581D01*
X168374457Y-68291236D01*
X168372983Y-68289887D01*
X168344966Y-68278800D01*
X168302674Y-68274503D01*
X168255936Y-68276615D01*
X168214582Y-68284756D01*
X168190043Y-68296965D01*
X168176747Y-68306746D01*
X168162706Y-68308613D01*
X168143329Y-68300600D01*
X168114024Y-68280739D01*
X168070197Y-68247063D01*
X168066175Y-68243909D01*
X168068236Y-68232236D01*
X168085432Y-68212822D01*
X168111567Y-68191248D01*
X168140448Y-68173096D01*
X168149522Y-68168809D01*
X168182620Y-68160256D01*
X168231120Y-68154155D01*
X168285305Y-68151708D01*
X168287839Y-68151703D01*
X168365790Y-68156555D01*
X168365790Y-68156555D01*
G37*
X168365790Y-68156555D02*
X168424945Y-68172339D01*
X168469977Y-68200948D01*
X168501754Y-68238419D01*
X168511634Y-68254411D01*
X168518927Y-68271163D01*
X168524026Y-68292592D01*
X168527321Y-68322616D01*
X168529203Y-68365154D01*
X168530063Y-68424122D01*
X168530293Y-68503440D01*
X168530297Y-68524484D01*
X168530297Y-68767822D01*
X168469941Y-68767822D01*
X168431443Y-68765126D01*
X168402977Y-68758295D01*
X168395845Y-68754083D01*
X168376348Y-68746813D01*
X168356434Y-68754083D01*
X168323647Y-68763160D01*
X168276022Y-68766813D01*
X168223236Y-68765228D01*
X168174964Y-68758589D01*
X168146782Y-68750072D01*
X168092247Y-68715063D01*
X168058165Y-68666479D01*
X168042843Y-68601882D01*
X168042701Y-68600223D01*
X168044045Y-68571566D01*
X168165644Y-68571566D01*
X168176274Y-68604161D01*
X168193590Y-68622505D01*
X168228348Y-68636379D01*
X168274227Y-68641917D01*
X168321012Y-68639191D01*
X168358486Y-68628274D01*
X168368985Y-68621269D01*
X168387332Y-68588904D01*
X168391980Y-68552111D01*
X168391980Y-68503763D01*
X168322418Y-68503763D01*
X168256333Y-68508850D01*
X168206236Y-68523263D01*
X168175071Y-68545729D01*
X168165644Y-68571566D01*
X168044045Y-68571566D01*
X168046013Y-68529647D01*
X168069290Y-68473845D01*
X168113052Y-68431647D01*
X168119101Y-68427808D01*
X168145093Y-68415309D01*
X168177265Y-68407740D01*
X168222240Y-68404061D01*
X168275669Y-68403216D01*
X168391980Y-68403169D01*
X168391980Y-68354411D01*
X168387047Y-68316581D01*
X168374457Y-68291236D01*
X168372983Y-68289887D01*
X168344966Y-68278800D01*
X168302674Y-68274503D01*
X168255936Y-68276615D01*
X168214582Y-68284756D01*
X168190043Y-68296965D01*
X168176747Y-68306746D01*
X168162706Y-68308613D01*
X168143329Y-68300600D01*
X168114024Y-68280739D01*
X168070197Y-68247063D01*
X168066175Y-68243909D01*
X168068236Y-68232236D01*
X168085432Y-68212822D01*
X168111567Y-68191248D01*
X168140448Y-68173096D01*
X168149522Y-68168809D01*
X168182620Y-68160256D01*
X168231120Y-68154155D01*
X168285305Y-68151708D01*
X168287839Y-68151703D01*
X168365790Y-68156555D01*
G36*
X167841241Y-67219184D02*
X167867753Y-67232282D01*
X167900447Y-67255106D01*
X167924275Y-67279996D01*
X167940594Y-67311249D01*
X167950760Y-67353166D01*
X167956128Y-67410044D01*
X167958056Y-67486184D01*
X167958169Y-67518917D01*
X167957839Y-67590656D01*
X167956473Y-67641927D01*
X167953500Y-67677404D01*
X167948351Y-67701763D01*
X167940457Y-67719680D01*
X167932243Y-67731902D01*
X167879813Y-67783905D01*
X167818070Y-67815184D01*
X167751464Y-67824592D01*
X167684442Y-67810980D01*
X167663208Y-67801354D01*
X167612376Y-67774859D01*
X167612376Y-68190052D01*
X167649475Y-68170868D01*
X167698357Y-68156025D01*
X167758439Y-68152222D01*
X167818436Y-68159243D01*
X167863744Y-68175013D01*
X167901325Y-68205047D01*
X167933436Y-68248024D01*
X167935850Y-68252436D01*
X167946033Y-68273221D01*
X167953470Y-68294170D01*
X167958589Y-68319548D01*
X167961819Y-68353618D01*
X167963587Y-68400641D01*
X167964323Y-68464882D01*
X167964456Y-68537176D01*
X167964456Y-68767822D01*
X167826139Y-68767822D01*
X167826139Y-68342533D01*
X167787451Y-68309979D01*
X167747262Y-68283940D01*
X167709203Y-68279205D01*
X167670934Y-68291389D01*
X167650538Y-68303320D01*
X167635358Y-68320313D01*
X167624562Y-68345995D01*
X167617317Y-68383991D01*
X167612792Y-68437926D01*
X167610156Y-68511425D01*
X167609228Y-68560347D01*
X167606089Y-68761535D01*
X167540074Y-68765336D01*
X167474060Y-68769136D01*
X167474060Y-67520650D01*
X167612376Y-67520650D01*
X167615903Y-67590254D01*
X167627785Y-67638569D01*
X167649980Y-67668631D01*
X167684441Y-67683471D01*
X167719258Y-67686436D01*
X167758671Y-67683028D01*
X167784829Y-67669617D01*
X167801186Y-67651896D01*
X167814063Y-67632835D01*
X167821728Y-67611601D01*
X167825139Y-67581849D01*
X167825251Y-67537236D01*
X167824103Y-67499880D01*
X167821468Y-67443604D01*
X167817544Y-67406658D01*
X167810937Y-67383223D01*
X167800251Y-67367480D01*
X167790167Y-67358380D01*
X167748030Y-67338537D01*
X167698160Y-67335332D01*
X167669524Y-67342168D01*
X167641172Y-67366464D01*
X167622391Y-67413728D01*
X167613288Y-67483624D01*
X167612376Y-67520650D01*
X167474060Y-67520650D01*
X167474060Y-67208614D01*
X167543218Y-67208614D01*
X167584740Y-67210256D01*
X167606162Y-67216087D01*
X167612374Y-67227461D01*
X167612376Y-67227798D01*
X167615258Y-67238938D01*
X167627970Y-67237673D01*
X167653243Y-67225433D01*
X167712131Y-67206707D01*
X167778385Y-67204739D01*
X167841241Y-67219184D01*
X167841241Y-67219184D01*
G37*
X167841241Y-67219184D02*
X167867753Y-67232282D01*
X167900447Y-67255106D01*
X167924275Y-67279996D01*
X167940594Y-67311249D01*
X167950760Y-67353166D01*
X167956128Y-67410044D01*
X167958056Y-67486184D01*
X167958169Y-67518917D01*
X167957839Y-67590656D01*
X167956473Y-67641927D01*
X167953500Y-67677404D01*
X167948351Y-67701763D01*
X167940457Y-67719680D01*
X167932243Y-67731902D01*
X167879813Y-67783905D01*
X167818070Y-67815184D01*
X167751464Y-67824592D01*
X167684442Y-67810980D01*
X167663208Y-67801354D01*
X167612376Y-67774859D01*
X167612376Y-68190052D01*
X167649475Y-68170868D01*
X167698357Y-68156025D01*
X167758439Y-68152222D01*
X167818436Y-68159243D01*
X167863744Y-68175013D01*
X167901325Y-68205047D01*
X167933436Y-68248024D01*
X167935850Y-68252436D01*
X167946033Y-68273221D01*
X167953470Y-68294170D01*
X167958589Y-68319548D01*
X167961819Y-68353618D01*
X167963587Y-68400641D01*
X167964323Y-68464882D01*
X167964456Y-68537176D01*
X167964456Y-68767822D01*
X167826139Y-68767822D01*
X167826139Y-68342533D01*
X167787451Y-68309979D01*
X167747262Y-68283940D01*
X167709203Y-68279205D01*
X167670934Y-68291389D01*
X167650538Y-68303320D01*
X167635358Y-68320313D01*
X167624562Y-68345995D01*
X167617317Y-68383991D01*
X167612792Y-68437926D01*
X167610156Y-68511425D01*
X167609228Y-68560347D01*
X167606089Y-68761535D01*
X167540074Y-68765336D01*
X167474060Y-68769136D01*
X167474060Y-67520650D01*
X167612376Y-67520650D01*
X167615903Y-67590254D01*
X167627785Y-67638569D01*
X167649980Y-67668631D01*
X167684441Y-67683471D01*
X167719258Y-67686436D01*
X167758671Y-67683028D01*
X167784829Y-67669617D01*
X167801186Y-67651896D01*
X167814063Y-67632835D01*
X167821728Y-67611601D01*
X167825139Y-67581849D01*
X167825251Y-67537236D01*
X167824103Y-67499880D01*
X167821468Y-67443604D01*
X167817544Y-67406658D01*
X167810937Y-67383223D01*
X167800251Y-67367480D01*
X167790167Y-67358380D01*
X167748030Y-67338537D01*
X167698160Y-67335332D01*
X167669524Y-67342168D01*
X167641172Y-67366464D01*
X167622391Y-67413728D01*
X167613288Y-67483624D01*
X167612376Y-67520650D01*
X167474060Y-67520650D01*
X167474060Y-67208614D01*
X167543218Y-67208614D01*
X167584740Y-67210256D01*
X167606162Y-67216087D01*
X167612374Y-67227461D01*
X167612376Y-67227798D01*
X167615258Y-67238938D01*
X167627970Y-67237673D01*
X167653243Y-67225433D01*
X167712131Y-67206707D01*
X167778385Y-67204739D01*
X167841241Y-67219184D01*
D12*
G04 #@! TO.C,J1*
X153060000Y-69060000D02*
X152000000Y-69060000D01*
X153060000Y-68000000D02*
X153060000Y-69060000D01*
X153060000Y-67000000D02*
X150940000Y-67000000D01*
X150940000Y-67000000D02*
X150940000Y-60940000D01*
X153060000Y-67000000D02*
X153060000Y-60940000D01*
X153060000Y-60940000D02*
X150940000Y-60940000D01*
G04 #@! TO.C,U2*
X155164000Y-65690000D02*
X157614000Y-65690000D01*
X156964000Y-62470000D02*
X155164000Y-62470000D01*
G04 #@! TO.C,C2*
X162108000Y-66790922D02*
X162108000Y-67308078D01*
X160688000Y-66790922D02*
X160688000Y-67308078D01*
G04 #@! TO.C,C1*
X158044000Y-67709922D02*
X158044000Y-68227078D01*
X156624000Y-67709922D02*
X156624000Y-68227078D01*
D13*
G04 #@! TO.C,AS5600*
X159475000Y-63075000D02*
X159475000Y-64475000D01*
X164575000Y-63075000D02*
X164575000Y-58925000D01*
X159425000Y-63075000D02*
X159425000Y-58925000D01*
X164575000Y-63075000D02*
X164430000Y-63075000D01*
X164575000Y-58925000D02*
X164430000Y-58925000D01*
X159425000Y-58925000D02*
X159570000Y-58925000D01*
X159425000Y-63075000D02*
X159475000Y-63075000D01*
G04 #@! TO.C,U2*
D10*
X154057142Y-61771428D02*
X154057142Y-61171428D01*
X154257142Y-61600000D01*
X154457142Y-61171428D01*
X154457142Y-61771428D01*
X155085714Y-61714285D02*
X155057142Y-61742857D01*
X154971428Y-61771428D01*
X154914285Y-61771428D01*
X154828571Y-61742857D01*
X154771428Y-61685714D01*
X154742857Y-61628571D01*
X154714285Y-61514285D01*
X154714285Y-61428571D01*
X154742857Y-61314285D01*
X154771428Y-61257142D01*
X154828571Y-61200000D01*
X154914285Y-61171428D01*
X154971428Y-61171428D01*
X155057142Y-61200000D01*
X155085714Y-61228571D01*
X155342857Y-61771428D02*
X155342857Y-61171428D01*
X155571428Y-61171428D01*
X155628571Y-61200000D01*
X155657142Y-61228571D01*
X155685714Y-61285714D01*
X155685714Y-61371428D01*
X155657142Y-61428571D01*
X155628571Y-61457142D01*
X155571428Y-61485714D01*
X155342857Y-61485714D01*
X155885714Y-61171428D02*
X156257142Y-61171428D01*
X156057142Y-61400000D01*
X156142857Y-61400000D01*
X156200000Y-61428571D01*
X156228571Y-61457142D01*
X156257142Y-61514285D01*
X156257142Y-61657142D01*
X156228571Y-61714285D01*
X156200000Y-61742857D01*
X156142857Y-61771428D01*
X155971428Y-61771428D01*
X155914285Y-61742857D01*
X155885714Y-61714285D01*
X156485714Y-61228571D02*
X156514285Y-61200000D01*
X156571428Y-61171428D01*
X156714285Y-61171428D01*
X156771428Y-61200000D01*
X156800000Y-61228571D01*
X156828571Y-61285714D01*
X156828571Y-61342857D01*
X156800000Y-61428571D01*
X156457142Y-61771428D01*
X156828571Y-61771428D01*
X157057142Y-61228571D02*
X157085714Y-61200000D01*
X157142857Y-61171428D01*
X157285714Y-61171428D01*
X157342857Y-61200000D01*
X157371428Y-61228571D01*
X157400000Y-61285714D01*
X157400000Y-61342857D01*
X157371428Y-61428571D01*
X157028571Y-61771428D01*
X157400000Y-61771428D01*
X157971428Y-61771428D02*
X157628571Y-61771428D01*
X157800000Y-61771428D02*
X157800000Y-61171428D01*
X157742857Y-61257142D01*
X157685714Y-61314285D01*
X157628571Y-61342857D01*
G04 #@! TO.C,C2*
D14*
X161100380Y-69476190D02*
X160814666Y-69476190D01*
X160957523Y-69476190D02*
X160957523Y-68976190D01*
X160909904Y-69047619D01*
X160862285Y-69095238D01*
X160814666Y-69119047D01*
X161528952Y-69142857D02*
X161528952Y-69476190D01*
X161314666Y-69142857D02*
X161314666Y-69404761D01*
X161338476Y-69452380D01*
X161386095Y-69476190D01*
X161457523Y-69476190D01*
X161505142Y-69452380D01*
X161528952Y-69428571D01*
X161933714Y-69214285D02*
X161767047Y-69214285D01*
X161767047Y-69476190D02*
X161767047Y-68976190D01*
X162005142Y-68976190D01*
G04 #@! TO.C,C1*
X156476190Y-70476190D02*
X156190476Y-70476190D01*
X156333333Y-70476190D02*
X156333333Y-69976190D01*
X156285714Y-70047619D01*
X156238095Y-70095238D01*
X156190476Y-70119047D01*
X156785714Y-69976190D02*
X156833333Y-69976190D01*
X156880952Y-70000000D01*
X156904761Y-70023809D01*
X156928571Y-70071428D01*
X156952380Y-70166666D01*
X156952380Y-70285714D01*
X156928571Y-70380952D01*
X156904761Y-70428571D01*
X156880952Y-70452380D01*
X156833333Y-70476190D01*
X156785714Y-70476190D01*
X156738095Y-70452380D01*
X156714285Y-70428571D01*
X156690476Y-70380952D01*
X156666666Y-70285714D01*
X156666666Y-70166666D01*
X156690476Y-70071428D01*
X156714285Y-70023809D01*
X156738095Y-70000000D01*
X156785714Y-69976190D01*
X157261904Y-69976190D02*
X157309523Y-69976190D01*
X157357142Y-70000000D01*
X157380952Y-70023809D01*
X157404761Y-70071428D01*
X157428571Y-70166666D01*
X157428571Y-70285714D01*
X157404761Y-70380952D01*
X157380952Y-70428571D01*
X157357142Y-70452380D01*
X157309523Y-70476190D01*
X157261904Y-70476190D01*
X157214285Y-70452380D01*
X157190476Y-70428571D01*
X157166666Y-70380952D01*
X157142857Y-70285714D01*
X157142857Y-70166666D01*
X157166666Y-70071428D01*
X157190476Y-70023809D01*
X157214285Y-70000000D01*
X157261904Y-69976190D01*
X157642857Y-70142857D02*
X157642857Y-70476190D01*
X157642857Y-70190476D02*
X157666666Y-70166666D01*
X157714285Y-70142857D01*
X157785714Y-70142857D01*
X157833333Y-70166666D01*
X157857142Y-70214285D01*
X157857142Y-70476190D01*
X158261904Y-70214285D02*
X158095238Y-70214285D01*
X158095238Y-70476190D02*
X158095238Y-69976190D01*
X158333333Y-69976190D01*
G04 #@! TO.C,AS5600*
D15*
X154057142Y-71666666D02*
X154438095Y-71666666D01*
X153980952Y-71952380D02*
X154247619Y-70952380D01*
X154514285Y-71952380D01*
X154742857Y-71904761D02*
X154857142Y-71952380D01*
X155047619Y-71952380D01*
X155123809Y-71904761D01*
X155161904Y-71857142D01*
X155200000Y-71761904D01*
X155200000Y-71666666D01*
X155161904Y-71571428D01*
X155123809Y-71523809D01*
X155047619Y-71476190D01*
X154895238Y-71428571D01*
X154819047Y-71380952D01*
X154780952Y-71333333D01*
X154742857Y-71238095D01*
X154742857Y-71142857D01*
X154780952Y-71047619D01*
X154819047Y-71000000D01*
X154895238Y-70952380D01*
X155085714Y-70952380D01*
X155200000Y-71000000D01*
X155923809Y-70952380D02*
X155542857Y-70952380D01*
X155504761Y-71428571D01*
X155542857Y-71380952D01*
X155619047Y-71333333D01*
X155809523Y-71333333D01*
X155885714Y-71380952D01*
X155923809Y-71428571D01*
X155961904Y-71523809D01*
X155961904Y-71761904D01*
X155923809Y-71857142D01*
X155885714Y-71904761D01*
X155809523Y-71952380D01*
X155619047Y-71952380D01*
X155542857Y-71904761D01*
X155504761Y-71857142D01*
X156647619Y-70952380D02*
X156495238Y-70952380D01*
X156419047Y-71000000D01*
X156380952Y-71047619D01*
X156304761Y-71190476D01*
X156266666Y-71380952D01*
X156266666Y-71761904D01*
X156304761Y-71857142D01*
X156342857Y-71904761D01*
X156419047Y-71952380D01*
X156571428Y-71952380D01*
X156647619Y-71904761D01*
X156685714Y-71857142D01*
X156723809Y-71761904D01*
X156723809Y-71523809D01*
X156685714Y-71428571D01*
X156647619Y-71380952D01*
X156571428Y-71333333D01*
X156419047Y-71333333D01*
X156342857Y-71380952D01*
X156304761Y-71428571D01*
X156266666Y-71523809D01*
X157219047Y-70952380D02*
X157295238Y-70952380D01*
X157371428Y-71000000D01*
X157409523Y-71047619D01*
X157447619Y-71142857D01*
X157485714Y-71333333D01*
X157485714Y-71571428D01*
X157447619Y-71761904D01*
X157409523Y-71857142D01*
X157371428Y-71904761D01*
X157295238Y-71952380D01*
X157219047Y-71952380D01*
X157142857Y-71904761D01*
X157104761Y-71857142D01*
X157066666Y-71761904D01*
X157028571Y-71571428D01*
X157028571Y-71333333D01*
X157066666Y-71142857D01*
X157104761Y-71047619D01*
X157142857Y-71000000D01*
X157219047Y-70952380D01*
X157980952Y-70952380D02*
X158057142Y-70952380D01*
X158133333Y-71000000D01*
X158171428Y-71047619D01*
X158209523Y-71142857D01*
X158247619Y-71333333D01*
X158247619Y-71571428D01*
X158209523Y-71761904D01*
X158171428Y-71857142D01*
X158133333Y-71904761D01*
X158057142Y-71952380D01*
X157980952Y-71952380D01*
X157904761Y-71904761D01*
X157866666Y-71857142D01*
X157828571Y-71761904D01*
X157790476Y-71571428D01*
X157790476Y-71333333D01*
X157828571Y-71142857D01*
X157866666Y-71047619D01*
X157904761Y-71000000D01*
X157980952Y-70952380D01*
X158400000Y-72047619D02*
X159009523Y-72047619D01*
X159161904Y-71666666D02*
X159542857Y-71666666D01*
X159085714Y-71952380D02*
X159352380Y-70952380D01*
X159619047Y-71952380D01*
X159885714Y-71952380D02*
X159885714Y-70952380D01*
X160342857Y-71952380D01*
X160342857Y-70952380D01*
X160685714Y-71666666D02*
X161066666Y-71666666D01*
X160609523Y-71952380D02*
X160876190Y-70952380D01*
X161142857Y-71952380D01*
X161790476Y-71952380D02*
X161409523Y-71952380D01*
X161409523Y-70952380D01*
X162209523Y-70952380D02*
X162361904Y-70952380D01*
X162438095Y-71000000D01*
X162514285Y-71095238D01*
X162552380Y-71285714D01*
X162552380Y-71619047D01*
X162514285Y-71809523D01*
X162438095Y-71904761D01*
X162361904Y-71952380D01*
X162209523Y-71952380D01*
X162133333Y-71904761D01*
X162057142Y-71809523D01*
X162019047Y-71619047D01*
X162019047Y-71285714D01*
X162057142Y-71095238D01*
X162133333Y-71000000D01*
X162209523Y-70952380D01*
X163314285Y-71000000D02*
X163238095Y-70952380D01*
X163123809Y-70952380D01*
X163009523Y-71000000D01*
X162933333Y-71095238D01*
X162895238Y-71190476D01*
X162857142Y-71380952D01*
X162857142Y-71523809D01*
X162895238Y-71714285D01*
X162933333Y-71809523D01*
X163009523Y-71904761D01*
X163123809Y-71952380D01*
X163200000Y-71952380D01*
X163314285Y-71904761D01*
X163352380Y-71857142D01*
X163352380Y-71523809D01*
X163200000Y-71523809D01*
X163504761Y-72047619D02*
X164114285Y-72047619D01*
X164190476Y-70952380D02*
X164647619Y-70952380D01*
X164419047Y-71952380D02*
X164419047Y-70952380D01*
X165066666Y-70952380D02*
X165219047Y-70952380D01*
X165295238Y-71000000D01*
X165371428Y-71095238D01*
X165409523Y-71285714D01*
X165409523Y-71619047D01*
X165371428Y-71809523D01*
X165295238Y-71904761D01*
X165219047Y-71952380D01*
X165066666Y-71952380D01*
X164990476Y-71904761D01*
X164914285Y-71809523D01*
X164876190Y-71619047D01*
X164876190Y-71285714D01*
X164914285Y-71095238D01*
X164990476Y-71000000D01*
X165066666Y-70952380D01*
X165561904Y-72047619D02*
X166171428Y-72047619D01*
X166361904Y-71952380D02*
X166361904Y-70952380D01*
X166704761Y-71047619D02*
X166742857Y-71000000D01*
X166819047Y-70952380D01*
X167009523Y-70952380D01*
X167085714Y-71000000D01*
X167123809Y-71047619D01*
X167161904Y-71142857D01*
X167161904Y-71238095D01*
X167123809Y-71380952D01*
X166666666Y-71952380D01*
X167161904Y-71952380D01*
X167961904Y-71857142D02*
X167923809Y-71904761D01*
X167809523Y-71952380D01*
X167733333Y-71952380D01*
X167619047Y-71904761D01*
X167542857Y-71809523D01*
X167504761Y-71714285D01*
X167466666Y-71523809D01*
X167466666Y-71380952D01*
X167504761Y-71190476D01*
X167542857Y-71095238D01*
X167619047Y-71000000D01*
X167733333Y-70952380D01*
X167809523Y-70952380D01*
X167923809Y-71000000D01*
X167961904Y-71047619D01*
X168114285Y-72047619D02*
X168723809Y-72047619D01*
X168838095Y-71285714D02*
X169028571Y-71952380D01*
X169219047Y-71285714D01*
X169942857Y-71952380D02*
X169485714Y-71952380D01*
X169714285Y-71952380D02*
X169714285Y-70952380D01*
X169638095Y-71095238D01*
X169561904Y-71190476D01*
X169485714Y-71238095D01*
D13*
X166166666Y-63619047D02*
X166166666Y-63142857D01*
X166452380Y-63714285D02*
X165452380Y-63380952D01*
X166452380Y-63047619D01*
X166404761Y-62761904D02*
X166452380Y-62619047D01*
X166452380Y-62380952D01*
X166404761Y-62285714D01*
X166357142Y-62238095D01*
X166261904Y-62190476D01*
X166166666Y-62190476D01*
X166071428Y-62238095D01*
X166023809Y-62285714D01*
X165976190Y-62380952D01*
X165928571Y-62571428D01*
X165880952Y-62666666D01*
X165833333Y-62714285D01*
X165738095Y-62761904D01*
X165642857Y-62761904D01*
X165547619Y-62714285D01*
X165500000Y-62666666D01*
X165452380Y-62571428D01*
X165452380Y-62333333D01*
X165500000Y-62190476D01*
X165452380Y-61285714D02*
X165452380Y-61761904D01*
X165928571Y-61809523D01*
X165880952Y-61761904D01*
X165833333Y-61666666D01*
X165833333Y-61428571D01*
X165880952Y-61333333D01*
X165928571Y-61285714D01*
X166023809Y-61238095D01*
X166261904Y-61238095D01*
X166357142Y-61285714D01*
X166404761Y-61333333D01*
X166452380Y-61428571D01*
X166452380Y-61666666D01*
X166404761Y-61761904D01*
X166357142Y-61809523D01*
X165452380Y-60380952D02*
X165452380Y-60571428D01*
X165500000Y-60666666D01*
X165547619Y-60714285D01*
X165690476Y-60809523D01*
X165880952Y-60857142D01*
X166261904Y-60857142D01*
X166357142Y-60809523D01*
X166404761Y-60761904D01*
X166452380Y-60666666D01*
X166452380Y-60476190D01*
X166404761Y-60380952D01*
X166357142Y-60333333D01*
X166261904Y-60285714D01*
X166023809Y-60285714D01*
X165928571Y-60333333D01*
X165880952Y-60380952D01*
X165833333Y-60476190D01*
X165833333Y-60666666D01*
X165880952Y-60761904D01*
X165928571Y-60809523D01*
X166023809Y-60857142D01*
X165452380Y-59666666D02*
X165452380Y-59571428D01*
X165500000Y-59476190D01*
X165547619Y-59428571D01*
X165642857Y-59380952D01*
X165833333Y-59333333D01*
X166071428Y-59333333D01*
X166261904Y-59380952D01*
X166357142Y-59428571D01*
X166404761Y-59476190D01*
X166452380Y-59571428D01*
X166452380Y-59666666D01*
X166404761Y-59761904D01*
X166357142Y-59809523D01*
X166261904Y-59857142D01*
X166071428Y-59904761D01*
X165833333Y-59904761D01*
X165642857Y-59857142D01*
X165547619Y-59809523D01*
X165500000Y-59761904D01*
X165452380Y-59666666D01*
X165452380Y-58714285D02*
X165452380Y-58619047D01*
X165500000Y-58523809D01*
X165547619Y-58476190D01*
X165642857Y-58428571D01*
X165833333Y-58380952D01*
X166071428Y-58380952D01*
X166261904Y-58428571D01*
X166357142Y-58476190D01*
X166404761Y-58523809D01*
X166452380Y-58619047D01*
X166452380Y-58714285D01*
X166404761Y-58809523D01*
X166357142Y-58857142D01*
X166261904Y-58904761D01*
X166071428Y-58952380D01*
X165833333Y-58952380D01*
X165642857Y-58904761D01*
X165547619Y-58857142D01*
X165500000Y-58809523D01*
X165452380Y-58714285D01*
G04 #@! TD*
M02*
