G04 #@! TF.GenerationSoftware,KiCad,Pcbnew,(5.0.0)*
G04 #@! TF.CreationDate,2019-02-28T23:25:29+00:00*
G04 #@! TF.ProjectId,AS5600_I2C_v1,4153353630305F4932435F76312E6B69,rev?*
G04 #@! TF.SameCoordinates,Original*
G04 #@! TF.FileFunction,Copper,L1,Top,Signal*
G04 #@! TF.FilePolarity,Positive*
%FSLAX46Y46*%
G04 Gerber Fmt 4.6, Leading zero omitted, Abs format (unit mm)*
G04 Created by KiCad (PCBNEW (5.0.0)) date 02/28/19 23:25:29*
%MOMM*%
%LPD*%
G01*
G04 APERTURE LIST*
G04 #@! TA.AperFunction,ComponentPad*
%ADD10O,1.350000X1.350000*%
G04 #@! TD*
G04 #@! TA.AperFunction,ComponentPad*
%ADD11R,1.350000X1.350000*%
G04 #@! TD*
G04 #@! TA.AperFunction,WasherPad*
%ADD12C,2.900000*%
G04 #@! TD*
G04 #@! TA.AperFunction,SMDPad,CuDef*
%ADD13R,1.560000X0.650000*%
G04 #@! TD*
G04 #@! TA.AperFunction,Conductor*
%ADD14C,0.100000*%
G04 #@! TD*
G04 #@! TA.AperFunction,SMDPad,CuDef*
%ADD15C,0.975000*%
G04 #@! TD*
G04 #@! TA.AperFunction,SMDPad,CuDef*
%ADD16R,0.600000X1.550000*%
G04 #@! TD*
G04 #@! TA.AperFunction,Conductor*
%ADD17C,0.400000*%
G04 #@! TD*
G04 #@! TA.AperFunction,Conductor*
%ADD18C,0.250000*%
G04 #@! TD*
G04 APERTURE END LIST*
D10*
G04 #@! TO.P,J1,4*
G04 #@! TO.N,SDA*
X152000000Y-63000000D03*
G04 #@! TO.P,J1,3*
G04 #@! TO.N,SCL*
X152000000Y-65000000D03*
G04 #@! TO.P,J1,2*
G04 #@! TO.N,+5V*
X152000000Y-67000000D03*
D11*
G04 #@! TO.P,J1,1*
G04 #@! TO.N,GND*
X152000000Y-69000000D03*
G04 #@! TD*
D12*
G04 #@! TO.P,2.5mm ,*
G04 #@! TO.N,*
X152000000Y-59000000D03*
G04 #@! TD*
G04 #@! TO.P,2.5mm ,*
G04 #@! TO.N,*
X172000000Y-59000000D03*
G04 #@! TD*
D13*
G04 #@! TO.P,U2,5*
G04 #@! TO.N,SCL*
X154714000Y-65030000D03*
G04 #@! TO.P,U2,4*
G04 #@! TO.N,SDA*
X154714000Y-63130000D03*
G04 #@! TO.P,U2,3*
G04 #@! TO.N,ANALOG*
X157414000Y-63130000D03*
G04 #@! TO.P,U2,2*
G04 #@! TO.N,GND*
X157414000Y-64080000D03*
G04 #@! TO.P,U2,1*
G04 #@! TO.N,+5V*
X157414000Y-65030000D03*
G04 #@! TD*
D14*
G04 #@! TO.N,Net-(C2-Pad1)*
G04 #@! TO.C,C2*
G36*
X161878142Y-65625674D02*
X161901803Y-65629184D01*
X161925007Y-65634996D01*
X161947529Y-65643054D01*
X161969153Y-65653282D01*
X161989670Y-65665579D01*
X162008883Y-65679829D01*
X162026607Y-65695893D01*
X162042671Y-65713617D01*
X162056921Y-65732830D01*
X162069218Y-65753347D01*
X162079446Y-65774971D01*
X162087504Y-65797493D01*
X162093316Y-65820697D01*
X162096826Y-65844358D01*
X162098000Y-65868250D01*
X162098000Y-66355750D01*
X162096826Y-66379642D01*
X162093316Y-66403303D01*
X162087504Y-66426507D01*
X162079446Y-66449029D01*
X162069218Y-66470653D01*
X162056921Y-66491170D01*
X162042671Y-66510383D01*
X162026607Y-66528107D01*
X162008883Y-66544171D01*
X161989670Y-66558421D01*
X161969153Y-66570718D01*
X161947529Y-66580946D01*
X161925007Y-66589004D01*
X161901803Y-66594816D01*
X161878142Y-66598326D01*
X161854250Y-66599500D01*
X160941750Y-66599500D01*
X160917858Y-66598326D01*
X160894197Y-66594816D01*
X160870993Y-66589004D01*
X160848471Y-66580946D01*
X160826847Y-66570718D01*
X160806330Y-66558421D01*
X160787117Y-66544171D01*
X160769393Y-66528107D01*
X160753329Y-66510383D01*
X160739079Y-66491170D01*
X160726782Y-66470653D01*
X160716554Y-66449029D01*
X160708496Y-66426507D01*
X160702684Y-66403303D01*
X160699174Y-66379642D01*
X160698000Y-66355750D01*
X160698000Y-65868250D01*
X160699174Y-65844358D01*
X160702684Y-65820697D01*
X160708496Y-65797493D01*
X160716554Y-65774971D01*
X160726782Y-65753347D01*
X160739079Y-65732830D01*
X160753329Y-65713617D01*
X160769393Y-65695893D01*
X160787117Y-65679829D01*
X160806330Y-65665579D01*
X160826847Y-65653282D01*
X160848471Y-65643054D01*
X160870993Y-65634996D01*
X160894197Y-65629184D01*
X160917858Y-65625674D01*
X160941750Y-65624500D01*
X161854250Y-65624500D01*
X161878142Y-65625674D01*
X161878142Y-65625674D01*
G37*
D15*
G04 #@! TD*
G04 #@! TO.P,C2,1*
G04 #@! TO.N,Net-(C2-Pad1)*
X161398000Y-66112000D03*
D14*
G04 #@! TO.N,GND*
G04 #@! TO.C,C2*
G36*
X161878142Y-67500674D02*
X161901803Y-67504184D01*
X161925007Y-67509996D01*
X161947529Y-67518054D01*
X161969153Y-67528282D01*
X161989670Y-67540579D01*
X162008883Y-67554829D01*
X162026607Y-67570893D01*
X162042671Y-67588617D01*
X162056921Y-67607830D01*
X162069218Y-67628347D01*
X162079446Y-67649971D01*
X162087504Y-67672493D01*
X162093316Y-67695697D01*
X162096826Y-67719358D01*
X162098000Y-67743250D01*
X162098000Y-68230750D01*
X162096826Y-68254642D01*
X162093316Y-68278303D01*
X162087504Y-68301507D01*
X162079446Y-68324029D01*
X162069218Y-68345653D01*
X162056921Y-68366170D01*
X162042671Y-68385383D01*
X162026607Y-68403107D01*
X162008883Y-68419171D01*
X161989670Y-68433421D01*
X161969153Y-68445718D01*
X161947529Y-68455946D01*
X161925007Y-68464004D01*
X161901803Y-68469816D01*
X161878142Y-68473326D01*
X161854250Y-68474500D01*
X160941750Y-68474500D01*
X160917858Y-68473326D01*
X160894197Y-68469816D01*
X160870993Y-68464004D01*
X160848471Y-68455946D01*
X160826847Y-68445718D01*
X160806330Y-68433421D01*
X160787117Y-68419171D01*
X160769393Y-68403107D01*
X160753329Y-68385383D01*
X160739079Y-68366170D01*
X160726782Y-68345653D01*
X160716554Y-68324029D01*
X160708496Y-68301507D01*
X160702684Y-68278303D01*
X160699174Y-68254642D01*
X160698000Y-68230750D01*
X160698000Y-67743250D01*
X160699174Y-67719358D01*
X160702684Y-67695697D01*
X160708496Y-67672493D01*
X160716554Y-67649971D01*
X160726782Y-67628347D01*
X160739079Y-67607830D01*
X160753329Y-67588617D01*
X160769393Y-67570893D01*
X160787117Y-67554829D01*
X160806330Y-67540579D01*
X160826847Y-67528282D01*
X160848471Y-67518054D01*
X160870993Y-67509996D01*
X160894197Y-67504184D01*
X160917858Y-67500674D01*
X160941750Y-67499500D01*
X161854250Y-67499500D01*
X161878142Y-67500674D01*
X161878142Y-67500674D01*
G37*
D15*
G04 #@! TD*
G04 #@! TO.P,C2,2*
G04 #@! TO.N,GND*
X161398000Y-67987000D03*
D14*
G04 #@! TO.N,+5V*
G04 #@! TO.C,C1*
G36*
X157814142Y-66544674D02*
X157837803Y-66548184D01*
X157861007Y-66553996D01*
X157883529Y-66562054D01*
X157905153Y-66572282D01*
X157925670Y-66584579D01*
X157944883Y-66598829D01*
X157962607Y-66614893D01*
X157978671Y-66632617D01*
X157992921Y-66651830D01*
X158005218Y-66672347D01*
X158015446Y-66693971D01*
X158023504Y-66716493D01*
X158029316Y-66739697D01*
X158032826Y-66763358D01*
X158034000Y-66787250D01*
X158034000Y-67274750D01*
X158032826Y-67298642D01*
X158029316Y-67322303D01*
X158023504Y-67345507D01*
X158015446Y-67368029D01*
X158005218Y-67389653D01*
X157992921Y-67410170D01*
X157978671Y-67429383D01*
X157962607Y-67447107D01*
X157944883Y-67463171D01*
X157925670Y-67477421D01*
X157905153Y-67489718D01*
X157883529Y-67499946D01*
X157861007Y-67508004D01*
X157837803Y-67513816D01*
X157814142Y-67517326D01*
X157790250Y-67518500D01*
X156877750Y-67518500D01*
X156853858Y-67517326D01*
X156830197Y-67513816D01*
X156806993Y-67508004D01*
X156784471Y-67499946D01*
X156762847Y-67489718D01*
X156742330Y-67477421D01*
X156723117Y-67463171D01*
X156705393Y-67447107D01*
X156689329Y-67429383D01*
X156675079Y-67410170D01*
X156662782Y-67389653D01*
X156652554Y-67368029D01*
X156644496Y-67345507D01*
X156638684Y-67322303D01*
X156635174Y-67298642D01*
X156634000Y-67274750D01*
X156634000Y-66787250D01*
X156635174Y-66763358D01*
X156638684Y-66739697D01*
X156644496Y-66716493D01*
X156652554Y-66693971D01*
X156662782Y-66672347D01*
X156675079Y-66651830D01*
X156689329Y-66632617D01*
X156705393Y-66614893D01*
X156723117Y-66598829D01*
X156742330Y-66584579D01*
X156762847Y-66572282D01*
X156784471Y-66562054D01*
X156806993Y-66553996D01*
X156830197Y-66548184D01*
X156853858Y-66544674D01*
X156877750Y-66543500D01*
X157790250Y-66543500D01*
X157814142Y-66544674D01*
X157814142Y-66544674D01*
G37*
D15*
G04 #@! TD*
G04 #@! TO.P,C1,1*
G04 #@! TO.N,+5V*
X157334000Y-67031000D03*
D14*
G04 #@! TO.N,GND*
G04 #@! TO.C,C1*
G36*
X157814142Y-68419674D02*
X157837803Y-68423184D01*
X157861007Y-68428996D01*
X157883529Y-68437054D01*
X157905153Y-68447282D01*
X157925670Y-68459579D01*
X157944883Y-68473829D01*
X157962607Y-68489893D01*
X157978671Y-68507617D01*
X157992921Y-68526830D01*
X158005218Y-68547347D01*
X158015446Y-68568971D01*
X158023504Y-68591493D01*
X158029316Y-68614697D01*
X158032826Y-68638358D01*
X158034000Y-68662250D01*
X158034000Y-69149750D01*
X158032826Y-69173642D01*
X158029316Y-69197303D01*
X158023504Y-69220507D01*
X158015446Y-69243029D01*
X158005218Y-69264653D01*
X157992921Y-69285170D01*
X157978671Y-69304383D01*
X157962607Y-69322107D01*
X157944883Y-69338171D01*
X157925670Y-69352421D01*
X157905153Y-69364718D01*
X157883529Y-69374946D01*
X157861007Y-69383004D01*
X157837803Y-69388816D01*
X157814142Y-69392326D01*
X157790250Y-69393500D01*
X156877750Y-69393500D01*
X156853858Y-69392326D01*
X156830197Y-69388816D01*
X156806993Y-69383004D01*
X156784471Y-69374946D01*
X156762847Y-69364718D01*
X156742330Y-69352421D01*
X156723117Y-69338171D01*
X156705393Y-69322107D01*
X156689329Y-69304383D01*
X156675079Y-69285170D01*
X156662782Y-69264653D01*
X156652554Y-69243029D01*
X156644496Y-69220507D01*
X156638684Y-69197303D01*
X156635174Y-69173642D01*
X156634000Y-69149750D01*
X156634000Y-68662250D01*
X156635174Y-68638358D01*
X156638684Y-68614697D01*
X156644496Y-68591493D01*
X156652554Y-68568971D01*
X156662782Y-68547347D01*
X156675079Y-68526830D01*
X156689329Y-68507617D01*
X156705393Y-68489893D01*
X156723117Y-68473829D01*
X156742330Y-68459579D01*
X156762847Y-68447282D01*
X156784471Y-68437054D01*
X156806993Y-68428996D01*
X156830197Y-68423184D01*
X156853858Y-68419674D01*
X156877750Y-68418500D01*
X157790250Y-68418500D01*
X157814142Y-68419674D01*
X157814142Y-68419674D01*
G37*
D15*
G04 #@! TD*
G04 #@! TO.P,C1,2*
G04 #@! TO.N,GND*
X157334000Y-68906000D03*
D16*
G04 #@! TO.P,AS5600,8*
G04 #@! TO.N,GND*
X160095000Y-58300000D03*
G04 #@! TO.P,AS5600,7*
G04 #@! TO.N,N/C*
X161365000Y-58300000D03*
G04 #@! TO.P,AS5600,6*
X162635000Y-58300000D03*
G04 #@! TO.P,AS5600,5*
X163905000Y-58300000D03*
G04 #@! TO.P,AS5600,4*
G04 #@! TO.N,GND*
X163905000Y-63700000D03*
G04 #@! TO.P,AS5600,3*
G04 #@! TO.N,ANALOG*
X162635000Y-63700000D03*
G04 #@! TO.P,AS5600,2*
G04 #@! TO.N,Net-(C2-Pad1)*
X161365000Y-63700000D03*
G04 #@! TO.P,AS5600,1*
G04 #@! TO.N,+5V*
X160095000Y-63700000D03*
G04 #@! TD*
D12*
G04 #@! TO.P,2.5mm ,*
G04 #@! TO.N,*
X172000000Y-73000000D03*
G04 #@! TD*
G04 #@! TO.P,2.5mm ,*
G04 #@! TO.N,*
X152000000Y-73000000D03*
G04 #@! TD*
D17*
G04 #@! TO.N,+5V*
X158970000Y-65030000D02*
X157414000Y-65030000D01*
X160095000Y-63700000D02*
X160095000Y-63905000D01*
X160095000Y-63905000D02*
X158970000Y-65030000D01*
X157303000Y-67000000D02*
X157334000Y-67031000D01*
X152000000Y-67000000D02*
X157303000Y-67000000D01*
X157334000Y-65110000D02*
X157414000Y-65030000D01*
X157334000Y-67031000D02*
X157334000Y-65110000D01*
G04 #@! TO.N,Net-(C2-Pad1)*
X161398000Y-63733000D02*
X161365000Y-63700000D01*
X161398000Y-66112000D02*
X161398000Y-63733000D01*
D18*
G04 #@! TO.N,SDA*
X154584000Y-63000000D02*
X154714000Y-63130000D01*
X152000000Y-63000000D02*
X154584000Y-63000000D01*
G04 #@! TO.N,SCL*
X152030000Y-65030000D02*
X152000000Y-65000000D01*
X154714000Y-65030000D02*
X152030000Y-65030000D01*
G04 #@! TO.N,ANALOG*
X162635000Y-62635000D02*
X162635000Y-63700000D01*
X162000000Y-62000000D02*
X162635000Y-62635000D01*
X158999000Y-62000000D02*
X162000000Y-62000000D01*
X157414000Y-63130000D02*
X157869000Y-63130000D01*
X157869000Y-63130000D02*
X158999000Y-62000000D01*
G04 #@! TD*
M02*
