G04 #@! TF.GenerationSoftware,KiCad,Pcbnew,(5.0.0)*
G04 #@! TF.CreationDate,2019-03-01T21:50:28+00:00*
G04 #@! TF.ProjectId,AS5600_I2C_v1,4153353630305F4932435F76312E6B69,rev?*
G04 #@! TF.SameCoordinates,Original*
G04 #@! TF.FileFunction,Soldermask,Top*
G04 #@! TF.FilePolarity,Negative*
%FSLAX46Y46*%
G04 Gerber Fmt 4.6, Leading zero omitted, Abs format (unit mm)*
G04 Created by KiCad (PCBNEW (5.0.0)) date 03/01/19 21:50:28*
%MOMM*%
%LPD*%
G01*
G04 APERTURE LIST*
%ADD10C,3.300000*%
%ADD11O,1.750000X1.750000*%
%ADD12R,1.750000X1.750000*%
%ADD13R,1.960000X1.050000*%
%ADD14C,0.100000*%
%ADD15C,1.375000*%
%ADD16R,1.000000X1.950000*%
G04 APERTURE END LIST*
D10*
G04 #@! TO.C,2.5mm *
X172000000Y-59000000D03*
G04 #@! TD*
D11*
G04 #@! TO.C,J1*
X152000000Y-62500000D03*
X152000000Y-64500000D03*
X152000000Y-66500000D03*
D12*
X152000000Y-68500000D03*
G04 #@! TD*
D10*
G04 #@! TO.C,2.5mm *
X152000000Y-59000000D03*
G04 #@! TD*
D13*
G04 #@! TO.C,U2*
X154714000Y-65530000D03*
X154714000Y-63630000D03*
X157414000Y-63630000D03*
X157414000Y-64580000D03*
X157414000Y-65530000D03*
G04 #@! TD*
D14*
G04 #@! TO.C,C2*
G36*
X161987943Y-65926155D02*
X162021312Y-65931105D01*
X162054035Y-65939302D01*
X162085797Y-65950666D01*
X162116293Y-65965090D01*
X162145227Y-65982432D01*
X162172323Y-66002528D01*
X162197318Y-66025182D01*
X162219972Y-66050177D01*
X162240068Y-66077273D01*
X162257410Y-66106207D01*
X162271834Y-66136703D01*
X162283198Y-66168465D01*
X162291395Y-66201188D01*
X162296345Y-66234557D01*
X162298000Y-66268250D01*
X162298000Y-66955750D01*
X162296345Y-66989443D01*
X162291395Y-67022812D01*
X162283198Y-67055535D01*
X162271834Y-67087297D01*
X162257410Y-67117793D01*
X162240068Y-67146727D01*
X162219972Y-67173823D01*
X162197318Y-67198818D01*
X162172323Y-67221472D01*
X162145227Y-67241568D01*
X162116293Y-67258910D01*
X162085797Y-67273334D01*
X162054035Y-67284698D01*
X162021312Y-67292895D01*
X161987943Y-67297845D01*
X161954250Y-67299500D01*
X160841750Y-67299500D01*
X160808057Y-67297845D01*
X160774688Y-67292895D01*
X160741965Y-67284698D01*
X160710203Y-67273334D01*
X160679707Y-67258910D01*
X160650773Y-67241568D01*
X160623677Y-67221472D01*
X160598682Y-67198818D01*
X160576028Y-67173823D01*
X160555932Y-67146727D01*
X160538590Y-67117793D01*
X160524166Y-67087297D01*
X160512802Y-67055535D01*
X160504605Y-67022812D01*
X160499655Y-66989443D01*
X160498000Y-66955750D01*
X160498000Y-66268250D01*
X160499655Y-66234557D01*
X160504605Y-66201188D01*
X160512802Y-66168465D01*
X160524166Y-66136703D01*
X160538590Y-66106207D01*
X160555932Y-66077273D01*
X160576028Y-66050177D01*
X160598682Y-66025182D01*
X160623677Y-66002528D01*
X160650773Y-65982432D01*
X160679707Y-65965090D01*
X160710203Y-65950666D01*
X160741965Y-65939302D01*
X160774688Y-65931105D01*
X160808057Y-65926155D01*
X160841750Y-65924500D01*
X161954250Y-65924500D01*
X161987943Y-65926155D01*
X161987943Y-65926155D01*
G37*
D15*
X161398000Y-66612000D03*
D14*
G36*
X161987943Y-67801155D02*
X162021312Y-67806105D01*
X162054035Y-67814302D01*
X162085797Y-67825666D01*
X162116293Y-67840090D01*
X162145227Y-67857432D01*
X162172323Y-67877528D01*
X162197318Y-67900182D01*
X162219972Y-67925177D01*
X162240068Y-67952273D01*
X162257410Y-67981207D01*
X162271834Y-68011703D01*
X162283198Y-68043465D01*
X162291395Y-68076188D01*
X162296345Y-68109557D01*
X162298000Y-68143250D01*
X162298000Y-68830750D01*
X162296345Y-68864443D01*
X162291395Y-68897812D01*
X162283198Y-68930535D01*
X162271834Y-68962297D01*
X162257410Y-68992793D01*
X162240068Y-69021727D01*
X162219972Y-69048823D01*
X162197318Y-69073818D01*
X162172323Y-69096472D01*
X162145227Y-69116568D01*
X162116293Y-69133910D01*
X162085797Y-69148334D01*
X162054035Y-69159698D01*
X162021312Y-69167895D01*
X161987943Y-69172845D01*
X161954250Y-69174500D01*
X160841750Y-69174500D01*
X160808057Y-69172845D01*
X160774688Y-69167895D01*
X160741965Y-69159698D01*
X160710203Y-69148334D01*
X160679707Y-69133910D01*
X160650773Y-69116568D01*
X160623677Y-69096472D01*
X160598682Y-69073818D01*
X160576028Y-69048823D01*
X160555932Y-69021727D01*
X160538590Y-68992793D01*
X160524166Y-68962297D01*
X160512802Y-68930535D01*
X160504605Y-68897812D01*
X160499655Y-68864443D01*
X160498000Y-68830750D01*
X160498000Y-68143250D01*
X160499655Y-68109557D01*
X160504605Y-68076188D01*
X160512802Y-68043465D01*
X160524166Y-68011703D01*
X160538590Y-67981207D01*
X160555932Y-67952273D01*
X160576028Y-67925177D01*
X160598682Y-67900182D01*
X160623677Y-67877528D01*
X160650773Y-67857432D01*
X160679707Y-67840090D01*
X160710203Y-67825666D01*
X160741965Y-67814302D01*
X160774688Y-67806105D01*
X160808057Y-67801155D01*
X160841750Y-67799500D01*
X161954250Y-67799500D01*
X161987943Y-67801155D01*
X161987943Y-67801155D01*
G37*
D15*
X161398000Y-68487000D03*
G04 #@! TD*
D14*
G04 #@! TO.C,C1*
G36*
X157923943Y-66845155D02*
X157957312Y-66850105D01*
X157990035Y-66858302D01*
X158021797Y-66869666D01*
X158052293Y-66884090D01*
X158081227Y-66901432D01*
X158108323Y-66921528D01*
X158133318Y-66944182D01*
X158155972Y-66969177D01*
X158176068Y-66996273D01*
X158193410Y-67025207D01*
X158207834Y-67055703D01*
X158219198Y-67087465D01*
X158227395Y-67120188D01*
X158232345Y-67153557D01*
X158234000Y-67187250D01*
X158234000Y-67874750D01*
X158232345Y-67908443D01*
X158227395Y-67941812D01*
X158219198Y-67974535D01*
X158207834Y-68006297D01*
X158193410Y-68036793D01*
X158176068Y-68065727D01*
X158155972Y-68092823D01*
X158133318Y-68117818D01*
X158108323Y-68140472D01*
X158081227Y-68160568D01*
X158052293Y-68177910D01*
X158021797Y-68192334D01*
X157990035Y-68203698D01*
X157957312Y-68211895D01*
X157923943Y-68216845D01*
X157890250Y-68218500D01*
X156777750Y-68218500D01*
X156744057Y-68216845D01*
X156710688Y-68211895D01*
X156677965Y-68203698D01*
X156646203Y-68192334D01*
X156615707Y-68177910D01*
X156586773Y-68160568D01*
X156559677Y-68140472D01*
X156534682Y-68117818D01*
X156512028Y-68092823D01*
X156491932Y-68065727D01*
X156474590Y-68036793D01*
X156460166Y-68006297D01*
X156448802Y-67974535D01*
X156440605Y-67941812D01*
X156435655Y-67908443D01*
X156434000Y-67874750D01*
X156434000Y-67187250D01*
X156435655Y-67153557D01*
X156440605Y-67120188D01*
X156448802Y-67087465D01*
X156460166Y-67055703D01*
X156474590Y-67025207D01*
X156491932Y-66996273D01*
X156512028Y-66969177D01*
X156534682Y-66944182D01*
X156559677Y-66921528D01*
X156586773Y-66901432D01*
X156615707Y-66884090D01*
X156646203Y-66869666D01*
X156677965Y-66858302D01*
X156710688Y-66850105D01*
X156744057Y-66845155D01*
X156777750Y-66843500D01*
X157890250Y-66843500D01*
X157923943Y-66845155D01*
X157923943Y-66845155D01*
G37*
D15*
X157334000Y-67531000D03*
D14*
G36*
X157923943Y-68720155D02*
X157957312Y-68725105D01*
X157990035Y-68733302D01*
X158021797Y-68744666D01*
X158052293Y-68759090D01*
X158081227Y-68776432D01*
X158108323Y-68796528D01*
X158133318Y-68819182D01*
X158155972Y-68844177D01*
X158176068Y-68871273D01*
X158193410Y-68900207D01*
X158207834Y-68930703D01*
X158219198Y-68962465D01*
X158227395Y-68995188D01*
X158232345Y-69028557D01*
X158234000Y-69062250D01*
X158234000Y-69749750D01*
X158232345Y-69783443D01*
X158227395Y-69816812D01*
X158219198Y-69849535D01*
X158207834Y-69881297D01*
X158193410Y-69911793D01*
X158176068Y-69940727D01*
X158155972Y-69967823D01*
X158133318Y-69992818D01*
X158108323Y-70015472D01*
X158081227Y-70035568D01*
X158052293Y-70052910D01*
X158021797Y-70067334D01*
X157990035Y-70078698D01*
X157957312Y-70086895D01*
X157923943Y-70091845D01*
X157890250Y-70093500D01*
X156777750Y-70093500D01*
X156744057Y-70091845D01*
X156710688Y-70086895D01*
X156677965Y-70078698D01*
X156646203Y-70067334D01*
X156615707Y-70052910D01*
X156586773Y-70035568D01*
X156559677Y-70015472D01*
X156534682Y-69992818D01*
X156512028Y-69967823D01*
X156491932Y-69940727D01*
X156474590Y-69911793D01*
X156460166Y-69881297D01*
X156448802Y-69849535D01*
X156440605Y-69816812D01*
X156435655Y-69783443D01*
X156434000Y-69749750D01*
X156434000Y-69062250D01*
X156435655Y-69028557D01*
X156440605Y-68995188D01*
X156448802Y-68962465D01*
X156460166Y-68930703D01*
X156474590Y-68900207D01*
X156491932Y-68871273D01*
X156512028Y-68844177D01*
X156534682Y-68819182D01*
X156559677Y-68796528D01*
X156586773Y-68776432D01*
X156615707Y-68759090D01*
X156646203Y-68744666D01*
X156677965Y-68733302D01*
X156710688Y-68725105D01*
X156744057Y-68720155D01*
X156777750Y-68718500D01*
X157890250Y-68718500D01*
X157923943Y-68720155D01*
X157923943Y-68720155D01*
G37*
D15*
X157334000Y-69406000D03*
G04 #@! TD*
D16*
G04 #@! TO.C,AS5600*
X160095000Y-58800000D03*
X161365000Y-58800000D03*
X162635000Y-58800000D03*
X163905000Y-58800000D03*
X163905000Y-64200000D03*
X162635000Y-64200000D03*
X161365000Y-64200000D03*
X160095000Y-64200000D03*
G04 #@! TD*
D10*
G04 #@! TO.C,2.5mm *
X172000000Y-72000000D03*
G04 #@! TD*
G04 #@! TO.C,2.5mm *
X152000000Y-72000000D03*
G04 #@! TD*
M02*
