G04 #@! TF.GenerationSoftware,KiCad,Pcbnew,(5.0.0)*
G04 #@! TF.CreationDate,2019-03-01T21:50:28+00:00*
G04 #@! TF.ProjectId,AS5600_I2C_v1,4153353630305F4932435F76312E6B69,rev?*
G04 #@! TF.SameCoordinates,Original*
G04 #@! TF.FileFunction,Copper,L1,Top,Signal*
G04 #@! TF.FilePolarity,Positive*
%FSLAX46Y46*%
G04 Gerber Fmt 4.6, Leading zero omitted, Abs format (unit mm)*
G04 Created by KiCad (PCBNEW (5.0.0)) date 03/01/19 21:50:28*
%MOMM*%
%LPD*%
G01*
G04 APERTURE LIST*
G04 #@! TA.AperFunction,WasherPad*
%ADD10C,2.900000*%
G04 #@! TD*
G04 #@! TA.AperFunction,ComponentPad*
%ADD11O,1.350000X1.350000*%
G04 #@! TD*
G04 #@! TA.AperFunction,ComponentPad*
%ADD12R,1.350000X1.350000*%
G04 #@! TD*
G04 #@! TA.AperFunction,SMDPad,CuDef*
%ADD13R,1.560000X0.650000*%
G04 #@! TD*
G04 #@! TA.AperFunction,Conductor*
%ADD14C,0.100000*%
G04 #@! TD*
G04 #@! TA.AperFunction,SMDPad,CuDef*
%ADD15C,0.975000*%
G04 #@! TD*
G04 #@! TA.AperFunction,SMDPad,CuDef*
%ADD16R,0.600000X1.550000*%
G04 #@! TD*
G04 #@! TA.AperFunction,Conductor*
%ADD17C,0.400000*%
G04 #@! TD*
G04 #@! TA.AperFunction,Conductor*
%ADD18C,0.250000*%
G04 #@! TD*
G04 #@! TA.AperFunction,Conductor*
%ADD19C,0.254000*%
G04 #@! TD*
G04 APERTURE END LIST*
D10*
G04 #@! TO.P,2.5mm ,*
G04 #@! TO.N,*
X172000000Y-59000000D03*
G04 #@! TD*
D11*
G04 #@! TO.P,J1,4*
G04 #@! TO.N,SDA*
X152000000Y-62500000D03*
G04 #@! TO.P,J1,3*
G04 #@! TO.N,SCL*
X152000000Y-64500000D03*
G04 #@! TO.P,J1,2*
G04 #@! TO.N,+5V*
X152000000Y-66500000D03*
D12*
G04 #@! TO.P,J1,1*
G04 #@! TO.N,GND*
X152000000Y-68500000D03*
G04 #@! TD*
D10*
G04 #@! TO.P,2.5mm ,*
G04 #@! TO.N,*
X152000000Y-59000000D03*
G04 #@! TD*
D13*
G04 #@! TO.P,U2,5*
G04 #@! TO.N,SCL*
X154714000Y-65530000D03*
G04 #@! TO.P,U2,4*
G04 #@! TO.N,SDA*
X154714000Y-63630000D03*
G04 #@! TO.P,U2,3*
G04 #@! TO.N,ANALOG*
X157414000Y-63630000D03*
G04 #@! TO.P,U2,2*
G04 #@! TO.N,GND*
X157414000Y-64580000D03*
G04 #@! TO.P,U2,1*
G04 #@! TO.N,+5V*
X157414000Y-65530000D03*
G04 #@! TD*
D14*
G04 #@! TO.N,Net-(C2-Pad1)*
G04 #@! TO.C,C2*
G36*
X161878142Y-66125674D02*
X161901803Y-66129184D01*
X161925007Y-66134996D01*
X161947529Y-66143054D01*
X161969153Y-66153282D01*
X161989670Y-66165579D01*
X162008883Y-66179829D01*
X162026607Y-66195893D01*
X162042671Y-66213617D01*
X162056921Y-66232830D01*
X162069218Y-66253347D01*
X162079446Y-66274971D01*
X162087504Y-66297493D01*
X162093316Y-66320697D01*
X162096826Y-66344358D01*
X162098000Y-66368250D01*
X162098000Y-66855750D01*
X162096826Y-66879642D01*
X162093316Y-66903303D01*
X162087504Y-66926507D01*
X162079446Y-66949029D01*
X162069218Y-66970653D01*
X162056921Y-66991170D01*
X162042671Y-67010383D01*
X162026607Y-67028107D01*
X162008883Y-67044171D01*
X161989670Y-67058421D01*
X161969153Y-67070718D01*
X161947529Y-67080946D01*
X161925007Y-67089004D01*
X161901803Y-67094816D01*
X161878142Y-67098326D01*
X161854250Y-67099500D01*
X160941750Y-67099500D01*
X160917858Y-67098326D01*
X160894197Y-67094816D01*
X160870993Y-67089004D01*
X160848471Y-67080946D01*
X160826847Y-67070718D01*
X160806330Y-67058421D01*
X160787117Y-67044171D01*
X160769393Y-67028107D01*
X160753329Y-67010383D01*
X160739079Y-66991170D01*
X160726782Y-66970653D01*
X160716554Y-66949029D01*
X160708496Y-66926507D01*
X160702684Y-66903303D01*
X160699174Y-66879642D01*
X160698000Y-66855750D01*
X160698000Y-66368250D01*
X160699174Y-66344358D01*
X160702684Y-66320697D01*
X160708496Y-66297493D01*
X160716554Y-66274971D01*
X160726782Y-66253347D01*
X160739079Y-66232830D01*
X160753329Y-66213617D01*
X160769393Y-66195893D01*
X160787117Y-66179829D01*
X160806330Y-66165579D01*
X160826847Y-66153282D01*
X160848471Y-66143054D01*
X160870993Y-66134996D01*
X160894197Y-66129184D01*
X160917858Y-66125674D01*
X160941750Y-66124500D01*
X161854250Y-66124500D01*
X161878142Y-66125674D01*
X161878142Y-66125674D01*
G37*
D15*
G04 #@! TD*
G04 #@! TO.P,C2,1*
G04 #@! TO.N,Net-(C2-Pad1)*
X161398000Y-66612000D03*
D14*
G04 #@! TO.N,GND*
G04 #@! TO.C,C2*
G36*
X161878142Y-68000674D02*
X161901803Y-68004184D01*
X161925007Y-68009996D01*
X161947529Y-68018054D01*
X161969153Y-68028282D01*
X161989670Y-68040579D01*
X162008883Y-68054829D01*
X162026607Y-68070893D01*
X162042671Y-68088617D01*
X162056921Y-68107830D01*
X162069218Y-68128347D01*
X162079446Y-68149971D01*
X162087504Y-68172493D01*
X162093316Y-68195697D01*
X162096826Y-68219358D01*
X162098000Y-68243250D01*
X162098000Y-68730750D01*
X162096826Y-68754642D01*
X162093316Y-68778303D01*
X162087504Y-68801507D01*
X162079446Y-68824029D01*
X162069218Y-68845653D01*
X162056921Y-68866170D01*
X162042671Y-68885383D01*
X162026607Y-68903107D01*
X162008883Y-68919171D01*
X161989670Y-68933421D01*
X161969153Y-68945718D01*
X161947529Y-68955946D01*
X161925007Y-68964004D01*
X161901803Y-68969816D01*
X161878142Y-68973326D01*
X161854250Y-68974500D01*
X160941750Y-68974500D01*
X160917858Y-68973326D01*
X160894197Y-68969816D01*
X160870993Y-68964004D01*
X160848471Y-68955946D01*
X160826847Y-68945718D01*
X160806330Y-68933421D01*
X160787117Y-68919171D01*
X160769393Y-68903107D01*
X160753329Y-68885383D01*
X160739079Y-68866170D01*
X160726782Y-68845653D01*
X160716554Y-68824029D01*
X160708496Y-68801507D01*
X160702684Y-68778303D01*
X160699174Y-68754642D01*
X160698000Y-68730750D01*
X160698000Y-68243250D01*
X160699174Y-68219358D01*
X160702684Y-68195697D01*
X160708496Y-68172493D01*
X160716554Y-68149971D01*
X160726782Y-68128347D01*
X160739079Y-68107830D01*
X160753329Y-68088617D01*
X160769393Y-68070893D01*
X160787117Y-68054829D01*
X160806330Y-68040579D01*
X160826847Y-68028282D01*
X160848471Y-68018054D01*
X160870993Y-68009996D01*
X160894197Y-68004184D01*
X160917858Y-68000674D01*
X160941750Y-67999500D01*
X161854250Y-67999500D01*
X161878142Y-68000674D01*
X161878142Y-68000674D01*
G37*
D15*
G04 #@! TD*
G04 #@! TO.P,C2,2*
G04 #@! TO.N,GND*
X161398000Y-68487000D03*
D14*
G04 #@! TO.N,+5V*
G04 #@! TO.C,C1*
G36*
X157814142Y-67044674D02*
X157837803Y-67048184D01*
X157861007Y-67053996D01*
X157883529Y-67062054D01*
X157905153Y-67072282D01*
X157925670Y-67084579D01*
X157944883Y-67098829D01*
X157962607Y-67114893D01*
X157978671Y-67132617D01*
X157992921Y-67151830D01*
X158005218Y-67172347D01*
X158015446Y-67193971D01*
X158023504Y-67216493D01*
X158029316Y-67239697D01*
X158032826Y-67263358D01*
X158034000Y-67287250D01*
X158034000Y-67774750D01*
X158032826Y-67798642D01*
X158029316Y-67822303D01*
X158023504Y-67845507D01*
X158015446Y-67868029D01*
X158005218Y-67889653D01*
X157992921Y-67910170D01*
X157978671Y-67929383D01*
X157962607Y-67947107D01*
X157944883Y-67963171D01*
X157925670Y-67977421D01*
X157905153Y-67989718D01*
X157883529Y-67999946D01*
X157861007Y-68008004D01*
X157837803Y-68013816D01*
X157814142Y-68017326D01*
X157790250Y-68018500D01*
X156877750Y-68018500D01*
X156853858Y-68017326D01*
X156830197Y-68013816D01*
X156806993Y-68008004D01*
X156784471Y-67999946D01*
X156762847Y-67989718D01*
X156742330Y-67977421D01*
X156723117Y-67963171D01*
X156705393Y-67947107D01*
X156689329Y-67929383D01*
X156675079Y-67910170D01*
X156662782Y-67889653D01*
X156652554Y-67868029D01*
X156644496Y-67845507D01*
X156638684Y-67822303D01*
X156635174Y-67798642D01*
X156634000Y-67774750D01*
X156634000Y-67287250D01*
X156635174Y-67263358D01*
X156638684Y-67239697D01*
X156644496Y-67216493D01*
X156652554Y-67193971D01*
X156662782Y-67172347D01*
X156675079Y-67151830D01*
X156689329Y-67132617D01*
X156705393Y-67114893D01*
X156723117Y-67098829D01*
X156742330Y-67084579D01*
X156762847Y-67072282D01*
X156784471Y-67062054D01*
X156806993Y-67053996D01*
X156830197Y-67048184D01*
X156853858Y-67044674D01*
X156877750Y-67043500D01*
X157790250Y-67043500D01*
X157814142Y-67044674D01*
X157814142Y-67044674D01*
G37*
D15*
G04 #@! TD*
G04 #@! TO.P,C1,1*
G04 #@! TO.N,+5V*
X157334000Y-67531000D03*
D14*
G04 #@! TO.N,GND*
G04 #@! TO.C,C1*
G36*
X157814142Y-68919674D02*
X157837803Y-68923184D01*
X157861007Y-68928996D01*
X157883529Y-68937054D01*
X157905153Y-68947282D01*
X157925670Y-68959579D01*
X157944883Y-68973829D01*
X157962607Y-68989893D01*
X157978671Y-69007617D01*
X157992921Y-69026830D01*
X158005218Y-69047347D01*
X158015446Y-69068971D01*
X158023504Y-69091493D01*
X158029316Y-69114697D01*
X158032826Y-69138358D01*
X158034000Y-69162250D01*
X158034000Y-69649750D01*
X158032826Y-69673642D01*
X158029316Y-69697303D01*
X158023504Y-69720507D01*
X158015446Y-69743029D01*
X158005218Y-69764653D01*
X157992921Y-69785170D01*
X157978671Y-69804383D01*
X157962607Y-69822107D01*
X157944883Y-69838171D01*
X157925670Y-69852421D01*
X157905153Y-69864718D01*
X157883529Y-69874946D01*
X157861007Y-69883004D01*
X157837803Y-69888816D01*
X157814142Y-69892326D01*
X157790250Y-69893500D01*
X156877750Y-69893500D01*
X156853858Y-69892326D01*
X156830197Y-69888816D01*
X156806993Y-69883004D01*
X156784471Y-69874946D01*
X156762847Y-69864718D01*
X156742330Y-69852421D01*
X156723117Y-69838171D01*
X156705393Y-69822107D01*
X156689329Y-69804383D01*
X156675079Y-69785170D01*
X156662782Y-69764653D01*
X156652554Y-69743029D01*
X156644496Y-69720507D01*
X156638684Y-69697303D01*
X156635174Y-69673642D01*
X156634000Y-69649750D01*
X156634000Y-69162250D01*
X156635174Y-69138358D01*
X156638684Y-69114697D01*
X156644496Y-69091493D01*
X156652554Y-69068971D01*
X156662782Y-69047347D01*
X156675079Y-69026830D01*
X156689329Y-69007617D01*
X156705393Y-68989893D01*
X156723117Y-68973829D01*
X156742330Y-68959579D01*
X156762847Y-68947282D01*
X156784471Y-68937054D01*
X156806993Y-68928996D01*
X156830197Y-68923184D01*
X156853858Y-68919674D01*
X156877750Y-68918500D01*
X157790250Y-68918500D01*
X157814142Y-68919674D01*
X157814142Y-68919674D01*
G37*
D15*
G04 #@! TD*
G04 #@! TO.P,C1,2*
G04 #@! TO.N,GND*
X157334000Y-69406000D03*
D16*
G04 #@! TO.P,AS5600,8*
G04 #@! TO.N,GND*
X160095000Y-58800000D03*
G04 #@! TO.P,AS5600,7*
G04 #@! TO.N,N/C*
X161365000Y-58800000D03*
G04 #@! TO.P,AS5600,6*
X162635000Y-58800000D03*
G04 #@! TO.P,AS5600,5*
X163905000Y-58800000D03*
G04 #@! TO.P,AS5600,4*
G04 #@! TO.N,GND*
X163905000Y-64200000D03*
G04 #@! TO.P,AS5600,3*
G04 #@! TO.N,ANALOG*
X162635000Y-64200000D03*
G04 #@! TO.P,AS5600,2*
G04 #@! TO.N,Net-(C2-Pad1)*
X161365000Y-64200000D03*
G04 #@! TO.P,AS5600,1*
G04 #@! TO.N,+5V*
X160095000Y-64200000D03*
G04 #@! TD*
D10*
G04 #@! TO.P,2.5mm ,*
G04 #@! TO.N,*
X172000000Y-72000000D03*
G04 #@! TD*
G04 #@! TO.P,2.5mm ,*
G04 #@! TO.N,*
X152000000Y-72000000D03*
G04 #@! TD*
D17*
G04 #@! TO.N,+5V*
X158970000Y-65530000D02*
X157414000Y-65530000D01*
X160095000Y-64200000D02*
X160095000Y-64405000D01*
X160095000Y-64405000D02*
X158970000Y-65530000D01*
X157334000Y-65610000D02*
X157414000Y-65530000D01*
X157334000Y-67531000D02*
X157334000Y-65610000D01*
X152750000Y-66500000D02*
X152000000Y-66500000D01*
X153750000Y-67500000D02*
X152750000Y-66500000D01*
X157334000Y-67531000D02*
X157303000Y-67500000D01*
X157303000Y-67500000D02*
X153750000Y-67500000D01*
G04 #@! TO.N,Net-(C2-Pad1)*
X161398000Y-64233000D02*
X161365000Y-64200000D01*
X161398000Y-66612000D02*
X161398000Y-64233000D01*
D18*
G04 #@! TO.N,SDA*
X154584000Y-63500000D02*
X154714000Y-63630000D01*
X153500000Y-62500000D02*
X152000000Y-62500000D01*
X154714000Y-63630000D02*
X154630000Y-63630000D01*
X154630000Y-63630000D02*
X153500000Y-62500000D01*
G04 #@! TO.N,SCL*
X153780000Y-65530000D02*
X154714000Y-65530000D01*
X152000000Y-64500000D02*
X152750000Y-64500000D01*
X152750000Y-64500000D02*
X153780000Y-65530000D01*
G04 #@! TO.N,ANALOG*
X162635000Y-63135000D02*
X162635000Y-64200000D01*
X162000000Y-62500000D02*
X162635000Y-63135000D01*
X158999000Y-62500000D02*
X162000000Y-62500000D01*
X157414000Y-63630000D02*
X157869000Y-63630000D01*
X157869000Y-63630000D02*
X158999000Y-62500000D01*
G04 #@! TD*
D19*
G04 #@! TO.N,GND*
G36*
X170908442Y-57366368D02*
X170366368Y-57908442D01*
X170073000Y-58616696D01*
X170073000Y-59383304D01*
X170366368Y-60091558D01*
X170908442Y-60633632D01*
X171616696Y-60927000D01*
X172383304Y-60927000D01*
X173091558Y-60633632D01*
X173633632Y-60091558D01*
X173923001Y-59392959D01*
X173923000Y-71607039D01*
X173633632Y-70908442D01*
X173091558Y-70366368D01*
X172383304Y-70073000D01*
X171616696Y-70073000D01*
X170908442Y-70366368D01*
X170366368Y-70908442D01*
X170073000Y-71616696D01*
X170073000Y-72383304D01*
X170366368Y-73091558D01*
X170908442Y-73633632D01*
X171607039Y-73923000D01*
X152392961Y-73923000D01*
X153091558Y-73633632D01*
X153633632Y-73091558D01*
X153927000Y-72383304D01*
X153927000Y-71616696D01*
X153633632Y-70908442D01*
X153091558Y-70366368D01*
X152383304Y-70073000D01*
X151616696Y-70073000D01*
X150908442Y-70366368D01*
X150366368Y-70908442D01*
X150077000Y-71607039D01*
X150077000Y-62500000D01*
X150825431Y-62500000D01*
X150914840Y-62949488D01*
X151169454Y-63330546D01*
X151423061Y-63500000D01*
X151169454Y-63669454D01*
X150914840Y-64050512D01*
X150825431Y-64500000D01*
X150914840Y-64949488D01*
X151169454Y-65330546D01*
X151423061Y-65500000D01*
X151169454Y-65669454D01*
X150914840Y-66050512D01*
X150825431Y-66500000D01*
X150914840Y-66949488D01*
X151169454Y-67330546D01*
X151550512Y-67585160D01*
X151886538Y-67652000D01*
X152113462Y-67652000D01*
X152449488Y-67585160D01*
X152706206Y-67413627D01*
X153224139Y-67931562D01*
X153261910Y-67988090D01*
X153318437Y-68025860D01*
X153485847Y-68137720D01*
X153750000Y-68190263D01*
X153816678Y-68177000D01*
X156285321Y-68177000D01*
X156361496Y-68291004D01*
X156598355Y-68449269D01*
X156877750Y-68504844D01*
X157790250Y-68504844D01*
X158069645Y-68449269D01*
X158306504Y-68291004D01*
X158464769Y-68054145D01*
X158520344Y-67774750D01*
X158520344Y-67287250D01*
X158464769Y-67007855D01*
X158306504Y-66770996D01*
X158069645Y-66612731D01*
X158011000Y-66601066D01*
X158011000Y-66341344D01*
X158194000Y-66341344D01*
X158380116Y-66304323D01*
X158525770Y-66207000D01*
X158903324Y-66207000D01*
X158970000Y-66220263D01*
X159036676Y-66207000D01*
X159036678Y-66207000D01*
X159234152Y-66167720D01*
X159458090Y-66018090D01*
X159495864Y-65961557D01*
X159996078Y-65461344D01*
X160395000Y-65461344D01*
X160581116Y-65424323D01*
X160721001Y-65330855D01*
X160721000Y-65682066D01*
X160662355Y-65693731D01*
X160425496Y-65851996D01*
X160267231Y-66088855D01*
X160211656Y-66368250D01*
X160211656Y-66855750D01*
X160267231Y-67135145D01*
X160425496Y-67372004D01*
X160662355Y-67530269D01*
X160941750Y-67585844D01*
X161854250Y-67585844D01*
X162133645Y-67530269D01*
X162370504Y-67372004D01*
X162528769Y-67135145D01*
X162584344Y-66855750D01*
X162584344Y-66368250D01*
X162528769Y-66088855D01*
X162370504Y-65851996D01*
X162133645Y-65693731D01*
X162075000Y-65682066D01*
X162075000Y-65374955D01*
X162148884Y-65424323D01*
X162335000Y-65461344D01*
X162935000Y-65461344D01*
X163121116Y-65424323D01*
X163278897Y-65318897D01*
X163384323Y-65161116D01*
X163421344Y-64975000D01*
X163421344Y-63425000D01*
X163384323Y-63238884D01*
X163278897Y-63081103D01*
X163231815Y-63049644D01*
X163202071Y-62900112D01*
X163147644Y-62818656D01*
X163102601Y-62751244D01*
X163102599Y-62751242D01*
X163069017Y-62700983D01*
X163018758Y-62667401D01*
X162467601Y-62116245D01*
X162434017Y-62065983D01*
X162234888Y-61932929D01*
X162059288Y-61898000D01*
X162059283Y-61898000D01*
X162000000Y-61886208D01*
X161940717Y-61898000D01*
X159058282Y-61898000D01*
X158998999Y-61886208D01*
X158939716Y-61898000D01*
X158939712Y-61898000D01*
X158764112Y-61932929D01*
X158764111Y-61932930D01*
X158764110Y-61932930D01*
X158695282Y-61978920D01*
X158564983Y-62065983D01*
X158531399Y-62116245D01*
X157828988Y-62818656D01*
X156634000Y-62818656D01*
X156447884Y-62855677D01*
X156290103Y-62961103D01*
X156184677Y-63118884D01*
X156147656Y-63305000D01*
X156147656Y-63955000D01*
X156184677Y-64141116D01*
X156290103Y-64298897D01*
X156447884Y-64404323D01*
X156634000Y-64441344D01*
X158194000Y-64441344D01*
X158380116Y-64404323D01*
X158537897Y-64298897D01*
X158643323Y-64141116D01*
X158680344Y-63955000D01*
X158680344Y-63670012D01*
X159248356Y-63102000D01*
X159437140Y-63102000D01*
X159345677Y-63238884D01*
X159308656Y-63425000D01*
X159308656Y-64233922D01*
X158689579Y-64853000D01*
X158525770Y-64853000D01*
X158380116Y-64755677D01*
X158194000Y-64718656D01*
X156634000Y-64718656D01*
X156447884Y-64755677D01*
X156290103Y-64861103D01*
X156184677Y-65018884D01*
X156147656Y-65205000D01*
X156147656Y-65855000D01*
X156184677Y-66041116D01*
X156290103Y-66198897D01*
X156447884Y-66304323D01*
X156634000Y-66341344D01*
X156657001Y-66341344D01*
X156657000Y-66601066D01*
X156598355Y-66612731D01*
X156361496Y-66770996D01*
X156326748Y-66823000D01*
X154030423Y-66823000D01*
X153275864Y-66068442D01*
X153238090Y-66011910D01*
X153014152Y-65862280D01*
X152950994Y-65849717D01*
X152830546Y-65669454D01*
X152576939Y-65500000D01*
X152769787Y-65371144D01*
X153312401Y-65913758D01*
X153345983Y-65964017D01*
X153396242Y-65997599D01*
X153396244Y-65997601D01*
X153475432Y-66050512D01*
X153503476Y-66069251D01*
X153590103Y-66198897D01*
X153747884Y-66304323D01*
X153934000Y-66341344D01*
X155494000Y-66341344D01*
X155680116Y-66304323D01*
X155837897Y-66198897D01*
X155943323Y-66041116D01*
X155980344Y-65855000D01*
X155980344Y-65205000D01*
X155943323Y-65018884D01*
X155837897Y-64861103D01*
X155680116Y-64755677D01*
X155494000Y-64718656D01*
X153934000Y-64718656D01*
X153838924Y-64737568D01*
X153217601Y-64116245D01*
X153184017Y-64065983D01*
X153024101Y-63959130D01*
X152830546Y-63669454D01*
X152576939Y-63500000D01*
X152830546Y-63330546D01*
X152983255Y-63102000D01*
X153250644Y-63102000D01*
X153448649Y-63300005D01*
X153447656Y-63305000D01*
X153447656Y-63955000D01*
X153484677Y-64141116D01*
X153590103Y-64298897D01*
X153747884Y-64404323D01*
X153934000Y-64441344D01*
X155494000Y-64441344D01*
X155680116Y-64404323D01*
X155837897Y-64298897D01*
X155943323Y-64141116D01*
X155980344Y-63955000D01*
X155980344Y-63305000D01*
X155943323Y-63118884D01*
X155837897Y-62961103D01*
X155680116Y-62855677D01*
X155494000Y-62818656D01*
X154670012Y-62818656D01*
X153967601Y-62116245D01*
X153934017Y-62065983D01*
X153734888Y-61932929D01*
X153559288Y-61898000D01*
X153559283Y-61898000D01*
X153500000Y-61886208D01*
X153440717Y-61898000D01*
X152983255Y-61898000D01*
X152830546Y-61669454D01*
X152449488Y-61414840D01*
X152113462Y-61348000D01*
X151886538Y-61348000D01*
X151550512Y-61414840D01*
X151169454Y-61669454D01*
X150914840Y-62050512D01*
X150825431Y-62500000D01*
X150077000Y-62500000D01*
X150077000Y-59392961D01*
X150366368Y-60091558D01*
X150908442Y-60633632D01*
X151616696Y-60927000D01*
X152383304Y-60927000D01*
X153091558Y-60633632D01*
X153633632Y-60091558D01*
X153927000Y-59383304D01*
X153927000Y-58616696D01*
X153681912Y-58025000D01*
X160578656Y-58025000D01*
X160578656Y-59575000D01*
X160615677Y-59761116D01*
X160721103Y-59918897D01*
X160878884Y-60024323D01*
X161065000Y-60061344D01*
X161665000Y-60061344D01*
X161851116Y-60024323D01*
X162000000Y-59924842D01*
X162148884Y-60024323D01*
X162335000Y-60061344D01*
X162935000Y-60061344D01*
X163121116Y-60024323D01*
X163270000Y-59924842D01*
X163418884Y-60024323D01*
X163605000Y-60061344D01*
X164205000Y-60061344D01*
X164391116Y-60024323D01*
X164548897Y-59918897D01*
X164654323Y-59761116D01*
X164691344Y-59575000D01*
X164691344Y-58025000D01*
X164654323Y-57838884D01*
X164548897Y-57681103D01*
X164391116Y-57575677D01*
X164205000Y-57538656D01*
X163605000Y-57538656D01*
X163418884Y-57575677D01*
X163270000Y-57675158D01*
X163121116Y-57575677D01*
X162935000Y-57538656D01*
X162335000Y-57538656D01*
X162148884Y-57575677D01*
X162000000Y-57675158D01*
X161851116Y-57575677D01*
X161665000Y-57538656D01*
X161065000Y-57538656D01*
X160878884Y-57575677D01*
X160721103Y-57681103D01*
X160615677Y-57838884D01*
X160578656Y-58025000D01*
X153681912Y-58025000D01*
X153633632Y-57908442D01*
X153091558Y-57366368D01*
X152392961Y-57077000D01*
X171607039Y-57077000D01*
X170908442Y-57366368D01*
X170908442Y-57366368D01*
G37*
X170908442Y-57366368D02*
X170366368Y-57908442D01*
X170073000Y-58616696D01*
X170073000Y-59383304D01*
X170366368Y-60091558D01*
X170908442Y-60633632D01*
X171616696Y-60927000D01*
X172383304Y-60927000D01*
X173091558Y-60633632D01*
X173633632Y-60091558D01*
X173923001Y-59392959D01*
X173923000Y-71607039D01*
X173633632Y-70908442D01*
X173091558Y-70366368D01*
X172383304Y-70073000D01*
X171616696Y-70073000D01*
X170908442Y-70366368D01*
X170366368Y-70908442D01*
X170073000Y-71616696D01*
X170073000Y-72383304D01*
X170366368Y-73091558D01*
X170908442Y-73633632D01*
X171607039Y-73923000D01*
X152392961Y-73923000D01*
X153091558Y-73633632D01*
X153633632Y-73091558D01*
X153927000Y-72383304D01*
X153927000Y-71616696D01*
X153633632Y-70908442D01*
X153091558Y-70366368D01*
X152383304Y-70073000D01*
X151616696Y-70073000D01*
X150908442Y-70366368D01*
X150366368Y-70908442D01*
X150077000Y-71607039D01*
X150077000Y-62500000D01*
X150825431Y-62500000D01*
X150914840Y-62949488D01*
X151169454Y-63330546D01*
X151423061Y-63500000D01*
X151169454Y-63669454D01*
X150914840Y-64050512D01*
X150825431Y-64500000D01*
X150914840Y-64949488D01*
X151169454Y-65330546D01*
X151423061Y-65500000D01*
X151169454Y-65669454D01*
X150914840Y-66050512D01*
X150825431Y-66500000D01*
X150914840Y-66949488D01*
X151169454Y-67330546D01*
X151550512Y-67585160D01*
X151886538Y-67652000D01*
X152113462Y-67652000D01*
X152449488Y-67585160D01*
X152706206Y-67413627D01*
X153224139Y-67931562D01*
X153261910Y-67988090D01*
X153318437Y-68025860D01*
X153485847Y-68137720D01*
X153750000Y-68190263D01*
X153816678Y-68177000D01*
X156285321Y-68177000D01*
X156361496Y-68291004D01*
X156598355Y-68449269D01*
X156877750Y-68504844D01*
X157790250Y-68504844D01*
X158069645Y-68449269D01*
X158306504Y-68291004D01*
X158464769Y-68054145D01*
X158520344Y-67774750D01*
X158520344Y-67287250D01*
X158464769Y-67007855D01*
X158306504Y-66770996D01*
X158069645Y-66612731D01*
X158011000Y-66601066D01*
X158011000Y-66341344D01*
X158194000Y-66341344D01*
X158380116Y-66304323D01*
X158525770Y-66207000D01*
X158903324Y-66207000D01*
X158970000Y-66220263D01*
X159036676Y-66207000D01*
X159036678Y-66207000D01*
X159234152Y-66167720D01*
X159458090Y-66018090D01*
X159495864Y-65961557D01*
X159996078Y-65461344D01*
X160395000Y-65461344D01*
X160581116Y-65424323D01*
X160721001Y-65330855D01*
X160721000Y-65682066D01*
X160662355Y-65693731D01*
X160425496Y-65851996D01*
X160267231Y-66088855D01*
X160211656Y-66368250D01*
X160211656Y-66855750D01*
X160267231Y-67135145D01*
X160425496Y-67372004D01*
X160662355Y-67530269D01*
X160941750Y-67585844D01*
X161854250Y-67585844D01*
X162133645Y-67530269D01*
X162370504Y-67372004D01*
X162528769Y-67135145D01*
X162584344Y-66855750D01*
X162584344Y-66368250D01*
X162528769Y-66088855D01*
X162370504Y-65851996D01*
X162133645Y-65693731D01*
X162075000Y-65682066D01*
X162075000Y-65374955D01*
X162148884Y-65424323D01*
X162335000Y-65461344D01*
X162935000Y-65461344D01*
X163121116Y-65424323D01*
X163278897Y-65318897D01*
X163384323Y-65161116D01*
X163421344Y-64975000D01*
X163421344Y-63425000D01*
X163384323Y-63238884D01*
X163278897Y-63081103D01*
X163231815Y-63049644D01*
X163202071Y-62900112D01*
X163147644Y-62818656D01*
X163102601Y-62751244D01*
X163102599Y-62751242D01*
X163069017Y-62700983D01*
X163018758Y-62667401D01*
X162467601Y-62116245D01*
X162434017Y-62065983D01*
X162234888Y-61932929D01*
X162059288Y-61898000D01*
X162059283Y-61898000D01*
X162000000Y-61886208D01*
X161940717Y-61898000D01*
X159058282Y-61898000D01*
X158998999Y-61886208D01*
X158939716Y-61898000D01*
X158939712Y-61898000D01*
X158764112Y-61932929D01*
X158764111Y-61932930D01*
X158764110Y-61932930D01*
X158695282Y-61978920D01*
X158564983Y-62065983D01*
X158531399Y-62116245D01*
X157828988Y-62818656D01*
X156634000Y-62818656D01*
X156447884Y-62855677D01*
X156290103Y-62961103D01*
X156184677Y-63118884D01*
X156147656Y-63305000D01*
X156147656Y-63955000D01*
X156184677Y-64141116D01*
X156290103Y-64298897D01*
X156447884Y-64404323D01*
X156634000Y-64441344D01*
X158194000Y-64441344D01*
X158380116Y-64404323D01*
X158537897Y-64298897D01*
X158643323Y-64141116D01*
X158680344Y-63955000D01*
X158680344Y-63670012D01*
X159248356Y-63102000D01*
X159437140Y-63102000D01*
X159345677Y-63238884D01*
X159308656Y-63425000D01*
X159308656Y-64233922D01*
X158689579Y-64853000D01*
X158525770Y-64853000D01*
X158380116Y-64755677D01*
X158194000Y-64718656D01*
X156634000Y-64718656D01*
X156447884Y-64755677D01*
X156290103Y-64861103D01*
X156184677Y-65018884D01*
X156147656Y-65205000D01*
X156147656Y-65855000D01*
X156184677Y-66041116D01*
X156290103Y-66198897D01*
X156447884Y-66304323D01*
X156634000Y-66341344D01*
X156657001Y-66341344D01*
X156657000Y-66601066D01*
X156598355Y-66612731D01*
X156361496Y-66770996D01*
X156326748Y-66823000D01*
X154030423Y-66823000D01*
X153275864Y-66068442D01*
X153238090Y-66011910D01*
X153014152Y-65862280D01*
X152950994Y-65849717D01*
X152830546Y-65669454D01*
X152576939Y-65500000D01*
X152769787Y-65371144D01*
X153312401Y-65913758D01*
X153345983Y-65964017D01*
X153396242Y-65997599D01*
X153396244Y-65997601D01*
X153475432Y-66050512D01*
X153503476Y-66069251D01*
X153590103Y-66198897D01*
X153747884Y-66304323D01*
X153934000Y-66341344D01*
X155494000Y-66341344D01*
X155680116Y-66304323D01*
X155837897Y-66198897D01*
X155943323Y-66041116D01*
X155980344Y-65855000D01*
X155980344Y-65205000D01*
X155943323Y-65018884D01*
X155837897Y-64861103D01*
X155680116Y-64755677D01*
X155494000Y-64718656D01*
X153934000Y-64718656D01*
X153838924Y-64737568D01*
X153217601Y-64116245D01*
X153184017Y-64065983D01*
X153024101Y-63959130D01*
X152830546Y-63669454D01*
X152576939Y-63500000D01*
X152830546Y-63330546D01*
X152983255Y-63102000D01*
X153250644Y-63102000D01*
X153448649Y-63300005D01*
X153447656Y-63305000D01*
X153447656Y-63955000D01*
X153484677Y-64141116D01*
X153590103Y-64298897D01*
X153747884Y-64404323D01*
X153934000Y-64441344D01*
X155494000Y-64441344D01*
X155680116Y-64404323D01*
X155837897Y-64298897D01*
X155943323Y-64141116D01*
X155980344Y-63955000D01*
X155980344Y-63305000D01*
X155943323Y-63118884D01*
X155837897Y-62961103D01*
X155680116Y-62855677D01*
X155494000Y-62818656D01*
X154670012Y-62818656D01*
X153967601Y-62116245D01*
X153934017Y-62065983D01*
X153734888Y-61932929D01*
X153559288Y-61898000D01*
X153559283Y-61898000D01*
X153500000Y-61886208D01*
X153440717Y-61898000D01*
X152983255Y-61898000D01*
X152830546Y-61669454D01*
X152449488Y-61414840D01*
X152113462Y-61348000D01*
X151886538Y-61348000D01*
X151550512Y-61414840D01*
X151169454Y-61669454D01*
X150914840Y-62050512D01*
X150825431Y-62500000D01*
X150077000Y-62500000D01*
X150077000Y-59392961D01*
X150366368Y-60091558D01*
X150908442Y-60633632D01*
X151616696Y-60927000D01*
X152383304Y-60927000D01*
X153091558Y-60633632D01*
X153633632Y-60091558D01*
X153927000Y-59383304D01*
X153927000Y-58616696D01*
X153681912Y-58025000D01*
X160578656Y-58025000D01*
X160578656Y-59575000D01*
X160615677Y-59761116D01*
X160721103Y-59918897D01*
X160878884Y-60024323D01*
X161065000Y-60061344D01*
X161665000Y-60061344D01*
X161851116Y-60024323D01*
X162000000Y-59924842D01*
X162148884Y-60024323D01*
X162335000Y-60061344D01*
X162935000Y-60061344D01*
X163121116Y-60024323D01*
X163270000Y-59924842D01*
X163418884Y-60024323D01*
X163605000Y-60061344D01*
X164205000Y-60061344D01*
X164391116Y-60024323D01*
X164548897Y-59918897D01*
X164654323Y-59761116D01*
X164691344Y-59575000D01*
X164691344Y-58025000D01*
X164654323Y-57838884D01*
X164548897Y-57681103D01*
X164391116Y-57575677D01*
X164205000Y-57538656D01*
X163605000Y-57538656D01*
X163418884Y-57575677D01*
X163270000Y-57675158D01*
X163121116Y-57575677D01*
X162935000Y-57538656D01*
X162335000Y-57538656D01*
X162148884Y-57575677D01*
X162000000Y-57675158D01*
X161851116Y-57575677D01*
X161665000Y-57538656D01*
X161065000Y-57538656D01*
X160878884Y-57575677D01*
X160721103Y-57681103D01*
X160615677Y-57838884D01*
X160578656Y-58025000D01*
X153681912Y-58025000D01*
X153633632Y-57908442D01*
X153091558Y-57366368D01*
X152392961Y-57077000D01*
X171607039Y-57077000D01*
X170908442Y-57366368D01*
G04 #@! TD*
M02*
